<svg width="124" height="124" viewBox="0 0 124 124" fill="none" xmlns="http://www.w3.org/2000/svg">
<g filter="url(#filter0_ddd)">
<circle cx="62" cy="58" r="48" fill="#D5E2E8"/>
<circle cx="62" cy="58" r="51" stroke="#0E2F56" stroke-width="6"/>
</g>
<path d="M42.85 45.2768C40.6333 42.256 33.1866 41.2362 29.4759 42.0308C25.7651 42.8253 26.688 46.6603 26.688 46.6603L33.6008 52.5562C33.6008 52.5562 38.8166 57.6091 43.8625 58.0593C48.9085 58.5095 45.0684 48.2971 42.85 45.2768Z" fill="#5F819D"/>
<path d="M85.8127 57.3437L84.0973 57.4369L83.6172 62.6573L78.8733 64.4363C78.8733 64.4363 80.4605 66.9481 79.2092 68.5792C77.9579 70.2103 73.97 73.1358 71.9943 72.5228L62.8618 70.7642C62.8618 70.7642 74.6483 77.7248 80.9547 73.441C87.2611 69.1572 85.2497 76.4311 85.2497 76.4311C85.2497 76.4311 90.9475 73.5589 91.8321 68.995C92.7167 64.4311 92.1463 59.9195 92.1463 59.9195L85.8127 57.3437Z" fill="#5F819D"/>
<path d="M57.7856 83.9431C53.0466 82.7989 49.5178 79.0497 47.5068 74.6875C46.2706 72.0017 45.6365 69.0771 45.3771 66.135C45.2501 64.6821 45.2138 63.2225 45.2683 61.7649C45.3295 60.086 45.1329 58.5854 43.8036 57.4213C42.6729 56.4327 41.1223 55.7267 39.8245 54.9947C38.4508 54.2179 37.045 53.4936 35.6541 52.7474C33.3302 51.5028 30.451 50.3717 28.7062 48.2866C27.5505 46.9127 26.7765 44.38 28.3578 42.9925C29.8333 41.6986 32.2812 42.435 33.9777 42.7446C36.3427 43.1822 38.6438 43.3192 40.8153 42.1086C43.1004 40.8348 44.7091 38.6397 47.2465 37.8005C51.127 36.5151 55.6522 38.1165 57.6617 41.667C58.554 43.2451 58.9187 45.3445 58.7171 47.2436C58.4607 49.5935 57.458 51.2181 55.9302 52.9895C54.2302 54.9641 52.8244 57.2658 53.441 59.9899C53.7225 61.2174 54.3363 62.3634 55.3969 63.0657C56.0564 63.5016 56.8841 63.8544 57.6703 63.6486C58.3801 63.4714 58.9966 62.8631 59.6071 62.4548C67.3311 57.2798 77.6711 55.804 86.3999 58.7045C87.5616 59.0898 88.7001 59.5438 89.8096 60.0642C92.4254 61.2889 94.2149 57.1161 91.5926 55.8999C82.7466 51.809 71.9784 51.6891 63.1076 55.789C60.597 56.9666 58.2265 58.4307 56.0422 60.1531L57.5096 59.7816C57.7272 59.8408 57.409 59.6478 57.404 59.64C57.2832 59.4006 57.2051 59.1415 57.1733 58.8744C57.1122 58.215 57.316 57.6314 57.7296 56.9718C58.8684 55.1861 60.4782 53.8266 61.475 51.9158C63.2669 48.507 63.2704 44.1453 61.6698 40.6605C59.9687 36.957 56.693 34.4823 52.7368 33.7859C48.7012 33.0758 44.8247 34.3814 41.8481 37.1692C40.3538 38.5753 38.9443 40.1096 36.7998 40.2559C35.0718 40.3719 33.3489 39.8337 31.6361 39.6927C29.9733 39.5554 28.2541 39.7292 26.8923 40.7997C25.4 41.9698 24.7674 43.8515 24.8273 45.7172C24.9899 50.3365 29.2074 52.9109 32.6357 55.0914C34.8517 56.4997 37.0494 57.941 39.315 59.2662C39.8192 59.5626 40.346 59.8421 40.8289 60.1589C40.9797 60.2567 41.4926 60.8263 41.3245 60.433C41.5062 60.8564 41.3465 61.624 41.3355 62.0672C41.317 62.7723 41.3083 63.4774 41.3231 64.1831C41.4336 69.5111 42.7361 75.0324 46.065 79.2647C48.864 82.8236 52.9662 85.442 57.4897 85.8246C57.9892 85.8749 58.4404 85.52 58.5172 85.0162C58.594 84.5125 58.2698 84.0355 57.7787 83.9301L57.7856 83.9431Z" fill="#0E2F56"/>
<path d="M68.8767 86.4521C70.423 86.2288 71.9979 86.2649 73.5349 85.9624C75.0718 85.6599 76.6375 85.3261 78.1031 84.7893C81.0281 83.6913 83.7493 82.0989 86.1515 80.0794C90.2759 76.623 93.4518 71.8047 94.5144 66.4403C95.0165 63.9111 95.2914 60.5753 94.2122 58.1589C93.8253 57.2918 93.1605 56.5813 92.2006 56.4296C91.2953 56.2756 90.4293 56.8667 90.2277 57.7762C90.0639 58.5731 90.388 59.1629 90.6559 59.8838C90.8749 60.4485 90.9079 61.0856 90.9563 61.6869C91.3608 66.6641 89.2808 71.6034 86.1185 75.3074C83.9833 77.806 81.2161 79.8241 78.3376 81.3393C76.7949 82.1541 75.2438 82.9722 73.6467 83.6664C72.0006 84.3901 70.4293 85.2163 68.6895 85.6632C68.2447 85.7759 68.4349 86.5122 68.8801 86.4507L68.8767 86.4521Z" fill="#0E2F56"/>
<path d="M60.7496 86.3148C61.7706 85.9064 61.1471 84.2938 60.1244 84.7029C59.1017 85.112 59.7269 86.7239 60.7496 86.3148Z" fill="#0E2F56"/>
<path d="M63.6836 86.9872C64.6355 86.6064 64.0546 85.1034 63.101 85.4849C62.1473 85.8664 62.73 87.3687 63.6836 86.9872Z" fill="#0E2F56"/>
<path d="M66.4715 86.7539C67.0915 86.5059 66.713 85.5247 66.0913 85.7734C65.4696 86.0221 65.8498 87.0026 66.4715 86.7539Z" fill="#0E2F56"/>
<path d="M56.146 66.8538C59.721 70.8915 64.7399 73.3061 70.0808 73.5578C72.9351 73.6712 76.2582 73.1365 78.5363 71.2725C80.8145 69.4085 81.8281 65.9552 79.9248 63.4513L79.2679 65.8072C81.9898 65.0623 85.0359 63.7232 85.5122 60.5303C85.9954 57.2951 83.4828 54.6555 80.3692 54.6261C78.7095 54.6121 78.6359 57.4936 80.2992 57.5972C81.82 57.6945 83.1322 58.9702 82.4488 60.5955C81.7893 62.1619 79.6001 62.579 78.1583 62.9463C77.1765 63.1947 76.9779 64.5846 77.5025 65.2998C78.8447 67.1347 76.7701 69.0517 75.2078 69.7004C73.1966 70.5365 70.8625 70.816 68.6953 70.8033C64.3269 70.7612 60.1259 69.0907 56.8907 66.1092C56.4513 65.7038 55.7361 66.3991 56.1393 66.8565L56.146 66.8538Z" fill="#0E2F56"/>
<path d="M48.5245 46.6722L48.5859 46.6298C49.0332 46.2893 49.2707 45.7346 49.2109 45.1702L49.2056 45.1565C49.1447 44.5841 48.7864 44.0887 48.2667 43.8586C47.747 43.6286 47.1458 43.6991 46.6914 44.0434L46.6779 44.0487C46.2318 44.3898 45.9951 44.9439 46.0546 45.5077L46.0643 45.5829C46.1226 46.1426 46.4734 46.627 46.9821 46.8504C47.4906 47.0752 48.0789 47.0052 48.5225 46.6671L48.5245 46.6722Z" fill="#0E2F56"/>
<defs>
<filter id="filter0_ddd" x="0" y="0" width="124" height="124" filterUnits="userSpaceOnUse" color-interpolation-filters="sRGB">
<feFlood flood-opacity="0" result="BackgroundImageFix"/>
<feColorMatrix in="SourceAlpha" type="matrix" values="0 0 0 0 0 0 0 0 0 0 0 0 0 0 0 0 0 0 127 0" result="hardAlpha"/>
<feOffset/>
<feGaussianBlur stdDeviation="0.5"/>
<feColorMatrix type="matrix" values="0 0 0 0 0.00392157 0 0 0 0 0.211765 0 0 0 0 0.376471 0 0 0 0.04 0"/>
<feBlend mode="normal" in2="BackgroundImageFix" result="effect1_dropShadow"/>
<feColorMatrix in="SourceAlpha" type="matrix" values="0 0 0 0 0 0 0 0 0 0 0 0 0 0 0 0 0 0 127 0" result="hardAlpha"/>
<feOffset/>
<feGaussianBlur stdDeviation="1"/>
<feColorMatrix type="matrix" values="0 0 0 0 0.00392157 0 0 0 0 0.211765 0 0 0 0 0.376471 0 0 0 0.06 0"/>
<feBlend mode="normal" in2="effect1_dropShadow" result="effect2_dropShadow"/>
<feColorMatrix in="SourceAlpha" type="matrix" values="0 0 0 0 0 0 0 0 0 0 0 0 0 0 0 0 0 0 127 0" result="hardAlpha"/>
<feOffset dy="4"/>
<feGaussianBlur stdDeviation="4"/>
<feColorMatrix type="matrix" values="0 0 0 0 0.00392157 0 0 0 0 0.211765 0 0 0 0 0.376471 0 0 0 0.04 0"/>
<feBlend mode="normal" in2="effect2_dropShadow" result="effect3_dropShadow"/>
<feBlend mode="normal" in="SourceGraphic" in2="effect3_dropShadow" result="shape"/>
</filter>
</defs>
</svg>
