<svg width="77" height="16" viewBox="0 0 77 16" fill="none" xmlns="http://www.w3.org/2000/svg">
<path d="M0 7.17983V4.36597C0.227128 2.41015 1.42588 0.618354 3.74764 0.0379165C4.5552 -0.163975 5.32491 0.466936 5.32491 1.29974C5.32491 1.85494 4.97158 2.34704 4.45424 2.5237C3.62144 2.8013 3.06625 3.44484 2.86436 4.36597H5.03469C5.74131 4.36597 6.30911 4.93379 6.30911 5.64041V5.66564C6.30911 6.37226 5.74131 6.94008 5.03469 6.94008H2.94005V14.4984C2.94005 15.306 2.28392 15.9621 1.47636 15.9621C0.66879 15.9621 0.0126305 15.306 0.0126305 14.4984V7.17983H0Z" fill="#D5E2E8"/>
<path d="M9.7157 9.16076C9.7157 6.96519 11.0911 5.07245 13.4255 4.46677C14.2457 4.25227 15.0406 4.89579 15.0406 5.74121C15.0406 6.30903 14.6999 6.82638 14.1573 7.00303C13.211 7.30587 12.6053 8.12606 12.6053 9.51406V14.5361C12.6053 15.3311 11.9617 15.9746 11.1668 15.9746C10.3718 15.9746 9.72833 15.3311 9.72833 14.5361V9.16076H9.7157Z" fill="#D5E2E8"/>
<path d="M21.0217 4.36584C21.8293 4.36584 22.4728 5.02199 22.4728 5.81694L22.4476 14.5109C22.4476 15.3184 21.7915 15.962 20.9965 15.962C20.1889 15.962 19.5454 15.3058 19.5454 14.5109L19.5706 5.81694C19.558 5.02199 20.2142 4.36584 21.0217 4.36584Z" fill="#D5E2E8"/>
<path d="M27.0535 13.3374C27.3815 12.757 28.1008 12.5551 28.6812 12.8705C29.4131 13.2491 30.2206 13.5519 31.003 13.5519C31.6087 13.5519 32.7064 13.4005 32.7064 12.5677C32.7064 10.839 27.003 11.2302 27.003 7.69706C27.003 5.4384 29.1355 4.42896 31.1039 4.42896C32.1386 4.42896 33.2238 4.7444 34.1828 5.21128C34.8515 5.53935 35.1039 6.37216 34.7127 7.01569C34.372 7.58351 33.6528 7.78539 33.0597 7.49517C32.4162 7.1671 31.697 6.87688 31.0661 6.87688C30.6118 6.87688 29.9304 6.97783 29.9304 7.55826C29.9304 9.33743 35.6339 8.66867 35.6339 12.5298C35.6339 14.9399 33.148 15.9746 31.0408 15.9746C29.779 15.9746 28.6055 15.6087 27.4951 15.0409C26.8894 14.738 26.6749 13.9809 27.003 13.3879L27.0535 13.3374Z" fill="#D5E2E8"/>
<path d="M39.1415 13.3374C39.4696 12.757 40.1888 12.5551 40.7692 12.8705C41.5011 13.2491 42.3086 13.5519 43.091 13.5519C43.6966 13.5519 44.7944 13.4005 44.7944 12.5677C44.7944 10.839 39.091 11.2302 39.091 7.69706C39.091 5.4384 41.2235 4.42896 43.1919 4.42896C44.2266 4.42896 45.3118 4.7444 46.2708 5.21128C46.9396 5.53935 47.1919 6.37216 46.8007 7.01569C46.4601 7.58351 45.7408 7.78539 45.1477 7.49517C44.5042 7.1671 43.785 6.87688 43.1541 6.87688C42.6998 6.87688 42.0184 6.97783 42.0184 7.55826C42.0184 9.33743 47.7219 8.66867 47.7219 12.5298C47.7219 14.9399 45.2361 15.9746 43.1288 15.9746C41.8922 15.9746 40.7188 15.6087 39.6336 15.0661C39.0027 14.7506 38.7629 13.9809 39.1036 13.3753L39.1415 13.3374Z" fill="#D5E2E8"/>
<path d="M50.6744 10.1956C50.6744 6.97797 53.2359 4.39124 56.4536 4.39124C59.646 4.39124 62.2327 6.97797 62.2327 10.1956C62.2327 13.388 59.646 16 56.4284 16C53.2359 16 50.6744 13.388 50.6744 10.1956ZM56.4788 13.2366C58.0813 13.2366 59.4189 11.9243 59.4189 10.2966C59.4189 8.66882 58.0813 7.35652 56.4788 7.35652C54.8511 7.35652 53.5388 8.66882 53.5388 10.2966C53.5388 11.9369 54.8511 13.2366 56.4788 13.2366Z" fill="#D5E2E8"/>
<path d="M65.5515 9.23655C65.5515 6.64982 67.7092 4.41638 70.8511 4.41638C74.0183 4.41638 76.176 6.64982 76.176 9.23655V14.5236C76.176 15.3312 75.5199 15.9747 74.7249 15.9747C73.9174 15.9747 73.2738 15.3185 73.2738 14.5236V9.66557C73.2738 7.8864 72.2896 6.87694 70.8637 6.87694C69.4757 6.87694 68.4789 7.8864 68.4789 9.66557V14.5236C68.4789 15.3312 67.8228 15.9747 67.0278 15.9747C66.2202 15.9747 65.5767 15.3185 65.5767 14.5236V9.23655H65.5515Z" fill="#D5E2E8"/>
</svg>
