<svg width="113" height="24" viewBox="0 0 113 24" fill="none" xmlns="http://www.w3.org/2000/svg">
<path d="M32.2285 10.0919V7.11254C32.469 5.04167 33.7383 3.14447 36.1966 2.52989C37.0517 2.31613 37.8667 2.98415 37.8667 3.86594C37.8667 4.4538 37.4925 4.97485 36.9448 5.1619C36.063 5.45583 35.4751 6.13723 35.2614 7.11254H37.5594C38.3075 7.11254 38.9088 7.71376 38.9088 8.46194V8.48866C38.9088 9.23684 38.3075 9.83806 37.5594 9.83806H35.3415V17.841C35.3415 18.6961 34.6468 19.3908 33.7917 19.3908C32.9366 19.3908 32.2419 18.6961 32.2419 17.841V10.0919H32.2285Z" fill="#0E2F56"/>
<path d="M42.5156 12.1894C42.5156 9.86473 43.9719 7.86065 46.4436 7.21934C47.3121 6.99222 48.1538 7.6736 48.1538 8.56875C48.1538 9.16997 47.793 9.71775 47.2185 9.90479C46.2165 10.2254 45.5752 11.0939 45.5752 12.5635V17.881C45.5752 18.7227 44.8938 19.4041 44.0521 19.4041C43.2104 19.4041 42.529 18.7227 42.529 17.881V12.1894H42.5156Z" fill="#0E2F56"/>
<path d="M54.4868 7.1123C55.3418 7.1123 56.0232 7.80705 56.0232 8.64876L55.9965 17.8541C55.9965 18.7092 55.3017 19.3906 54.46 19.3906C53.605 19.3906 52.9236 18.6958 52.9236 17.8541L52.9503 8.64876C52.9369 7.80705 53.6317 7.1123 54.4868 7.1123Z" fill="#0E2F56"/>
<path d="M60.8732 16.6117C61.2206 15.9971 61.9821 15.7833 62.5967 16.1173C63.3716 16.5182 64.2267 16.8388 65.055 16.8388C65.6963 16.8388 66.8587 16.6785 66.8587 15.7967C66.8587 13.9663 60.8197 14.3805 60.8197 10.6395C60.8197 8.24802 63.0777 7.1792 65.1619 7.1792C66.2574 7.1792 67.4065 7.5132 68.4219 8.00754C69.13 8.35491 69.3972 9.23671 68.983 9.91809C68.6223 10.5193 67.8607 10.7331 67.2328 10.4258C66.5514 10.0784 65.7899 9.77112 65.1218 9.77112C64.6409 9.77112 63.9194 9.878 63.9194 10.4926C63.9194 12.3764 69.9583 11.6683 69.9583 15.7566C69.9583 18.3085 67.3263 19.404 65.0951 19.404C63.759 19.404 62.5165 19.0166 61.3408 18.4153C60.6995 18.0947 60.4724 17.2931 60.8197 16.6651L60.8732 16.6117Z" fill="#0E2F56"/>
<path d="M73.6726 16.6117C74.02 15.9971 74.7815 15.7833 75.3961 16.1173C76.171 16.5182 77.0261 16.8388 77.8544 16.8388C78.4957 16.8388 79.6581 16.6785 79.6581 15.7967C79.6581 13.9663 73.6192 14.3805 73.6192 10.6395C73.6192 8.24802 75.8771 7.1792 77.9613 7.1792C79.0569 7.1792 80.2059 7.5132 81.2213 8.00754C81.9294 8.35491 82.1966 9.23671 81.7824 9.91809C81.4217 10.5193 80.6601 10.7331 80.0322 10.4258C79.3508 10.0784 78.5892 9.77112 77.9212 9.77112C77.4402 9.77112 76.7188 9.878 76.7188 10.4926C76.7188 12.3764 82.7577 11.6683 82.7577 15.7566C82.7577 18.3085 80.1257 19.404 77.8945 19.404C76.5852 19.404 75.3427 19.0166 74.1937 18.4421C73.5256 18.1081 73.2718 17.2931 73.6325 16.6518L73.6726 16.6117Z" fill="#0E2F56"/>
<path d="M85.8838 13.285C85.8838 9.87806 88.596 7.13916 92.0029 7.13916C95.3831 7.13916 98.122 9.87806 98.122 13.285C98.122 16.6652 95.3831 19.4308 91.9762 19.4308C88.596 19.4308 85.8838 16.6652 85.8838 13.285ZM92.0296 16.5048C93.7264 16.5048 95.1426 15.1154 95.1426 13.3919C95.1426 11.6684 93.7264 10.2789 92.0296 10.2789C90.3061 10.2789 88.9166 11.6684 88.9166 13.3919C88.9166 15.1287 90.3061 16.5048 92.0296 16.5048Z" fill="#0E2F56"/>
<path d="M101.636 12.2697C101.636 9.53083 103.921 7.16602 107.247 7.16602C110.601 7.16602 112.886 9.53083 112.886 12.2697V17.8678C112.886 18.7228 112.191 19.4042 111.349 19.4042C110.494 19.4042 109.813 18.7095 109.813 17.8678V12.724C109.813 10.8402 108.77 9.77131 107.261 9.77131C105.791 9.77131 104.736 10.8402 104.736 12.724V17.8678C104.736 18.7228 104.041 19.4042 103.199 19.4042C102.344 19.4042 101.663 18.7095 101.663 17.8678V12.2697H101.636Z" fill="#0E2F56"/>
<path d="M11.9948 14.0667C11.9638 14.0667 11.9225 14.0667 11.8915 14.0667C11.8605 14.0667 11.8192 14.0667 11.7882 14.0564C11.7572 14.0564 11.7159 14.046 11.6849 14.046C11.6539 14.046 11.6126 14.0357 11.5816 14.0254C11.5506 14.0151 11.5196 14.0151 11.4783 14.0047C11.4473 13.9944 11.4163 13.9841 11.3853 13.9738C11.3543 13.9634 11.3233 13.9531 11.2923 13.9428C11.2613 13.9325 11.2303 13.9221 11.1993 13.9015C11.1683 13.8911 11.1373 13.8705 11.1063 13.8602C11.0753 13.8498 11.0443 13.8292 11.0133 13.8189C10.9824 13.7982 10.9514 13.7879 10.9204 13.7672C10.8894 13.7466 10.8584 13.7363 10.8377 13.7156C10.8067 13.695 10.7861 13.6743 10.7551 13.6536C10.7241 13.633 10.7034 13.6123 10.6724 13.5917C10.6414 13.571 10.6208 13.5504 10.6001 13.5297C10.5794 13.5091 10.5484 13.4781 10.5278 13.4575C10.5071 13.4368 10.4761 13.4058 10.4555 13.3852C10.4348 13.3645 10.4141 13.3335 10.3935 13.3026C10.3728 13.2716 10.3521 13.2509 10.3315 13.22C10.3108 13.189 10.2901 13.1683 10.2695 13.1374C10.2488 13.1064 10.2282 13.0754 10.2178 13.0547C10.1972 13.0238 10.1868 12.9928 10.1662 12.9618C10.1455 12.9308 10.1352 12.8999 10.1248 12.8689C10.1145 12.8379 10.0938 12.8069 10.0835 12.7759C10.0732 12.745 10.0629 12.714 10.0422 12.683C10.0319 12.652 10.0215 12.6211 10.0112 12.5901C10.0009 12.5591 9.99053 12.5281 9.9802 12.4971C9.96987 12.4662 9.95954 12.4352 9.95954 12.3939C9.94921 12.3629 9.94921 12.3319 9.93888 12.2906C9.92855 12.2597 9.92854 12.2184 9.92854 12.1874C9.92854 12.1564 9.91821 12.1151 9.91821 12.0841C9.91821 12.0531 9.91821 12.0118 9.91821 11.9809C9.91821 11.9499 9.91821 11.9086 9.91821 11.8776C9.91821 11.8466 9.91821 11.8053 9.92854 11.7743C9.92854 11.7434 9.93888 11.7021 9.93888 11.6711C9.93888 11.6401 9.94921 11.6091 9.95954 11.5678C9.96987 11.5368 9.96987 11.5059 9.9802 11.4646C9.99053 11.4336 10.0009 11.4026 10.0112 11.3716C10.0215 11.3406 10.0319 11.3097 10.0422 11.2787C10.0525 11.2477 10.0629 11.2167 10.0835 11.1858C10.0938 11.1548 10.1145 11.1238 10.1248 11.0928C10.1352 11.0618 10.1558 11.0309 10.1662 10.9999C10.1868 10.9689 10.1972 10.9379 10.2178 10.907C10.2385 10.876 10.2488 10.845 10.2695 10.8244C10.2901 10.7934 10.3108 10.7727 10.3315 10.7417C10.3521 10.7108 10.3728 10.6901 10.3935 10.6591C10.4141 10.6282 10.4348 10.6075 10.4555 10.5765C10.4761 10.5559 10.4968 10.5249 10.5278 10.5042C10.5484 10.4836 10.5794 10.4526 10.6001 10.432C10.6208 10.4113 10.6517 10.3907 10.6724 10.37C10.7034 10.3494 10.7241 10.3287 10.7551 10.3081C10.7861 10.2874 10.8067 10.2667 10.8377 10.2461C10.8687 10.2254 10.8997 10.2048 10.9204 10.1945C10.9514 10.1738 10.9824 10.1635 11.0133 10.1428C11.0443 10.1222 11.0753 10.1119 11.1063 10.1015C11.1373 10.0912 11.1683 10.0706 11.1993 10.0602C11.2303 10.0499 11.2613 10.0396 11.2923 10.0189C11.3233 10.0086 11.3543 9.99827 11.3853 9.98795C11.4163 9.97762 11.4473 9.9673 11.4783 9.95697C11.5093 9.94665 11.5403 9.93632 11.5816 9.93632C11.6126 9.92599 11.6436 9.926 11.6849 9.91567C11.7159 9.91567 11.7572 9.90534 11.7882 9.90534C11.8192 9.90534 11.8605 9.89502 11.8915 9.89502C11.9638 9.89502 12.0258 9.89502 12.0982 9.89502C12.1291 9.89502 12.1705 9.89502 12.2015 9.90534C12.2325 9.90534 12.2738 9.91567 12.3048 9.91567C12.3358 9.91567 12.3771 9.92599 12.4081 9.93632C12.4391 9.94665 12.4701 9.94665 12.5114 9.95697C12.5424 9.9673 12.5734 9.97762 12.6044 9.98795C12.6354 9.99827 12.6664 10.0086 12.6974 10.0189C12.7284 10.0293 12.7594 10.0396 12.7904 10.0602C12.8214 10.0706 12.8524 10.0912 12.8833 10.1015C12.9143 10.1119 12.9453 10.1325 12.9763 10.1428C13.0073 10.1635 13.0383 10.1738 13.0693 10.1945C13.1003 10.2151 13.1313 10.2254 13.152 10.2461C13.183 10.2667 13.2036 10.2874 13.2346 10.3081C13.2656 10.3287 13.2863 10.3494 13.3173 10.37C13.3483 10.3907 13.3689 10.4113 13.3896 10.432C13.4102 10.4526 13.4412 10.4836 13.4619 10.5042C13.4826 10.5249 13.5136 10.5559 13.5342 10.5765C13.5549 10.5972 13.5756 10.6282 13.5962 10.6591C13.6169 10.6901 13.6375 10.7108 13.6582 10.7417C13.6789 10.7727 13.6995 10.7934 13.7202 10.8244C13.7409 10.8553 13.7615 10.8863 13.7718 10.907C13.7925 10.9379 13.8028 10.9689 13.8235 10.9999C13.8442 11.0309 13.8545 11.0618 13.8648 11.0928C13.8752 11.1238 13.8958 11.1548 13.9062 11.1858C13.9165 11.2167 13.9268 11.2477 13.9475 11.2787C13.9578 11.3097 13.9681 11.3406 13.9785 11.3716C13.9888 11.4026 13.9991 11.4336 14.0095 11.4646C14.0198 11.4955 14.0301 11.5265 14.0301 11.5678C14.0405 11.5988 14.0405 11.6298 14.0508 11.6711C14.0508 11.7021 14.0611 11.7434 14.0611 11.7743C14.0611 11.8053 14.0715 11.8466 14.0715 11.8776C14.0715 11.9086 14.0715 11.9499 14.0715 11.9809C14.0715 12.0118 14.0715 12.0531 14.0715 12.0841C14.0715 12.1151 14.0715 12.1564 14.0611 12.1874C14.0611 12.2184 14.0508 12.2597 14.0508 12.2906C14.0508 12.3216 14.0405 12.3526 14.0301 12.3939C14.0198 12.4249 14.0198 12.4558 14.0095 12.4971C13.9991 12.5281 13.9888 12.5591 13.9785 12.5901C13.9681 12.6211 13.9578 12.652 13.9475 12.683C13.9372 12.714 13.9268 12.745 13.9062 12.7759C13.8958 12.8069 13.8752 12.8379 13.8648 12.8689C13.8545 12.8999 13.8338 12.9308 13.8235 12.9618C13.8028 12.9928 13.7925 13.0238 13.7718 13.0547C13.7512 13.0857 13.7409 13.1167 13.7202 13.1374C13.6995 13.1683 13.6789 13.189 13.6582 13.22C13.6375 13.2509 13.6169 13.2716 13.5962 13.3026C13.5756 13.3335 13.5549 13.3542 13.5342 13.3852C13.5136 13.4058 13.4826 13.4368 13.4619 13.4575C13.4412 13.4781 13.4102 13.5091 13.3896 13.5297C13.3689 13.5504 13.3379 13.571 13.3173 13.5917C13.2863 13.6123 13.2656 13.633 13.2346 13.6536C13.2036 13.6743 13.183 13.695 13.152 13.7156C13.121 13.7363 13.09 13.7569 13.0693 13.7672C13.0383 13.7879 13.0073 13.7982 12.9763 13.8189C12.9453 13.8395 12.9143 13.8498 12.8833 13.8602C12.8524 13.8705 12.8214 13.8911 12.7904 13.9015C12.7594 13.9118 12.7284 13.9221 12.6974 13.9428C12.6664 13.9531 12.6354 13.9634 12.6044 13.9738C12.5734 13.9841 12.5424 13.9944 12.5114 14.0047C12.4804 14.0151 12.4494 14.0254 12.4081 14.0254C12.3771 14.0357 12.3358 14.0357 12.3048 14.046C12.2738 14.046 12.2325 14.0564 12.2015 14.0564C12.1705 14.0564 12.1291 14.0667 12.0982 14.0667C12.0672 14.0667 12.0258 14.0667 11.9948 14.0667Z" fill="#0E2F56"/>
<path d="M16.3133 13.6536C16.2823 13.6536 16.2616 13.6536 16.2306 13.6536C16.1996 13.6536 16.179 13.6536 16.148 13.6432C16.117 13.6432 16.0963 13.6329 16.0653 13.6329C16.0343 13.6329 16.0137 13.6226 15.9827 13.6226C15.9517 13.6122 15.931 13.6122 15.9 13.6019C15.869 13.5916 15.8484 13.5916 15.8174 13.5813C15.7967 13.5709 15.7657 13.5606 15.745 13.5606C15.7244 13.5503 15.6934 13.54 15.6727 13.5296C15.6521 13.5193 15.6211 13.509 15.6004 13.4987C15.5797 13.4883 15.5487 13.478 15.5281 13.4574C15.5074 13.447 15.4764 13.4264 15.4558 13.4161C15.4351 13.4057 15.4041 13.3851 15.3834 13.3748C15.3628 13.3644 15.3421 13.3438 15.3214 13.3231C15.3008 13.3025 15.2801 13.2922 15.2595 13.2715C15.2388 13.2508 15.2181 13.2405 15.1975 13.2199C15.1768 13.1992 15.1561 13.1786 15.1355 13.1682C15.1148 13.1476 15.0942 13.1269 15.0838 13.1063C15.0632 13.0856 15.0425 13.065 15.0322 13.0443C15.0115 13.0237 15.0012 13.003 14.9805 12.9824C14.9598 12.9617 14.9495 12.9411 14.9289 12.9204C14.9185 12.8998 14.8979 12.8791 14.8875 12.8481C14.8772 12.8275 14.8565 12.7965 14.8462 12.7758C14.8359 12.7552 14.8255 12.7242 14.8049 12.7036C14.7945 12.6829 14.7842 12.6519 14.7739 12.6313C14.7635 12.6106 14.7532 12.5797 14.7429 12.559C14.7326 12.5384 14.7222 12.5074 14.7222 12.4867C14.7119 12.4557 14.7119 12.4351 14.7016 12.4041C14.6912 12.3731 14.6912 12.3525 14.6809 12.3215C14.6706 12.2905 14.6706 12.2699 14.6706 12.2389C14.6706 12.2079 14.6602 12.1873 14.6602 12.1563C14.6602 12.1253 14.6602 12.1047 14.6499 12.0737C14.6499 12.0427 14.6499 12.0221 14.6499 11.9911C14.6499 11.9601 14.6499 11.9395 14.6499 11.9085C14.6499 11.8775 14.6499 11.8568 14.6602 11.8259C14.6602 11.7949 14.6706 11.7742 14.6706 11.7433C14.6706 11.7123 14.6809 11.6916 14.6809 11.6607C14.6912 11.6297 14.6912 11.609 14.7016 11.578C14.7119 11.5471 14.7119 11.5264 14.7222 11.4954C14.7326 11.4748 14.7429 11.4438 14.7429 11.4232C14.7429 11.4025 14.7635 11.3715 14.7739 11.3509C14.7842 11.3302 14.7945 11.2992 14.8049 11.2786C14.8152 11.2579 14.8255 11.227 14.8462 11.2063C14.8565 11.1857 14.8772 11.1547 14.8875 11.134C14.8979 11.1134 14.9185 11.0824 14.9289 11.0618C14.9392 11.0411 14.9598 11.0204 14.9805 10.9998C15.0012 10.9791 15.0115 10.9585 15.0322 10.9378C15.0528 10.9172 15.0632 10.8965 15.0838 10.8759C15.1045 10.8552 15.1252 10.8346 15.1355 10.8139C15.1561 10.7933 15.1768 10.7726 15.1975 10.7623C15.2181 10.7416 15.2388 10.721 15.2595 10.7107C15.2801 10.69 15.3008 10.6797 15.3214 10.659C15.3421 10.6384 15.3628 10.6281 15.3834 10.6074C15.4041 10.5971 15.4248 10.5764 15.4558 10.5661C15.4764 10.5558 15.5074 10.5351 15.5281 10.5248C15.5487 10.5145 15.5797 10.5042 15.6004 10.4835C15.6211 10.4732 15.6521 10.4628 15.6727 10.4525C15.6934 10.4422 15.7244 10.4319 15.745 10.4215C15.7657 10.4112 15.7967 10.4009 15.8174 10.4009C15.8484 10.3906 15.869 10.3906 15.9 10.3802C15.931 10.3699 15.9517 10.3699 15.9827 10.3596C16.0137 10.3493 16.0343 10.3493 16.0653 10.3493C16.0963 10.3493 16.117 10.3389 16.148 10.3389C16.179 10.3389 16.1996 10.3389 16.2306 10.3286C16.2823 10.3286 16.3443 10.3286 16.3959 10.3286C16.4269 10.3286 16.4476 10.3286 16.4786 10.3389C16.5096 10.3389 16.5302 10.3493 16.5612 10.3493C16.5922 10.3493 16.6129 10.3596 16.6439 10.3596C16.6749 10.3699 16.6955 10.3699 16.7265 10.3802C16.7575 10.3906 16.7782 10.3906 16.8092 10.4009C16.8298 10.4112 16.8608 10.4215 16.8815 10.4215C16.9022 10.4319 16.9332 10.4422 16.9538 10.4525C16.9745 10.4628 17.0055 10.4732 17.0261 10.4835C17.0468 10.4938 17.0778 10.5042 17.0985 10.5248C17.1191 10.5351 17.1501 10.5558 17.1708 10.5661C17.1914 10.5764 17.2121 10.5971 17.2431 10.6074C17.2638 10.6177 17.2844 10.6384 17.3051 10.659C17.3258 10.6797 17.3464 10.69 17.3671 10.7107C17.3877 10.7313 17.4084 10.7416 17.4291 10.7623C17.4497 10.7829 17.4704 10.8036 17.4911 10.8139C17.5117 10.8346 17.5324 10.8552 17.5427 10.8759C17.5634 10.8965 17.584 10.9172 17.5944 10.9378C17.615 10.9585 17.6254 10.9791 17.646 10.9998C17.6667 11.0204 17.677 11.0411 17.6977 11.0618C17.708 11.0824 17.7287 11.1031 17.739 11.134C17.7493 11.1547 17.77 11.1857 17.7803 11.2063C17.7907 11.227 17.801 11.2579 17.8217 11.2786C17.832 11.2992 17.8423 11.3302 17.8527 11.3509C17.863 11.3715 17.8733 11.4025 17.8837 11.4232C17.894 11.4438 17.9043 11.4748 17.9043 11.4954C17.9146 11.5264 17.9146 11.5471 17.925 11.578C17.9353 11.609 17.9353 11.6297 17.9456 11.6607C17.956 11.6916 17.956 11.7123 17.956 11.7433C17.956 11.7742 17.9663 11.7949 17.9663 11.8259C17.9663 11.8568 17.9663 11.8775 17.9766 11.9085C17.9766 11.9395 17.9766 11.9601 17.9766 11.9911C17.9766 12.0221 17.9766 12.0427 17.9766 12.0737C17.9766 12.1047 17.9766 12.1253 17.9663 12.1563C17.9663 12.1873 17.956 12.2079 17.956 12.2389C17.956 12.2699 17.9456 12.2905 17.9456 12.3215C17.9353 12.3525 17.9353 12.3731 17.925 12.4041C17.9146 12.4351 17.9146 12.4557 17.9043 12.4867C17.894 12.5074 17.8837 12.5384 17.8837 12.559C17.8733 12.5797 17.863 12.6106 17.8527 12.6313C17.8423 12.6519 17.832 12.6829 17.8217 12.7036C17.8113 12.7242 17.801 12.7552 17.7803 12.7758C17.77 12.7965 17.7493 12.8275 17.739 12.8481C17.7287 12.8688 17.708 12.8998 17.6977 12.9204C17.6874 12.9411 17.6667 12.9617 17.646 12.9824C17.6254 13.003 17.615 13.0237 17.5944 13.0443C17.5737 13.065 17.5634 13.0856 17.5427 13.1063C17.5221 13.1269 17.5014 13.1476 17.4911 13.1682C17.4704 13.1889 17.4497 13.2095 17.4291 13.2199C17.4084 13.2405 17.3877 13.2612 17.3671 13.2715C17.3464 13.2922 17.3258 13.3025 17.3051 13.3231C17.2844 13.3438 17.2638 13.3541 17.2431 13.3748C17.2224 13.3851 17.2018 13.4057 17.1708 13.4161C17.1501 13.4264 17.1191 13.447 17.0985 13.4574C17.0778 13.4677 17.0468 13.478 17.0261 13.4987C17.0055 13.509 16.9745 13.5193 16.9538 13.5296C16.9332 13.54 16.9022 13.5503 16.8815 13.5606C16.8608 13.5709 16.8298 13.5813 16.8092 13.5813C16.7782 13.5916 16.7575 13.5916 16.7265 13.6019C16.6955 13.6122 16.6749 13.6122 16.6439 13.6226C16.6129 13.6329 16.5922 13.6329 16.5612 13.6329C16.5302 13.6329 16.5096 13.6432 16.4786 13.6432C16.4476 13.6432 16.4269 13.6432 16.3959 13.6536C16.3649 13.6536 16.3339 13.6536 16.3133 13.6536Z" fill="#0E2F56"/>
<path d="M7.68656 13.6535C7.65556 13.6535 7.6349 13.6535 7.60391 13.6535C7.57291 13.6535 7.55225 13.6535 7.52125 13.6432C7.49026 13.6432 7.4696 13.6328 7.4386 13.6328C7.40761 13.6328 7.38695 13.6225 7.35595 13.6225C7.32496 13.6122 7.30429 13.6122 7.2733 13.6019C7.24231 13.5915 7.22164 13.5915 7.19065 13.5812C7.16999 13.5709 7.13899 13.5606 7.11833 13.5606C7.09767 13.5502 7.06667 13.5399 7.04601 13.5296C7.02535 13.5193 6.99435 13.5089 6.97369 13.4986C6.95303 13.4883 6.92203 13.4779 6.90137 13.4573C6.8807 13.447 6.84971 13.4263 6.82905 13.416C6.80839 13.4057 6.77739 13.385 6.75673 13.3747C6.73606 13.3644 6.7154 13.3437 6.69474 13.3334C6.67407 13.3127 6.65341 13.3024 6.63275 13.2818C6.61209 13.2611 6.59142 13.2508 6.57076 13.2301C6.5501 13.2095 6.52943 13.1888 6.50877 13.1785C6.48811 13.1578 6.46745 13.1372 6.45711 13.1165C6.44678 13.0959 6.42612 13.0752 6.40546 13.0546C6.38479 13.0339 6.37446 13.0133 6.3538 12.9926C6.33314 12.972 6.32281 12.9513 6.30214 12.9307C6.29181 12.91 6.27115 12.8894 6.26082 12.8584C6.25049 12.8377 6.22982 12.8068 6.21949 12.7861C6.20916 12.7655 6.19883 12.7345 6.17816 12.7138C6.16783 12.6932 6.1575 12.6622 6.14717 12.6415C6.13684 12.6209 6.12651 12.5899 6.11618 12.5693C6.10585 12.5486 6.09551 12.5176 6.09551 12.497C6.08518 12.466 6.08518 12.4454 6.07485 12.4144C6.06452 12.3834 6.06452 12.3627 6.05419 12.3318C6.05419 12.3008 6.04386 12.2801 6.04386 12.2492C6.04386 12.2182 6.03352 12.1975 6.03352 12.1666C6.03352 12.1356 6.03352 12.1149 6.02319 12.0839C6.02319 12.053 6.02319 12.0323 6.02319 12.0013C6.02319 11.9704 6.02319 11.9497 6.02319 11.9187C6.02319 11.8878 6.02319 11.8671 6.03352 11.8361C6.03352 11.8051 6.04386 11.7845 6.04386 11.7535C6.04386 11.7225 6.05419 11.7019 6.05419 11.6709C6.06452 11.6399 6.06452 11.6193 6.07485 11.5883C6.08518 11.5573 6.08518 11.5367 6.09551 11.5057C6.10584 11.485 6.11618 11.4541 6.11618 11.4334C6.12651 11.4128 6.13684 11.3818 6.14717 11.3611C6.1575 11.3405 6.16783 11.3095 6.17816 11.2889C6.1885 11.2682 6.19883 11.2372 6.21949 11.2166C6.22982 11.1959 6.25049 11.1649 6.26082 11.1443C6.27115 11.1236 6.29181 11.0927 6.30214 11.072C6.31247 11.0514 6.33314 11.0307 6.3538 11.0101C6.37446 10.9894 6.38479 10.9688 6.40546 10.9481C6.42612 10.9274 6.43645 10.9068 6.45711 10.8861C6.47778 10.8655 6.49844 10.8448 6.50877 10.8242C6.52943 10.8035 6.5501 10.7829 6.57076 10.7726C6.59142 10.7519 6.61209 10.7313 6.63275 10.7209C6.65341 10.7003 6.67407 10.6899 6.69474 10.6693C6.7154 10.6486 6.73606 10.6383 6.75673 10.6177C6.77739 10.6073 6.79805 10.5867 6.82905 10.5764C6.84971 10.566 6.8807 10.5454 6.90137 10.5351C6.92203 10.5247 6.95303 10.5144 6.97369 10.4938C6.99435 10.4834 7.02535 10.4731 7.04601 10.4628C7.06667 10.4525 7.09767 10.4421 7.11833 10.4318C7.13899 10.4215 7.16999 10.4111 7.19065 10.4111C7.22164 10.4008 7.24231 10.4008 7.2733 10.3905C7.30429 10.3802 7.32496 10.3802 7.35595 10.3698C7.38695 10.3595 7.40761 10.3595 7.4386 10.3595C7.4696 10.3595 7.49026 10.3492 7.52125 10.3492C7.55225 10.3492 7.57291 10.3492 7.60391 10.3389C7.65557 10.3389 7.71756 10.3389 7.76921 10.3389C7.80021 10.3389 7.82087 10.3389 7.85186 10.3492C7.88286 10.3492 7.90352 10.3595 7.93451 10.3595C7.96551 10.3595 7.98617 10.3698 8.01717 10.3698C8.04816 10.3802 8.06882 10.3802 8.09982 10.3905C8.13081 10.4008 8.15148 10.4008 8.18247 10.4111C8.21347 10.4215 8.23413 10.4318 8.25479 10.4318C8.27545 10.4421 8.30645 10.4525 8.32711 10.4628C8.34777 10.4731 8.37877 10.4834 8.39943 10.4938C8.42009 10.5041 8.45109 10.5144 8.47175 10.5351C8.49241 10.5454 8.52341 10.566 8.54407 10.5764C8.56474 10.5867 8.5854 10.6073 8.61639 10.6177C8.63705 10.628 8.65772 10.6486 8.67838 10.6693C8.69904 10.6899 8.71971 10.7003 8.74037 10.7209C8.76103 10.7416 8.7817 10.7519 8.80236 10.7726C8.82302 10.7932 8.84368 10.8139 8.86435 10.8242C8.88501 10.8448 8.90567 10.8655 8.916 10.8861C8.93667 10.9068 8.947 10.9274 8.96766 10.9481C8.98832 10.9688 8.99865 10.9894 9.01932 11.0101C9.03998 11.0307 9.05031 11.0514 9.07097 11.072C9.08131 11.0927 9.10197 11.1133 9.1123 11.1443C9.12263 11.1649 9.1433 11.1959 9.15363 11.2166C9.16396 11.2372 9.17429 11.2682 9.19495 11.2889C9.20529 11.3095 9.21562 11.3405 9.22595 11.3611C9.23628 11.3818 9.24661 11.4128 9.25694 11.4334C9.26727 11.4541 9.2776 11.485 9.28794 11.5057C9.29827 11.5367 9.29827 11.5573 9.3086 11.5883C9.31893 11.6193 9.31893 11.6399 9.32926 11.6709C9.33959 11.7019 9.33959 11.7225 9.33959 11.7535C9.33959 11.7845 9.34993 11.8051 9.34993 11.8361C9.34993 11.8671 9.34993 11.8878 9.36026 11.9187C9.36026 11.9497 9.36026 11.9704 9.36026 12.0013C9.36026 12.0323 9.36026 12.053 9.36026 12.0839C9.36026 12.1149 9.36026 12.1356 9.34993 12.1666C9.34993 12.1975 9.33959 12.2182 9.33959 12.2492C9.33959 12.2801 9.32926 12.3008 9.32926 12.3318C9.31893 12.3627 9.31893 12.3834 9.3086 12.4144C9.29827 12.4454 9.29827 12.466 9.28794 12.497C9.2776 12.5176 9.26727 12.5486 9.25694 12.5693C9.24661 12.5899 9.23628 12.6209 9.22595 12.6415C9.21562 12.6622 9.20529 12.6932 9.19495 12.7138C9.18462 12.7345 9.17429 12.7655 9.15363 12.7861C9.13297 12.8068 9.12263 12.8377 9.1123 12.8584C9.10197 12.879 9.08131 12.8997 9.07097 12.9307C9.06064 12.9513 9.03998 12.972 9.01932 12.9926C8.99865 13.0133 8.98832 13.0339 8.96766 13.0546C8.947 13.0752 8.93667 13.0959 8.916 13.1165C8.89534 13.1372 8.87468 13.1578 8.86435 13.1785C8.84368 13.1991 8.82302 13.2198 8.80236 13.2301C8.7817 13.2508 8.76103 13.2714 8.74037 13.2818C8.71971 13.3024 8.69904 13.3127 8.67838 13.3334C8.65772 13.354 8.63705 13.3644 8.61639 13.3747C8.59573 13.385 8.57507 13.4057 8.54407 13.416C8.52341 13.4263 8.49241 13.447 8.47175 13.4573C8.45109 13.4676 8.42009 13.4779 8.39943 13.4986C8.37877 13.5089 8.34777 13.5193 8.32711 13.5296C8.30645 13.5399 8.27545 13.5502 8.25479 13.5606C8.23413 13.5709 8.20313 13.5812 8.18247 13.5812C8.16181 13.5915 8.13081 13.5915 8.09982 13.6019C8.06882 13.6122 8.04816 13.6122 8.01717 13.6225C7.98617 13.6328 7.96551 13.6328 7.93451 13.6328C7.90352 13.6328 7.88286 13.6432 7.85186 13.6432C7.82087 13.6432 7.80021 13.6432 7.76921 13.6535C7.73822 13.6535 7.70722 13.6535 7.68656 13.6535Z" fill="#0E2F56"/>
<path d="M11.9947 9.34748C11.9637 9.34748 11.9431 9.34748 11.9121 9.34748C11.8811 9.34748 11.8604 9.34748 11.8294 9.33715C11.7984 9.33715 11.7778 9.32683 11.7468 9.32683C11.7158 9.32683 11.6951 9.3165 11.6641 9.3165C11.6331 9.30617 11.6125 9.30618 11.5815 9.29585C11.5505 9.28553 11.5298 9.28552 11.4988 9.2752C11.4678 9.26487 11.4472 9.25455 11.4265 9.25455C11.4059 9.24422 11.3749 9.2339 11.3542 9.22357C11.3335 9.21324 11.3025 9.20292 11.2819 9.19259C11.2612 9.18227 11.2302 9.17194 11.2096 9.15129C11.1889 9.14096 11.1579 9.12031 11.1372 9.10998C11.1166 9.09965 11.0959 9.07901 11.0649 9.06868C11.0442 9.05835 11.0236 9.0377 11.0029 9.01705C10.9823 8.9964 10.9616 8.98607 10.9409 8.96542C10.9203 8.94477 10.8996 8.93444 10.8789 8.91379C10.8583 8.89314 10.8376 8.87249 10.817 8.86216C10.7963 8.84151 10.7756 8.82085 10.7653 8.8002C10.7446 8.77955 10.7343 8.7589 10.7136 8.73825C10.693 8.7176 10.6826 8.69695 10.662 8.6763C10.6413 8.65565 10.631 8.63499 10.6103 8.61434C10.6 8.59369 10.5793 8.57303 10.569 8.54206C10.5587 8.5214 10.538 8.49043 10.5277 8.46978C10.5173 8.44913 10.507 8.41815 10.4863 8.3975C10.476 8.37684 10.4657 8.34587 10.4554 8.32521C10.445 8.30456 10.4347 8.27358 10.4244 8.25293C10.414 8.23228 10.4037 8.2013 10.3934 8.18065C10.383 8.14967 10.383 8.12902 10.3727 8.09804C10.3624 8.06706 10.3624 8.04641 10.352 8.01544C10.3417 7.98446 10.3417 7.96381 10.3417 7.93283C10.3417 7.90185 10.3314 7.8812 10.3314 7.85022C10.3314 7.81925 10.3314 7.79859 10.321 7.76761C10.321 7.73663 10.321 7.71598 10.321 7.68501C10.321 7.65403 10.321 7.63338 10.321 7.6024C10.321 7.57142 10.321 7.55077 10.3314 7.51979C10.3314 7.48882 10.3417 7.46817 10.3417 7.43719C10.3417 7.40621 10.352 7.38555 10.352 7.35458C10.3624 7.3236 10.3624 7.30295 10.3727 7.27197C10.383 7.24099 10.383 7.22034 10.3934 7.18936C10.4037 7.15839 10.414 7.13773 10.4244 7.11708C10.4347 7.09643 10.445 7.06545 10.4554 7.0448C10.4657 7.02415 10.476 6.99317 10.4863 6.97252C10.4967 6.95187 10.507 6.92089 10.5277 6.90024C10.538 6.87959 10.5587 6.84861 10.569 6.82796C10.5793 6.8073 10.6 6.78665 10.6103 6.75567C10.6207 6.73502 10.6413 6.71437 10.662 6.69372C10.6826 6.67307 10.693 6.65241 10.7136 6.63176C10.7343 6.61111 10.7446 6.59046 10.7653 6.56981C10.786 6.54916 10.8066 6.52851 10.817 6.50786C10.8376 6.4872 10.8583 6.46655 10.8789 6.45623C10.8996 6.43557 10.9203 6.42525 10.9409 6.4046C10.9616 6.38394 10.9823 6.37362 11.0029 6.35297C11.0236 6.33232 11.0442 6.32199 11.0649 6.30134C11.0856 6.29101 11.1062 6.27036 11.1372 6.26003C11.1579 6.24971 11.1889 6.22905 11.2096 6.21873C11.2302 6.2084 11.2612 6.19808 11.2819 6.17743C11.3025 6.1671 11.3335 6.15677 11.3542 6.14645C11.3749 6.13612 11.4059 6.12579 11.4265 6.11547C11.4472 6.10514 11.4782 6.09482 11.4988 6.08449C11.5195 6.07416 11.5505 6.07416 11.5815 6.06384C11.6125 6.05351 11.6331 6.05352 11.6641 6.04319C11.6951 6.03286 11.7158 6.03286 11.7468 6.03286C11.7778 6.03286 11.7984 6.02254 11.8294 6.02254C11.8604 6.02254 11.8811 6.02253 11.9121 6.01221C11.9637 6.01221 12.0257 6.01221 12.0774 6.01221C12.1084 6.01221 12.1291 6.01221 12.16 6.02254C12.191 6.02254 12.2117 6.03286 12.2427 6.03286C12.2737 6.03286 12.2944 6.04319 12.3253 6.04319C12.3563 6.05352 12.377 6.05351 12.408 6.06384C12.439 6.07416 12.4597 6.07416 12.4907 6.08449C12.5113 6.09482 12.5423 6.10514 12.563 6.11547C12.5836 6.12579 12.6146 6.13612 12.6353 6.14645C12.656 6.15677 12.687 6.1671 12.7076 6.17743C12.7283 6.18775 12.7593 6.19807 12.7799 6.21873C12.8006 6.22905 12.8316 6.24971 12.8523 6.26003C12.8729 6.27036 12.9039 6.29101 12.9246 6.30134C12.9452 6.31166 12.9659 6.33232 12.9866 6.35297C13.0072 6.37362 13.0279 6.38394 13.0486 6.4046C13.0692 6.42525 13.0899 6.43557 13.1105 6.45623C13.1312 6.47688 13.1519 6.49753 13.1725 6.50786C13.1932 6.52851 13.2139 6.54916 13.2242 6.56981C13.2449 6.59046 13.2655 6.61111 13.2758 6.63176C13.2965 6.65241 13.3068 6.67307 13.3275 6.69372C13.3482 6.71437 13.3585 6.73502 13.3792 6.75567C13.3895 6.77633 13.4102 6.79698 13.4205 6.82796C13.4308 6.84861 13.4515 6.87959 13.4618 6.90024C13.4721 6.92089 13.4825 6.95187 13.5031 6.97252C13.5135 6.99317 13.5238 7.02415 13.5341 7.0448C13.5445 7.06545 13.5548 7.09643 13.5651 7.11708C13.5755 7.13773 13.5858 7.16871 13.5858 7.18936C13.5961 7.21002 13.5961 7.24099 13.6065 7.27197C13.6168 7.30295 13.6168 7.3236 13.6271 7.35458C13.6374 7.38555 13.6374 7.40621 13.6374 7.43719C13.6374 7.46817 13.6478 7.48882 13.6478 7.51979C13.6478 7.55077 13.6478 7.57142 13.6581 7.6024C13.6581 7.63338 13.6581 7.65403 13.6581 7.68501C13.6581 7.71598 13.6581 7.73663 13.6581 7.76761C13.6581 7.79859 13.6581 7.81925 13.6478 7.85022C13.6478 7.8812 13.6374 7.90185 13.6374 7.93283C13.6374 7.96381 13.6271 7.98446 13.6271 8.01544C13.6271 8.04641 13.6168 8.06706 13.6065 8.09804C13.5961 8.12902 13.5961 8.14967 13.5858 8.18065C13.5755 8.2013 13.5651 8.23228 13.5651 8.25293C13.5548 8.27358 13.5445 8.30456 13.5341 8.32521C13.5238 8.34587 13.5135 8.37684 13.5031 8.3975C13.4928 8.41815 13.4825 8.44913 13.4618 8.46978C13.4515 8.49043 13.4308 8.5214 13.4205 8.54206C13.4102 8.56271 13.3895 8.59369 13.3792 8.61434C13.3688 8.63499 13.3482 8.65565 13.3275 8.6763C13.3068 8.69695 13.2965 8.7176 13.2758 8.73825C13.2552 8.7589 13.2449 8.77955 13.2242 8.8002C13.2035 8.82085 13.1829 8.84151 13.1725 8.86216C13.1519 8.88281 13.1312 8.90347 13.1105 8.91379C13.0899 8.93444 13.0692 8.9551 13.0486 8.96542C13.0279 8.98607 13.0072 8.9964 12.9866 9.01705C12.9659 9.0377 12.9452 9.04803 12.9246 9.06868C12.9039 9.07901 12.8832 9.09965 12.8523 9.10998C12.8316 9.12031 12.8006 9.14096 12.7799 9.15129C12.7593 9.16161 12.7283 9.17194 12.7076 9.19259C12.687 9.20292 12.656 9.21324 12.6353 9.22357C12.6146 9.2339 12.5836 9.24422 12.563 9.25455C12.5423 9.26487 12.5113 9.2752 12.4907 9.2752C12.4597 9.28552 12.439 9.28553 12.408 9.29585C12.377 9.30618 12.3563 9.30617 12.3253 9.3165C12.2944 9.3165 12.2737 9.32683 12.2427 9.32683C12.2117 9.32683 12.191 9.33715 12.16 9.33715C12.1291 9.33715 12.1084 9.33716 12.0774 9.34748C12.0464 9.34748 12.0257 9.34748 11.9947 9.34748Z" fill="#0E2F56"/>
<path d="M11.9947 17.9696C11.9637 17.9696 11.9431 17.9696 11.9121 17.9696C11.8811 17.9696 11.8604 17.9695 11.8294 17.9592C11.7984 17.9592 11.7778 17.9489 11.7468 17.9489C11.7158 17.9489 11.6951 17.9386 11.6641 17.9386C11.6331 17.9282 11.6125 17.9282 11.5815 17.9179C11.5505 17.9076 11.5298 17.9076 11.4988 17.8973C11.4678 17.8869 11.4472 17.8766 11.4265 17.8663C11.4059 17.856 11.3749 17.8456 11.3542 17.8353C11.3335 17.825 11.3025 17.8147 11.2819 17.8043C11.2612 17.794 11.2302 17.7837 11.2096 17.763C11.1889 17.7527 11.1579 17.7321 11.1372 17.7217C11.1166 17.7114 11.0959 17.6907 11.0649 17.6804C11.0442 17.6701 11.0236 17.6494 11.0029 17.6288C10.9823 17.6081 10.9616 17.5978 10.9409 17.5772C10.9203 17.5565 10.8996 17.5462 10.8789 17.5255C10.8583 17.5049 10.8376 17.4842 10.817 17.4739C10.7963 17.4533 10.7756 17.4326 10.7653 17.4119C10.7446 17.3913 10.7343 17.3706 10.7136 17.35C10.693 17.3293 10.6826 17.3087 10.662 17.288C10.6413 17.2674 10.631 17.2467 10.6103 17.2261C10.6 17.2054 10.5793 17.1848 10.569 17.1538C10.5587 17.1332 10.538 17.1022 10.5277 17.0815C10.5173 17.0609 10.507 17.0299 10.4863 17.0092C10.476 16.9886 10.4657 16.9576 10.4554 16.937C10.445 16.9163 10.4347 16.8853 10.4244 16.8647C10.414 16.844 10.4037 16.813 10.3934 16.7924C10.383 16.7717 10.383 16.7408 10.3727 16.7098C10.3624 16.6788 10.3624 16.6582 10.352 16.6272C10.3417 16.5962 10.3417 16.5755 10.3417 16.5446C10.3417 16.5136 10.3314 16.4929 10.3314 16.462C10.3314 16.431 10.3314 16.4103 10.321 16.3794C10.321 16.3484 10.321 16.3277 10.321 16.2968C10.321 16.2658 10.321 16.2451 10.321 16.2141C10.321 16.1832 10.321 16.1625 10.3314 16.1315C10.3314 16.1006 10.3417 16.0799 10.3417 16.0489C10.3417 16.018 10.352 15.9973 10.352 15.9663C10.3624 15.9353 10.3624 15.9147 10.3727 15.8837C10.383 15.8527 10.383 15.8321 10.3934 15.8011C10.4037 15.7805 10.414 15.7495 10.4244 15.7288C10.4347 15.7082 10.445 15.6772 10.4554 15.6565C10.4657 15.6359 10.476 15.6049 10.4863 15.5843C10.4967 15.5636 10.507 15.5326 10.5277 15.512C10.538 15.4913 10.5587 15.4604 10.569 15.4397C10.5793 15.4191 10.6 15.3881 10.6103 15.3674C10.6207 15.3468 10.6413 15.3261 10.662 15.3055C10.6826 15.2848 10.693 15.2642 10.7136 15.2435C10.7343 15.2229 10.7446 15.2022 10.7653 15.1816C10.786 15.1609 10.8066 15.1402 10.817 15.1196C10.8376 15.0989 10.8583 15.0783 10.8789 15.068C10.8996 15.0473 10.9203 15.0267 10.9409 15.0163C10.9616 14.9957 10.9823 14.9854 11.0029 14.9647C11.0236 14.9441 11.0442 14.9337 11.0649 14.9131C11.0856 14.9028 11.1062 14.8821 11.1372 14.8718C11.1579 14.8615 11.1889 14.8408 11.2096 14.8305C11.2302 14.8201 11.2612 14.8098 11.2819 14.7892C11.3025 14.7788 11.3335 14.7685 11.3542 14.7582C11.3749 14.7479 11.4059 14.7375 11.4265 14.7272C11.4472 14.7169 11.4782 14.7066 11.4988 14.7066C11.5195 14.6962 11.5505 14.6962 11.5815 14.6859C11.6125 14.6756 11.6331 14.6756 11.6641 14.6653C11.6951 14.6653 11.7158 14.6549 11.7468 14.6549C11.7778 14.6549 11.7984 14.6446 11.8294 14.6446C11.8604 14.6446 11.8811 14.6446 11.9121 14.6343C11.9637 14.6343 12.0257 14.6343 12.0774 14.6343C12.1084 14.6343 12.1291 14.6343 12.16 14.6446C12.191 14.6446 12.2117 14.6549 12.2427 14.6549C12.2737 14.6549 12.2944 14.6653 12.3253 14.6653C12.3563 14.6756 12.377 14.6756 12.408 14.6859C12.439 14.6962 12.4597 14.6962 12.4907 14.7066C12.5113 14.7169 12.5423 14.7272 12.563 14.7272C12.5836 14.7375 12.6146 14.7479 12.6353 14.7582C12.656 14.7685 12.687 14.7788 12.7076 14.7892C12.7283 14.7995 12.7593 14.8098 12.7799 14.8305C12.8006 14.8408 12.8316 14.8615 12.8523 14.8718C12.8729 14.8821 12.9039 14.9028 12.9246 14.9131C12.9452 14.9234 12.9659 14.9441 12.9866 14.9647C13.0072 14.9854 13.0279 14.9957 13.0486 15.0163C13.0692 15.037 13.0899 15.0473 13.1105 15.068C13.1312 15.0886 13.1519 15.1093 13.1725 15.1196C13.1932 15.1402 13.2139 15.1609 13.2242 15.1816C13.2449 15.2022 13.2655 15.2229 13.2758 15.2435C13.2965 15.2642 13.3068 15.2848 13.3275 15.3055C13.3482 15.3261 13.3585 15.3468 13.3792 15.3674C13.3895 15.3881 13.4102 15.4087 13.4205 15.4397C13.4308 15.4604 13.4515 15.4913 13.4618 15.512C13.4721 15.5326 13.4825 15.5636 13.5031 15.5843C13.5238 15.6049 13.5238 15.6359 13.5341 15.6565C13.5445 15.6772 13.5548 15.7082 13.5651 15.7288C13.5755 15.7495 13.5858 15.7805 13.5858 15.8011C13.5961 15.8321 13.5961 15.8527 13.6065 15.8837C13.6168 15.9147 13.6168 15.9353 13.6271 15.9663C13.6374 15.9973 13.6374 16.018 13.6374 16.0489C13.6374 16.0799 13.6478 16.1006 13.6478 16.1315C13.6478 16.1625 13.6478 16.1832 13.6581 16.2141C13.6581 16.2451 13.6581 16.2658 13.6581 16.2968C13.6581 16.3277 13.6581 16.3484 13.6581 16.3794C13.6581 16.4103 13.6581 16.431 13.6478 16.462C13.6478 16.4929 13.6374 16.5136 13.6374 16.5446C13.6374 16.5755 13.6271 16.5962 13.6271 16.6272C13.6271 16.6582 13.6168 16.6788 13.6065 16.7098C13.5961 16.7408 13.5961 16.7614 13.5858 16.7924C13.5755 16.8234 13.5651 16.844 13.5651 16.8647C13.5548 16.8853 13.5445 16.9163 13.5341 16.937C13.5238 16.9576 13.5135 16.9886 13.5031 17.0092C13.4928 17.0299 13.4825 17.0609 13.4618 17.0815C13.4411 17.1022 13.4308 17.1332 13.4205 17.1538C13.4102 17.1745 13.3895 17.1951 13.3792 17.2261C13.3688 17.2467 13.3482 17.2674 13.3275 17.288C13.3068 17.3087 13.2965 17.3293 13.2758 17.35C13.2552 17.3706 13.2449 17.3913 13.2242 17.4119C13.2035 17.4326 13.1829 17.4533 13.1725 17.4739C13.1519 17.4946 13.1312 17.5152 13.1105 17.5255C13.0899 17.5462 13.0692 17.5565 13.0486 17.5772C13.0279 17.5978 13.0072 17.6081 12.9866 17.6288C12.9659 17.6494 12.9452 17.6598 12.9246 17.6804C12.9039 17.6907 12.8832 17.7114 12.8523 17.7217C12.8316 17.7321 12.8006 17.7527 12.7799 17.763C12.7593 17.7734 12.7283 17.7837 12.7076 17.8043C12.687 17.8147 12.656 17.825 12.6353 17.8353C12.6146 17.8456 12.5836 17.856 12.563 17.8663C12.5423 17.8766 12.5113 17.8869 12.4907 17.8973C12.4597 17.9076 12.439 17.9076 12.408 17.9179C12.377 17.9282 12.3563 17.9282 12.3253 17.9386C12.2944 17.9489 12.2737 17.9489 12.2427 17.9489C12.2117 17.9489 12.191 17.9592 12.16 17.9592C12.1291 17.9592 12.1084 17.9592 12.0774 17.9696C12.0464 17.9696 12.0257 17.9696 11.9947 17.9696Z" fill="#0E2F56"/>
<path d="M15.8898 9.34751C15.8485 9.34751 15.8072 9.34751 15.7659 9.33718C15.7245 9.33718 15.6832 9.32686 15.6419 9.31653C15.6006 9.3062 15.5592 9.29588 15.5282 9.28555C15.4869 9.27523 15.4456 9.26491 15.4146 9.24425C15.3733 9.23393 15.3423 9.21328 15.3009 9.19262C15.2699 9.17197 15.2286 9.15132 15.1976 9.13066C15.1666 9.11001 15.1253 9.07903 15.0943 9.05838C15.0633 9.03773 15.0323 9.00675 15.0013 8.97578C14.9703 8.9448 14.9497 8.91382 14.9187 8.88285C14.898 8.85187 14.867 8.82089 14.8464 8.77959C14.8257 8.74861 14.805 8.70731 14.7844 8.67633C14.7637 8.64535 14.743 8.60404 14.7327 8.56274C14.7224 8.52144 14.7017 8.49046 14.6914 8.44916C14.6811 8.40785 14.6707 8.36655 14.6604 8.33557C14.6501 8.29426 14.6501 8.25297 14.6397 8.21166C14.6397 8.17036 14.6294 8.12905 14.6294 8.08775C14.6294 8.04645 14.6294 8.00514 14.6397 7.96384C14.6397 7.92253 14.6501 7.88123 14.6604 7.83993C14.6707 7.79862 14.6811 7.75732 14.6914 7.72634C14.7017 7.68504 14.712 7.65406 14.7327 7.61275C14.7534 7.57145 14.7637 7.54048 14.7844 7.49917C14.805 7.46819 14.8257 7.42689 14.8464 7.39591C14.867 7.36493 14.898 7.33396 14.9187 7.29265C14.9497 7.26168 14.9703 7.2307 15.0013 7.19972C15.0323 7.16874 15.0633 7.14809 15.0943 7.11711C15.1253 7.09646 15.1563 7.06548 15.1976 7.04483C15.2286 7.02418 15.2699 7.00353 15.3009 6.98288C15.3319 6.96222 15.3733 6.94157 15.4146 6.93125C15.4559 6.92092 15.4869 6.90027 15.5282 6.88994C15.5696 6.87961 15.6109 6.86929 15.6419 6.85896C15.6832 6.84864 15.7245 6.84864 15.7659 6.83831C15.8485 6.82798 15.9312 6.82798 16.0138 6.83831C16.0551 6.83831 16.0965 6.84864 16.1378 6.85896C16.1791 6.86929 16.2204 6.87961 16.2514 6.88994C16.2928 6.90027 16.3341 6.92092 16.3651 6.93125C16.4064 6.9519 16.4374 6.96222 16.4787 6.98288C16.5097 7.00353 16.551 7.02418 16.582 7.04483C16.613 7.06548 16.6544 7.09646 16.6854 7.11711C16.7164 7.14809 16.7473 7.16874 16.7783 7.19972C16.8093 7.2307 16.83 7.26168 16.861 7.29265C16.8817 7.32363 16.9126 7.35461 16.9333 7.39591C16.954 7.42689 16.9746 7.46819 16.9953 7.49917C17.016 7.53015 17.0366 7.57145 17.047 7.61275C17.0573 7.65406 17.078 7.68504 17.0883 7.72634C17.0986 7.76765 17.1089 7.80895 17.1193 7.83993C17.1296 7.88123 17.1296 7.92253 17.1399 7.96384C17.1399 8.00514 17.1503 8.04645 17.1503 8.08775C17.1503 8.12905 17.1503 8.17036 17.1399 8.21166C17.1399 8.25297 17.1296 8.29426 17.1193 8.33557C17.1089 8.37687 17.0986 8.41818 17.0883 8.44916C17.078 8.49046 17.0676 8.52144 17.047 8.56274C17.0263 8.60404 17.016 8.63502 16.9953 8.67633C16.9746 8.70731 16.954 8.74861 16.9333 8.77959C16.9126 8.81057 16.8817 8.84154 16.861 8.88285C16.83 8.91382 16.8093 8.9448 16.7783 8.97578C16.7473 9.00675 16.7164 9.0274 16.6854 9.05838C16.6544 9.08936 16.6234 9.11001 16.582 9.13066C16.551 9.15132 16.5097 9.17197 16.4787 9.19262C16.4477 9.21328 16.4064 9.23393 16.3651 9.24425C16.3238 9.26491 16.2928 9.27523 16.2514 9.28555C16.2101 9.29588 16.1688 9.3062 16.1378 9.31653C16.0965 9.32686 16.0551 9.32686 16.0138 9.33718C15.9725 9.34751 15.9312 9.34751 15.8898 9.34751Z" fill="#0E2F56"/>
<path d="M15.8898 17.1332C15.8485 17.1332 15.8072 17.1332 15.7659 17.1228C15.7245 17.1228 15.6832 17.1125 15.6419 17.1022C15.6006 17.0918 15.5592 17.0815 15.5282 17.0712C15.4869 17.0609 15.4456 17.0402 15.4146 17.0299C15.3733 17.0092 15.3423 16.9989 15.3009 16.9783C15.2699 16.9576 15.2286 16.937 15.1976 16.9163C15.1666 16.8957 15.1253 16.8647 15.0943 16.844C15.0633 16.813 15.0323 16.7924 15.0013 16.7614C14.9703 16.7304 14.9497 16.6995 14.9187 16.6685C14.898 16.6375 14.867 16.6065 14.8464 16.5652C14.8257 16.5342 14.805 16.4929 14.7844 16.462C14.7637 16.431 14.743 16.3897 14.7327 16.3484C14.7224 16.3071 14.7017 16.2761 14.6914 16.2348C14.6811 16.1935 14.6707 16.1522 14.6604 16.1212C14.6501 16.0799 14.6501 16.0386 14.6397 15.9973C14.6397 15.956 14.6294 15.9147 14.6294 15.8734C14.6294 15.8321 14.6294 15.7908 14.6397 15.7495C14.6397 15.7082 14.6501 15.6669 14.6604 15.6256C14.6707 15.5843 14.6811 15.543 14.6914 15.512C14.7017 15.4707 14.712 15.4397 14.7327 15.3984C14.7534 15.3571 14.7637 15.3261 14.7844 15.2848C14.805 15.2538 14.8257 15.2125 14.8464 15.1816C14.867 15.1506 14.898 15.1196 14.9187 15.0783C14.9497 15.0473 14.9703 15.0163 15.0013 14.9854C15.0323 14.9544 15.0633 14.9337 15.0943 14.9028C15.1253 14.8821 15.1563 14.8511 15.1976 14.8305C15.2286 14.8098 15.2699 14.7892 15.3009 14.7685C15.3319 14.7479 15.3733 14.7272 15.4146 14.7169C15.4559 14.6962 15.4869 14.6859 15.5282 14.6756C15.5696 14.6653 15.6109 14.6549 15.6419 14.6446C15.6832 14.6343 15.7245 14.6343 15.7659 14.624C15.8485 14.6136 15.9312 14.6136 16.0138 14.624C16.0551 14.624 16.0965 14.6343 16.1378 14.6446C16.1791 14.6549 16.2204 14.6653 16.2514 14.6756C16.2928 14.6859 16.3341 14.6962 16.3651 14.7169C16.4064 14.7272 16.4374 14.7479 16.4787 14.7685C16.5097 14.7892 16.551 14.8098 16.582 14.8305C16.613 14.8511 16.6544 14.8821 16.6854 14.9028C16.7164 14.9234 16.7473 14.9544 16.7783 14.9854C16.8093 15.0163 16.83 15.0473 16.861 15.0783C16.8817 15.1093 16.9126 15.1403 16.9333 15.1816C16.954 15.2125 16.9746 15.2538 16.9953 15.2848C17.016 15.3158 17.0366 15.3571 17.047 15.3984C17.0573 15.4397 17.078 15.4707 17.0883 15.512C17.0986 15.5533 17.1089 15.5946 17.1193 15.6256C17.1296 15.6669 17.1296 15.7082 17.1399 15.7495C17.1399 15.7908 17.1503 15.8321 17.1503 15.8734C17.1503 15.9147 17.1503 15.956 17.1399 15.9973C17.1399 16.0386 17.1296 16.0799 17.1193 16.1212C17.1089 16.1625 17.0986 16.2038 17.0883 16.2348C17.078 16.2761 17.0676 16.3071 17.047 16.3484C17.0263 16.3897 17.016 16.4207 16.9953 16.462C16.9746 16.4929 16.954 16.5342 16.9333 16.5652C16.9126 16.5962 16.8817 16.6272 16.861 16.6685C16.83 16.6995 16.8093 16.7304 16.7783 16.7614C16.7473 16.7924 16.7164 16.813 16.6854 16.844C16.6544 16.8647 16.6234 16.8957 16.582 16.9163C16.551 16.937 16.5097 16.9576 16.4787 16.9783C16.4477 16.9989 16.4064 17.0196 16.3651 17.0299C16.3238 17.0402 16.2928 17.0609 16.2514 17.0712C16.2101 17.0815 16.1688 17.0918 16.1378 17.1022C16.0965 17.1125 16.0551 17.1125 16.0138 17.1228C15.9725 17.1332 15.9312 17.1332 15.8898 17.1332Z" fill="#0E2F56"/>
<path d="M8.09979 9.34751C8.05847 9.34751 8.01714 9.34751 7.97582 9.33718C7.93449 9.33718 7.89316 9.32686 7.85184 9.31653C7.81051 9.3062 7.76919 9.29588 7.73819 9.28555C7.69687 9.27523 7.66587 9.26491 7.62454 9.24425C7.58322 9.23393 7.55223 9.21328 7.5109 9.19262C7.47991 9.17197 7.43858 9.15132 7.40759 9.13066C7.37659 9.11001 7.3456 9.07903 7.30427 9.05838C7.27328 9.03773 7.24228 9.00675 7.21129 8.97578C7.18029 8.9448 7.15963 8.91382 7.12864 8.88285C7.10797 8.85187 7.07698 8.82089 7.05631 8.77959C7.03565 8.74861 7.01499 8.70731 6.99433 8.67633C6.97366 8.64535 6.953 8.60404 6.94267 8.56274C6.92201 8.52144 6.91167 8.49046 6.90134 8.44916C6.89101 8.40785 6.88068 8.36655 6.87035 8.33557C6.86002 8.29426 6.86002 8.25297 6.84968 8.21166C6.84968 8.17036 6.83936 8.12905 6.83936 8.08775C6.83936 8.04645 6.83935 8.00514 6.84968 7.96384C6.84968 7.92253 6.86002 7.88123 6.87035 7.83993C6.88068 7.79862 6.89101 7.75732 6.90134 7.72634C6.91167 7.68504 6.92201 7.65406 6.94267 7.61275C6.953 7.57145 6.97366 7.54048 6.99433 7.49917C7.01499 7.46819 7.03565 7.42689 7.05631 7.39591C7.07698 7.36493 7.10797 7.33396 7.12864 7.29265C7.1493 7.26168 7.18029 7.2307 7.21129 7.19972C7.24228 7.16874 7.27328 7.14809 7.30427 7.11711C7.33527 7.09646 7.36626 7.06548 7.40759 7.04483C7.43858 7.02418 7.47991 7.00353 7.5109 6.98288C7.5419 6.96222 7.58322 6.94157 7.62454 6.93125C7.66587 6.92092 7.69687 6.90027 7.73819 6.88994C7.77952 6.87961 7.82084 6.86929 7.85184 6.85896C7.89316 6.84864 7.93449 6.84864 7.97582 6.83831C8.05847 6.82798 8.14112 6.82798 8.22377 6.83831C8.2651 6.83831 8.30642 6.84864 8.34775 6.85896C8.38907 6.86929 8.4304 6.87961 8.46139 6.88994C8.50272 6.90027 8.53372 6.92092 8.57504 6.93125C8.61637 6.9519 8.64736 6.96222 8.68869 6.98288C8.71968 7.00353 8.76101 7.02418 8.792 7.04483C8.823 7.06548 8.85399 7.09646 8.89532 7.11711C8.92631 7.14809 8.95731 7.16874 8.9883 7.19972C9.01929 7.2307 9.03996 7.26168 9.07095 7.29265C9.09161 7.32363 9.12261 7.35461 9.14327 7.39591C9.16393 7.42689 9.1846 7.46819 9.20526 7.49917C9.22592 7.53015 9.24659 7.57145 9.25692 7.61275C9.27758 7.65406 9.28791 7.68504 9.29824 7.72634C9.30858 7.76765 9.31891 7.80895 9.32924 7.83993C9.33957 7.88123 9.33957 7.92253 9.3499 7.96384C9.3499 8.00514 9.36023 8.04645 9.36023 8.08775C9.36023 8.12905 9.36023 8.17036 9.3499 8.21166C9.3499 8.25297 9.33957 8.29426 9.32924 8.33557C9.31891 8.37687 9.30858 8.41818 9.29824 8.44916C9.28791 8.49046 9.27758 8.52144 9.25692 8.56274C9.23626 8.60404 9.22592 8.63502 9.20526 8.67633C9.1846 8.70731 9.16393 8.74861 9.14327 8.77959C9.12261 8.81057 9.09161 8.84154 9.07095 8.88285C9.03996 8.91382 9.01929 8.9448 8.9883 8.97578C8.95731 9.00675 8.92631 9.0274 8.89532 9.05838C8.86432 9.08936 8.83333 9.11001 8.792 9.13066C8.76101 9.15132 8.71968 9.17197 8.68869 9.19262C8.65769 9.21328 8.61637 9.23393 8.57504 9.24425C8.53372 9.26491 8.50272 9.27523 8.46139 9.28555C8.42007 9.29588 8.37874 9.3062 8.34775 9.31653C8.30642 9.32686 8.2651 9.32686 8.22377 9.33718C8.18245 9.34751 8.14112 9.34751 8.09979 9.34751Z" fill="#0E2F56"/>
<path d="M8.09979 17.1332C8.05847 17.1332 8.01714 17.1332 7.97582 17.1228C7.93449 17.1228 7.89316 17.1125 7.85184 17.1022C7.81051 17.0918 7.76919 17.0815 7.73819 17.0712C7.69687 17.0609 7.66587 17.0402 7.62454 17.0299C7.58322 17.0092 7.55223 16.9989 7.5109 16.9783C7.47991 16.9576 7.43858 16.937 7.40759 16.9163C7.37659 16.8957 7.3456 16.8647 7.30427 16.844C7.27328 16.813 7.24228 16.7924 7.21129 16.7614C7.18029 16.7304 7.15963 16.6995 7.12864 16.6685C7.10797 16.6375 7.07698 16.6065 7.05631 16.5652C7.03565 16.5342 7.01499 16.4929 6.99433 16.462C6.97366 16.431 6.953 16.3897 6.94267 16.3484C6.92201 16.3071 6.91167 16.2761 6.90134 16.2348C6.89101 16.1935 6.88068 16.1522 6.87035 16.1212C6.86002 16.0799 6.86002 16.0386 6.84968 15.9973C6.84968 15.956 6.83936 15.9147 6.83936 15.8734C6.83936 15.8321 6.83935 15.7908 6.84968 15.7495C6.84968 15.7082 6.86002 15.6669 6.87035 15.6256C6.88068 15.5843 6.89101 15.543 6.90134 15.512C6.91167 15.4707 6.92201 15.4397 6.94267 15.3984C6.953 15.3571 6.97366 15.3261 6.99433 15.2848C7.01499 15.2538 7.03565 15.2125 7.05631 15.1816C7.07698 15.1506 7.10797 15.1196 7.12864 15.0783C7.1493 15.0473 7.18029 15.0163 7.21129 14.9854C7.24228 14.9544 7.27328 14.9337 7.30427 14.9028C7.33527 14.8821 7.36626 14.8511 7.40759 14.8305C7.43858 14.8098 7.47991 14.7892 7.5109 14.7685C7.5419 14.7479 7.58322 14.7272 7.62454 14.7169C7.66587 14.6962 7.69687 14.6859 7.73819 14.6756C7.77952 14.6653 7.82084 14.6549 7.85184 14.6446C7.89316 14.6343 7.93449 14.6343 7.97582 14.624C8.05847 14.6136 8.14112 14.6136 8.22377 14.624C8.2651 14.624 8.30642 14.6343 8.34775 14.6446C8.38907 14.6549 8.4304 14.6653 8.46139 14.6756C8.50272 14.6859 8.53372 14.6962 8.57504 14.7169C8.61637 14.7272 8.64736 14.7479 8.68869 14.7685C8.71968 14.7892 8.76101 14.8098 8.792 14.8305C8.823 14.8511 8.85399 14.8821 8.89532 14.9028C8.92631 14.9234 8.95731 14.9544 8.9883 14.9854C9.01929 15.0163 9.03996 15.0473 9.07095 15.0783C9.09161 15.1093 9.12261 15.1403 9.14327 15.1816C9.16393 15.2125 9.1846 15.2538 9.20526 15.2848C9.22592 15.3158 9.24659 15.3571 9.25692 15.3984C9.27758 15.4397 9.28791 15.4707 9.29824 15.512C9.30858 15.5533 9.31891 15.5946 9.32924 15.6256C9.33957 15.6669 9.33957 15.7082 9.3499 15.7495C9.3499 15.7908 9.36023 15.8321 9.36023 15.8734C9.36023 15.9147 9.36023 15.956 9.3499 15.9973C9.3499 16.0386 9.33957 16.0799 9.32924 16.1212C9.31891 16.1625 9.30858 16.2038 9.29824 16.2348C9.28791 16.2761 9.27758 16.3071 9.25692 16.3484C9.23626 16.3897 9.22592 16.4207 9.20526 16.462C9.1846 16.4929 9.16393 16.5342 9.14327 16.5652C9.12261 16.5962 9.09161 16.6272 9.07095 16.6685C9.03996 16.6995 9.01929 16.7304 8.9883 16.7614C8.95731 16.7924 8.92631 16.813 8.89532 16.844C8.86432 16.8647 8.83333 16.8957 8.792 16.9163C8.76101 16.937 8.71968 16.9576 8.68869 16.9783C8.65769 16.9989 8.61637 17.0196 8.57504 17.0299C8.53372 17.0402 8.50272 17.0609 8.46139 17.0712C8.42007 17.0815 8.37874 17.0918 8.34775 17.1022C8.30642 17.1125 8.2651 17.1125 8.22377 17.1228C8.18245 17.1332 8.14112 17.1332 8.09979 17.1332Z" fill="#0E2F56"/>
<path d="M19.8985 8.93479C19.8675 8.93479 19.8469 8.93479 19.8159 8.93479C19.7849 8.93479 19.7642 8.92446 19.7332 8.92446C19.6816 8.91414 19.6299 8.89348 19.5783 8.87283C19.5266 8.85218 19.4749 8.83153 19.4336 8.80055C19.413 8.79022 19.3923 8.76957 19.3716 8.74892C19.351 8.72827 19.3303 8.71794 19.3096 8.69729C19.289 8.67664 19.2683 8.65599 19.258 8.63534C19.2373 8.61469 19.227 8.59404 19.2063 8.57339C19.1753 8.53208 19.1547 8.48045 19.134 8.42882C19.1133 8.37719 19.0927 8.32556 19.0824 8.27393C19.072 8.24295 19.072 8.2223 19.072 8.19133C19.072 8.16035 19.072 8.1397 19.072 8.10872C19.072 8.07774 19.072 8.05708 19.072 8.02611C19.072 7.99513 19.0824 7.97448 19.0824 7.9435C19.0927 7.89187 19.1133 7.84024 19.134 7.78861C19.1547 7.73698 19.1753 7.68536 19.2063 7.64405C19.2167 7.6234 19.2373 7.60275 19.258 7.58209C19.2786 7.56144 19.289 7.54079 19.3096 7.52014C19.3303 7.49949 19.351 7.47884 19.3716 7.46851C19.3923 7.44786 19.413 7.43753 19.4336 7.41688C19.4749 7.3859 19.5266 7.36525 19.5783 7.3446C19.6299 7.32395 19.6816 7.3033 19.7332 7.29297C19.7642 7.28264 19.7849 7.28265 19.8159 7.28265C19.8675 7.27232 19.9295 7.27232 19.9812 7.28265C20.0122 7.28265 20.0328 7.29297 20.0638 7.29297C20.1155 7.3033 20.1672 7.32395 20.2188 7.3446C20.2705 7.36525 20.3221 7.39623 20.3635 7.41688C20.3841 7.42721 20.4048 7.44786 20.4254 7.46851C20.4461 7.48916 20.4668 7.49949 20.4874 7.52014C20.6424 7.67503 20.7354 7.89188 20.7354 8.10872C20.7354 8.1397 20.7354 8.16035 20.7354 8.19133C20.7354 8.2223 20.7251 8.24295 20.7251 8.27393C20.7147 8.32556 20.6941 8.37719 20.6734 8.42882C20.6527 8.48045 20.6217 8.53208 20.6011 8.57339C20.5907 8.59404 20.5701 8.61469 20.5494 8.63534C20.5288 8.65599 20.5184 8.67664 20.4978 8.69729C20.4771 8.71794 20.4564 8.7386 20.4358 8.74892C20.4151 8.76957 20.3945 8.7799 20.3738 8.80055C20.3325 8.83153 20.2808 8.85218 20.2291 8.87283C20.1775 8.89348 20.1258 8.91414 20.0742 8.92446C20.0432 8.93479 20.0225 8.93479 19.9915 8.93479C19.9502 8.93479 19.9295 8.93479 19.8985 8.93479Z" fill="#0E2F56"/>
<path d="M19.8985 16.7204C19.8675 16.7204 19.8469 16.7204 19.8159 16.7204C19.7849 16.7204 19.7642 16.7101 19.7332 16.7101C19.6816 16.6998 19.6299 16.6791 19.5783 16.6585C19.5266 16.6378 19.4749 16.6069 19.4336 16.5862C19.413 16.5759 19.3923 16.5552 19.3716 16.5346C19.351 16.5139 19.3303 16.5036 19.3096 16.4829C19.289 16.4623 19.2683 16.4416 19.258 16.421C19.2373 16.4003 19.227 16.3797 19.2063 16.359C19.1753 16.3177 19.1547 16.2661 19.134 16.2145C19.1133 16.1628 19.0927 16.1112 19.0824 16.0596C19.072 16.0286 19.072 16.0079 19.072 15.977C19.072 15.946 19.072 15.9253 19.072 15.8944C19.072 15.8634 19.072 15.8427 19.072 15.8118C19.072 15.7808 19.0824 15.7601 19.0824 15.7292C19.0927 15.6775 19.1133 15.6259 19.134 15.5743C19.1547 15.5226 19.1753 15.471 19.2063 15.4297C19.2167 15.409 19.2373 15.3884 19.258 15.3677C19.2786 15.3471 19.289 15.3264 19.3096 15.3058C19.3303 15.2851 19.351 15.2645 19.3716 15.2542C19.3923 15.2335 19.413 15.2232 19.4336 15.2025C19.4749 15.1715 19.5266 15.1509 19.5783 15.1303C19.6299 15.1096 19.6816 15.0889 19.7332 15.0786C19.7642 15.0683 19.7849 15.0683 19.8159 15.0683C19.8675 15.058 19.9295 15.058 19.9812 15.0683C20.0122 15.0683 20.0328 15.0786 20.0638 15.0786C20.1155 15.0889 20.1672 15.1096 20.2188 15.1303C20.2705 15.1509 20.3221 15.1715 20.3635 15.2025C20.3841 15.2129 20.4048 15.2335 20.4254 15.2542C20.4461 15.2748 20.4668 15.2851 20.4874 15.3058C20.5081 15.3264 20.5288 15.3471 20.5391 15.3677C20.5598 15.3884 20.5701 15.409 20.5907 15.4297C20.6217 15.471 20.6424 15.5226 20.6631 15.5743C20.6837 15.6259 20.7044 15.6775 20.7147 15.7292C20.7251 15.7601 20.7251 15.7808 20.7251 15.8118C20.7251 15.8427 20.7251 15.8634 20.7251 15.8944C20.7251 15.9253 20.7251 15.946 20.7251 15.977C20.7251 16.0079 20.7147 16.0286 20.7147 16.0596C20.7044 16.1112 20.6837 16.1628 20.6631 16.2145C20.6424 16.2661 20.6114 16.3177 20.5907 16.359C20.5804 16.3797 20.5598 16.4003 20.5391 16.421C20.5184 16.4416 20.5081 16.4623 20.4874 16.4829C20.4668 16.5036 20.4461 16.5242 20.4254 16.5346C20.4048 16.5552 20.3841 16.5655 20.3635 16.5862C20.3221 16.6172 20.2705 16.6378 20.2188 16.6585C20.1672 16.6791 20.1155 16.6998 20.0638 16.7101C20.0328 16.7204 20.0122 16.7204 19.9812 16.7204C19.9502 16.7204 19.9295 16.7204 19.8985 16.7204Z" fill="#0E2F56"/>
<path d="M4.09141 8.93479C4.06042 8.93479 4.03975 8.93479 4.00876 8.93479C3.97776 8.93479 3.9571 8.92446 3.92611 8.92446C3.87445 8.91414 3.82279 8.89348 3.77113 8.87283C3.71948 8.85218 3.66782 8.83153 3.62649 8.80055C3.60583 8.79022 3.58517 8.76957 3.5645 8.74892C3.54384 8.72827 3.52318 8.71794 3.50252 8.69729C3.48185 8.67664 3.46119 8.65599 3.45086 8.63534C3.43019 8.61469 3.41986 8.59404 3.3992 8.57339C3.36821 8.53208 3.34754 8.48045 3.32688 8.42882C3.30622 8.37719 3.28555 8.32556 3.27522 8.27393C3.26489 8.24295 3.26489 8.2223 3.26489 8.19133C3.26489 8.16035 3.26489 8.1397 3.26489 8.10872C3.26489 8.07774 3.26489 8.05708 3.26489 8.02611C3.26489 7.99513 3.27522 7.97448 3.27522 7.9435C3.28555 7.89187 3.30622 7.84024 3.32688 7.78861C3.34754 7.73698 3.36821 7.68536 3.3992 7.64405C3.40953 7.6234 3.43019 7.60275 3.45086 7.58209C3.47152 7.56144 3.48185 7.54079 3.50252 7.52014C3.52318 7.49949 3.54384 7.47884 3.5645 7.46851C3.58517 7.44786 3.60583 7.43753 3.62649 7.41688C3.66782 7.3859 3.71948 7.36525 3.77113 7.3446C3.82279 7.32395 3.87445 7.3033 3.92611 7.29297C3.9571 7.28264 3.97776 7.28265 4.00876 7.28265C4.06042 7.27232 4.1224 7.27232 4.17406 7.28265C4.20505 7.28265 4.22572 7.29297 4.25671 7.29297C4.30837 7.3033 4.36003 7.32395 4.41168 7.3446C4.46334 7.36525 4.515 7.39623 4.55633 7.41688C4.57699 7.42721 4.59765 7.44786 4.61831 7.46851C4.63898 7.48916 4.65964 7.49949 4.6803 7.52014C4.70097 7.54079 4.72163 7.56144 4.73196 7.58209C4.75262 7.60275 4.76296 7.6234 4.78362 7.64405C4.81461 7.68536 4.83528 7.73698 4.85594 7.78861C4.8766 7.84024 4.89726 7.89187 4.9076 7.9435C4.91793 7.97448 4.91793 7.99513 4.91793 8.02611C4.91793 8.05708 4.91793 8.07774 4.91793 8.10872C4.91793 8.1397 4.91793 8.16035 4.91793 8.19133C4.91793 8.2223 4.9076 8.24295 4.9076 8.27393C4.89726 8.32556 4.8766 8.37719 4.85594 8.42882C4.83528 8.48045 4.80428 8.52176 4.78362 8.57339C4.77329 8.59404 4.75262 8.61469 4.73196 8.63534C4.7113 8.65599 4.70097 8.67664 4.6803 8.69729C4.65964 8.71794 4.63898 8.7386 4.61831 8.74892C4.59765 8.76957 4.57699 8.7799 4.55633 8.80055C4.515 8.83153 4.46334 8.85218 4.41168 8.87283C4.36003 8.89348 4.30837 8.91414 4.25671 8.92446C4.22572 8.93479 4.20505 8.93479 4.17406 8.93479C4.14307 8.93479 4.1224 8.93479 4.09141 8.93479Z" fill="#0E2F56"/>
<path d="M4.09141 16.7202C4.06042 16.7202 4.03975 16.7202 4.00876 16.7202C3.97776 16.7202 3.9571 16.7099 3.92611 16.7099C3.87445 16.6995 3.82279 16.6789 3.77113 16.6582C3.71948 16.6376 3.66782 16.6066 3.62649 16.586C3.60583 16.5756 3.58517 16.555 3.5645 16.5343C3.54384 16.5137 3.52318 16.5034 3.50252 16.4827C3.48185 16.462 3.46119 16.4414 3.45086 16.4207C3.43019 16.4001 3.41986 16.3794 3.3992 16.3588C3.36821 16.3175 3.34754 16.2659 3.32688 16.2142C3.30622 16.1626 3.28555 16.111 3.27522 16.0593C3.26489 16.0284 3.26489 16.0077 3.26489 15.9767C3.26489 15.9458 3.26489 15.9251 3.26489 15.8941C3.26489 15.8631 3.26489 15.8425 3.26489 15.8115C3.26489 15.7805 3.27522 15.7599 3.27522 15.7289C3.28555 15.6773 3.30622 15.6257 3.32688 15.574C3.34754 15.5224 3.36821 15.4708 3.3992 15.4295C3.40953 15.4088 3.43019 15.3882 3.45086 15.3675C3.47152 15.3469 3.48185 15.3262 3.50252 15.3055C3.52318 15.2849 3.54384 15.2642 3.5645 15.2539C3.58517 15.2333 3.60583 15.2229 3.62649 15.2023C3.66782 15.1713 3.71948 15.1507 3.77113 15.13C3.82279 15.1094 3.87445 15.0887 3.92611 15.0784C3.9571 15.0681 3.97776 15.068 4.00876 15.068C4.25671 15.0474 4.50467 15.13 4.6803 15.3055C4.70097 15.3262 4.72163 15.3469 4.73196 15.3675C4.75262 15.3882 4.76296 15.4088 4.78362 15.4295C4.81461 15.4708 4.83528 15.5224 4.85594 15.574C4.8766 15.6257 4.89726 15.6773 4.9076 15.7289C4.91793 15.7599 4.91793 15.7805 4.91793 15.8115C4.91793 15.8425 4.91793 15.8631 4.91793 15.8941C4.91793 15.9251 4.91793 15.9458 4.91793 15.9767C4.91793 16.0077 4.9076 16.0284 4.9076 16.0593C4.89726 16.111 4.8766 16.1626 4.85594 16.2142C4.83528 16.2659 4.80428 16.3175 4.78362 16.3588C4.77329 16.3794 4.75262 16.4001 4.73196 16.4207C4.7113 16.4414 4.70097 16.462 4.6803 16.4827C4.65964 16.5034 4.63898 16.524 4.61831 16.5343C4.59765 16.555 4.57699 16.5653 4.55633 16.586C4.515 16.6169 4.46334 16.6376 4.41168 16.6582C4.36003 16.6789 4.30837 16.6995 4.25671 16.7099C4.22572 16.7202 4.20505 16.7202 4.17406 16.7202C4.14307 16.7202 4.1224 16.7202 4.09141 16.7202Z" fill="#0E2F56"/>
<path d="M16.1585 4.77317C16.1276 4.77317 16.1069 4.77317 16.0759 4.77317C16.0449 4.77317 16.0242 4.76285 15.9932 4.76285C15.9416 4.75252 15.8899 4.73187 15.8383 4.71122C15.7866 4.69057 15.735 4.65959 15.6936 4.63894C15.673 4.62861 15.6523 4.60796 15.6316 4.58731C15.611 4.56665 15.5903 4.55633 15.5697 4.53568C15.549 4.51502 15.5283 4.49438 15.518 4.47372C15.4973 4.45307 15.487 4.43242 15.4663 4.41176C15.4353 4.37046 15.4147 4.31884 15.394 4.26721C15.3734 4.21558 15.3527 4.16395 15.3424 4.11232C15.332 4.08134 15.332 4.06069 15.332 4.02971C15.332 3.99873 15.332 3.97808 15.332 3.9471C15.332 3.91612 15.332 3.89547 15.332 3.86449C15.332 3.83351 15.3424 3.81286 15.3424 3.78189C15.3527 3.73026 15.3734 3.67863 15.394 3.627C15.4147 3.57537 15.4353 3.52374 15.4663 3.48243C15.4767 3.46178 15.4973 3.44113 15.518 3.42048C15.5387 3.39983 15.549 3.37918 15.5697 3.35853C15.5903 3.33787 15.611 3.31722 15.6316 3.3069C15.6523 3.28625 15.673 3.27592 15.6936 3.25527C15.735 3.22429 15.7866 3.20364 15.8383 3.18298C15.8899 3.16233 15.9416 3.14168 15.9932 3.13136C16.0242 3.12103 16.0449 3.12103 16.0759 3.12103C16.1276 3.1107 16.1895 3.1107 16.2412 3.12103C16.2722 3.12103 16.2929 3.13136 16.3239 3.13136C16.3755 3.14168 16.4272 3.16233 16.4788 3.18298C16.5305 3.20364 16.5821 3.22429 16.6235 3.25527C16.6441 3.26559 16.6648 3.28625 16.6855 3.3069C16.7061 3.32755 16.7268 3.33787 16.7474 3.35853C16.7681 3.37918 16.7888 3.39983 16.7991 3.42048C16.8198 3.44113 16.8301 3.46178 16.8508 3.48243C16.8818 3.52374 16.9024 3.57537 16.9231 3.627C16.9437 3.67863 16.9644 3.73026 16.9747 3.78189C16.9851 3.81286 16.9851 3.83351 16.9851 3.86449C16.9851 3.89547 16.9851 3.91612 16.9851 3.9471C16.9851 3.97808 16.9851 3.99873 16.9851 4.02971C16.9851 4.06069 16.9747 4.08134 16.9747 4.11232C16.9644 4.16395 16.9437 4.21558 16.9231 4.26721C16.9024 4.31884 16.8818 4.37046 16.8508 4.41176C16.8404 4.43242 16.8198 4.45307 16.7991 4.47372C16.7784 4.49438 16.7681 4.51502 16.7474 4.53568C16.7268 4.55633 16.7061 4.57698 16.6855 4.58731C16.6648 4.60796 16.6441 4.61828 16.6235 4.63894C16.5821 4.66991 16.5305 4.69057 16.4788 4.71122C16.4272 4.73187 16.3755 4.75252 16.3239 4.76285C16.2929 4.77317 16.2722 4.77317 16.2412 4.77317C16.2102 4.77317 16.1792 4.77317 16.1585 4.77317Z" fill="#0E2F56"/>
<path d="M7.83116 4.77293C7.80016 4.77293 7.7795 4.77293 7.74851 4.77293C7.71751 4.77293 7.69685 4.76261 7.66586 4.76261C7.6142 4.75228 7.56254 4.73163 7.51088 4.71098C7.45923 4.69032 7.40757 4.65935 7.36624 4.63869C7.34558 4.62837 7.32492 4.60772 7.30425 4.58706C7.28359 4.56641 7.26293 4.55609 7.24226 4.53543C7.2216 4.51478 7.20094 4.49413 7.19061 4.47348C7.16994 4.45283 7.15961 4.43217 7.13895 4.41152C7.10796 4.37022 7.08729 4.31859 7.06663 4.26696C7.04597 4.21533 7.0253 4.1637 7.01497 4.11207C7.00464 4.0811 7.00464 4.06045 7.00464 4.02947C7.00464 3.99849 7.00464 3.97783 7.00464 3.94686C7.00464 3.91588 7.00464 3.89523 7.00464 3.86425C7.00464 3.83327 7.01497 3.81262 7.01497 3.78164C7.0253 3.73002 7.04597 3.67839 7.06663 3.62676C7.08729 3.57513 7.10796 3.52349 7.13895 3.48219C7.14928 3.46154 7.16994 3.44089 7.19061 3.42024C7.21127 3.39959 7.2216 3.37894 7.24226 3.35828C7.26293 3.33763 7.28359 3.31698 7.30425 3.30666C7.32492 3.286 7.34558 3.27568 7.36624 3.25503C7.40757 3.22405 7.45923 3.20339 7.51088 3.18274C7.56254 3.16209 7.6142 3.14144 7.66586 3.13111C7.69685 3.12079 7.71751 3.12078 7.74851 3.12078C7.99646 3.10013 8.24442 3.18274 8.42005 3.35828C8.44071 3.37894 8.46138 3.39959 8.47171 3.42024C8.49237 3.44089 8.5027 3.46154 8.52337 3.48219C8.55436 3.52349 8.57502 3.57513 8.59569 3.62676C8.61635 3.67839 8.63701 3.73002 8.64734 3.78164C8.65768 3.81262 8.65767 3.83327 8.65767 3.86425C8.65767 3.89523 8.65767 3.91588 8.65767 3.94686C8.65767 3.97783 8.65767 3.99849 8.65767 4.02947C8.65767 4.06045 8.64734 4.0811 8.64734 4.11207C8.63701 4.1637 8.61635 4.21533 8.59569 4.26696C8.57502 4.31859 8.54403 4.37022 8.52337 4.41152C8.51303 4.43217 8.49237 4.45283 8.47171 4.47348C8.45105 4.49413 8.44071 4.51478 8.42005 4.53543C8.39939 4.55609 8.37872 4.57674 8.35806 4.58706C8.3374 4.60772 8.31674 4.61804 8.29607 4.63869C8.25475 4.66967 8.20309 4.69032 8.15143 4.71098C8.09977 4.73163 8.04812 4.75228 7.99646 4.76261C7.96547 4.77293 7.9448 4.77293 7.91381 4.77293C7.89315 4.77293 7.86215 4.77293 7.83116 4.77293Z" fill="#0E2F56"/>
<path d="M16.1585 20.8816C16.1276 20.8816 16.1069 20.8816 16.0759 20.8816C16.0449 20.8816 16.0242 20.8712 15.9932 20.8712C15.9416 20.8609 15.8899 20.8403 15.8383 20.8196C15.7866 20.799 15.735 20.7783 15.6936 20.7473C15.673 20.737 15.6523 20.7164 15.6316 20.6957C15.611 20.6751 15.5903 20.6647 15.5697 20.6441C15.549 20.6234 15.5283 20.6028 15.518 20.5821C15.4973 20.5615 15.487 20.5408 15.4663 20.5202C15.4353 20.4789 15.4147 20.4272 15.394 20.3756C15.3734 20.324 15.3527 20.2723 15.3424 20.2207C15.332 20.1897 15.332 20.1691 15.332 20.1381C15.332 20.1071 15.332 20.0865 15.332 20.0555C15.332 20.0245 15.332 20.0039 15.332 19.9729C15.332 19.9419 15.3424 19.9213 15.3424 19.8903C15.3527 19.8387 15.3734 19.787 15.394 19.7354C15.4147 19.6838 15.4353 19.6321 15.4663 19.5908C15.4767 19.5702 15.4973 19.5495 15.518 19.5289C15.5387 19.5082 15.549 19.4876 15.5697 19.4669C15.5903 19.4463 15.611 19.4256 15.6316 19.4153C15.6523 19.3946 15.673 19.3843 15.6936 19.3637C15.735 19.3327 15.7866 19.312 15.8383 19.2914C15.8899 19.2707 15.9416 19.2501 15.9932 19.2398C16.0242 19.2294 16.0449 19.2294 16.0759 19.2294C16.1276 19.2191 16.1895 19.2191 16.2412 19.2294C16.2722 19.2294 16.2929 19.2398 16.3239 19.2398C16.3755 19.2501 16.4272 19.2707 16.4788 19.2914C16.5305 19.312 16.5821 19.343 16.6235 19.3637C16.6441 19.374 16.6648 19.3946 16.6855 19.4153C16.7061 19.4359 16.7268 19.4463 16.7474 19.4669C16.7681 19.4876 16.7888 19.5082 16.7991 19.5289C16.8198 19.5495 16.8301 19.5702 16.8508 19.5908C16.8818 19.6321 16.9024 19.6838 16.9231 19.7354C16.9437 19.787 16.9644 19.8387 16.9747 19.8903C16.9851 19.9213 16.9851 19.9419 16.9851 19.9729C16.9851 20.0039 16.9851 20.0245 16.9851 20.0555C16.9851 20.0865 16.9851 20.1071 16.9851 20.1381C16.9851 20.1691 16.9747 20.1897 16.9747 20.2207C16.9644 20.2723 16.9437 20.324 16.9231 20.3756C16.9024 20.4272 16.8818 20.4685 16.8508 20.5202C16.8404 20.5408 16.8198 20.5615 16.7991 20.5821C16.7784 20.6028 16.7681 20.6234 16.7474 20.6441C16.7268 20.6647 16.7061 20.6854 16.6855 20.6957C16.6648 20.7164 16.6441 20.7267 16.6235 20.7473C16.5821 20.7783 16.5305 20.799 16.4788 20.8196C16.4272 20.8403 16.3755 20.8609 16.3239 20.8712C16.2929 20.8816 16.2722 20.8816 16.2412 20.8816C16.2102 20.8712 16.1792 20.8816 16.1585 20.8816Z" fill="#0E2F56"/>
<path d="M7.83116 20.8818C7.80016 20.8818 7.7795 20.8818 7.74851 20.8818C7.71751 20.8818 7.69685 20.8715 7.66586 20.8715C7.6142 20.8612 7.56254 20.8405 7.51088 20.8199C7.45923 20.7992 7.40757 20.7786 7.36624 20.7476C7.34558 20.7373 7.32492 20.7166 7.30425 20.696C7.28359 20.6753 7.26293 20.665 7.24226 20.6443C7.2216 20.6237 7.20094 20.603 7.19061 20.5824C7.16994 20.5617 7.15961 20.5411 7.13895 20.5204C7.10796 20.4791 7.08729 20.4275 7.06663 20.3759C7.04597 20.3242 7.0253 20.2726 7.01497 20.221C7.00464 20.19 7.00464 20.1693 7.00464 20.1384C7.00464 20.1074 7.00464 20.0867 7.00464 20.0557C7.00464 20.0248 7.00464 20.0041 7.00464 19.9731C7.00464 19.9422 7.01497 19.9215 7.01497 19.8905C7.0253 19.8389 7.04597 19.7873 7.06663 19.7356C7.08729 19.684 7.10796 19.6324 7.13895 19.5911C7.14928 19.5704 7.16994 19.5498 7.19061 19.5291C7.21127 19.5085 7.2216 19.4878 7.24226 19.4672C7.26293 19.4465 7.28359 19.4259 7.30425 19.4155C7.32492 19.3949 7.34558 19.3846 7.36624 19.3639C7.40757 19.3329 7.45923 19.3123 7.51088 19.2916C7.56254 19.271 7.6142 19.2503 7.66586 19.24C7.69685 19.2297 7.71751 19.2297 7.74851 19.2297C7.99646 19.209 8.24442 19.2916 8.42005 19.4672C8.44071 19.4878 8.46138 19.5085 8.47171 19.5291C8.49237 19.5498 8.5027 19.5704 8.52337 19.5911C8.55436 19.6324 8.57502 19.684 8.59569 19.7356C8.61635 19.7873 8.63701 19.8389 8.64734 19.8905C8.65768 19.9215 8.65767 19.9422 8.65767 19.9731C8.65767 20.0041 8.65767 20.0248 8.65767 20.0557C8.65767 20.0867 8.65767 20.1074 8.65767 20.1384C8.65767 20.1693 8.64734 20.19 8.64734 20.221C8.63701 20.2726 8.61635 20.3242 8.59569 20.3759C8.57502 20.4275 8.54403 20.4688 8.52337 20.5204C8.51303 20.5411 8.49237 20.5617 8.47171 20.5824C8.45105 20.603 8.44071 20.6237 8.42005 20.6443C8.39939 20.665 8.37872 20.6856 8.35806 20.696C8.3374 20.7166 8.31674 20.7269 8.29607 20.7476C8.25475 20.7786 8.20309 20.7992 8.15143 20.8199C8.09977 20.8405 8.04812 20.8612 7.99646 20.8715C7.96547 20.8818 7.9448 20.8818 7.91381 20.8818C7.89315 20.8715 7.86215 20.8818 7.83116 20.8818Z" fill="#0E2F56"/>
<path d="M11.9948 21.7079C11.9535 21.7079 11.9122 21.7079 11.8708 21.6975C11.8295 21.6975 11.7882 21.6872 11.7469 21.6769C11.7055 21.6666 11.6642 21.6562 11.6332 21.6459C11.5919 21.6356 11.5609 21.6253 11.5196 21.6046C11.4782 21.5943 11.4472 21.5736 11.4059 21.553C11.3749 21.5323 11.3336 21.5117 11.3026 21.491C11.2716 21.4704 11.2406 21.4394 11.1993 21.4187C11.1683 21.3981 11.1373 21.3671 11.1063 21.3361C11.0753 21.3051 11.0547 21.2742 11.0237 21.2432C11.003 21.2122 10.972 21.1812 10.9513 21.1399C10.9307 21.109 10.91 21.0677 10.8893 21.0367C10.8687 21.0057 10.848 20.9644 10.8377 20.9231C10.817 20.8818 10.8067 20.8508 10.7964 20.8095C10.786 20.7682 10.7757 20.7269 10.7654 20.6959C10.755 20.6546 10.755 20.6133 10.7447 20.572C10.7447 20.5307 10.7344 20.4894 10.7344 20.4481C10.7344 20.4068 10.7344 20.3655 10.7447 20.3242C10.7447 20.2829 10.755 20.2416 10.7654 20.2003C10.7757 20.159 10.786 20.1177 10.7964 20.0867C10.8067 20.0454 10.817 20.0144 10.8377 19.9731C10.8584 19.9318 10.8687 19.9008 10.8893 19.8595C10.91 19.8285 10.9307 19.7872 10.9513 19.7563C10.972 19.7253 11.003 19.6943 11.0237 19.653C11.0547 19.622 11.0753 19.591 11.1063 19.5601C11.1373 19.5291 11.1683 19.5084 11.1993 19.4775C11.2303 19.4568 11.2613 19.4258 11.3026 19.4052C11.3336 19.3845 11.3749 19.3639 11.4059 19.3432C11.4369 19.3226 11.4782 19.3019 11.5196 19.2916C11.5609 19.2709 11.5919 19.2606 11.6332 19.2503C11.6745 19.24 11.7159 19.2296 11.7469 19.2193C11.7882 19.209 11.8295 19.209 11.8708 19.1987C11.9535 19.1883 12.0361 19.1883 12.1188 19.1987C12.1601 19.1987 12.2014 19.209 12.2428 19.2193C12.2841 19.2296 12.3254 19.24 12.3564 19.2503C12.3977 19.2606 12.4287 19.2709 12.4701 19.2916C12.5114 19.3019 12.5424 19.3226 12.5837 19.3432C12.6147 19.3639 12.656 19.3845 12.687 19.4052C12.718 19.4258 12.749 19.4568 12.7903 19.4775C12.8213 19.5084 12.8523 19.5291 12.8833 19.5601C12.9143 19.591 12.935 19.622 12.966 19.653C12.997 19.684 13.0176 19.715 13.0383 19.7563C13.059 19.7872 13.0796 19.8285 13.1003 19.8595C13.1209 19.8905 13.1416 19.9318 13.1519 19.9731C13.1726 20.0144 13.1829 20.0454 13.1933 20.0867C13.2036 20.128 13.2139 20.1693 13.2243 20.2003C13.2346 20.2416 13.2346 20.2829 13.2449 20.3242C13.2449 20.3655 13.2553 20.4068 13.2553 20.4481C13.2553 20.4894 13.2553 20.5307 13.2449 20.572C13.2449 20.6133 13.2346 20.6546 13.2243 20.6959C13.2139 20.7372 13.2036 20.7785 13.1933 20.8095C13.1829 20.8508 13.1726 20.8818 13.1519 20.9231C13.1416 20.9644 13.1209 20.9954 13.1003 21.0367C13.0796 21.0677 13.059 21.109 13.0383 21.1399C13.0176 21.1709 12.9866 21.2019 12.966 21.2432C12.9453 21.2742 12.9143 21.3051 12.8833 21.3361C12.8523 21.3671 12.8213 21.3878 12.7903 21.4187C12.7593 21.4394 12.7283 21.4704 12.687 21.491C12.656 21.5117 12.6147 21.5323 12.5837 21.553C12.5527 21.5736 12.5114 21.5943 12.4701 21.6046C12.4287 21.6253 12.3977 21.6356 12.3564 21.6459C12.3151 21.6562 12.2738 21.6666 12.2428 21.6769C12.2014 21.6872 12.1601 21.6872 12.1188 21.6975C12.0775 21.7079 12.0361 21.7079 11.9948 21.7079Z" fill="#0E2F56"/>
<path d="M11.9948 4.77329C11.9535 4.77329 11.9122 4.77329 11.8708 4.76296C11.8295 4.76296 11.7882 4.75264 11.7469 4.74231C11.7055 4.73198 11.6642 4.72166 11.6332 4.71133C11.5919 4.70101 11.5609 4.69068 11.5196 4.67003C11.4782 4.6597 11.4472 4.63905 11.4059 4.6184C11.3749 4.59775 11.3336 4.5771 11.3026 4.55645C11.2716 4.53579 11.2406 4.50481 11.1993 4.48416C11.1683 4.45319 11.1373 4.43253 11.1063 4.40156C11.0753 4.37058 11.0547 4.3396 11.0237 4.30862C11.003 4.27764 10.972 4.24667 10.9513 4.20536C10.9307 4.17438 10.91 4.13308 10.8893 4.1021C10.8687 4.07113 10.848 4.02982 10.8377 3.98852C10.817 3.94722 10.8067 3.91624 10.7964 3.87494C10.786 3.83363 10.7757 3.79233 10.7654 3.76135C10.755 3.72005 10.755 3.67874 10.7447 3.63744C10.7447 3.59613 10.7344 3.55483 10.7344 3.51353C10.7344 3.47223 10.7344 3.43092 10.7447 3.38962C10.7447 3.34832 10.755 3.30701 10.7654 3.26571C10.7757 3.2244 10.786 3.1831 10.7964 3.15212C10.8067 3.11082 10.817 3.07984 10.8377 3.03854C10.8584 2.99723 10.8687 2.96626 10.8893 2.92495C10.91 2.89398 10.9307 2.85267 10.9513 2.82169C10.972 2.79072 11.003 2.75974 11.0237 2.71843C11.0547 2.68746 11.0753 2.65648 11.1063 2.6255C11.1373 2.59452 11.1683 2.57387 11.1993 2.54289C11.2303 2.51192 11.2613 2.49126 11.3026 2.47061C11.3336 2.44996 11.3749 2.42931 11.4059 2.40866C11.4369 2.38801 11.4782 2.36735 11.5196 2.35703C11.5609 2.33638 11.5919 2.32605 11.6332 2.31572C11.6745 2.3054 11.7159 2.29507 11.7469 2.28475C11.7882 2.27442 11.8295 2.27442 11.8708 2.26409C11.9535 2.25377 12.0361 2.25377 12.1188 2.26409C12.1601 2.26409 12.2014 2.27442 12.2428 2.28475C12.2841 2.29507 12.3254 2.3054 12.3564 2.31572C12.3977 2.32605 12.4287 2.33638 12.4701 2.35703C12.5114 2.36735 12.5424 2.38801 12.5837 2.40866C12.6147 2.42931 12.656 2.44996 12.687 2.47061C12.718 2.49126 12.749 2.52224 12.7903 2.54289C12.8317 2.56354 12.8523 2.59452 12.8833 2.6255C12.9143 2.65648 12.935 2.68746 12.966 2.71843C12.997 2.74941 13.0176 2.78039 13.0383 2.82169C13.059 2.85267 13.0796 2.89398 13.1003 2.92495C13.1209 2.95593 13.1416 2.99723 13.1519 3.03854C13.1726 3.07984 13.1829 3.11082 13.1933 3.15212C13.2036 3.19343 13.2139 3.23473 13.2243 3.26571C13.2346 3.30701 13.2346 3.34832 13.2449 3.38962C13.2449 3.43092 13.2553 3.47223 13.2553 3.51353C13.2553 3.55483 13.2553 3.59613 13.2449 3.63744C13.2449 3.67874 13.2346 3.72005 13.2243 3.76135C13.2139 3.80265 13.2036 3.84396 13.1933 3.87494C13.1829 3.91624 13.1726 3.94722 13.1519 3.98852C13.1416 4.02982 13.1209 4.0608 13.1003 4.1021C13.0796 4.13308 13.059 4.17438 13.0383 4.20536C13.0176 4.23634 12.9866 4.26732 12.966 4.30862C12.9453 4.3396 12.9143 4.37058 12.8833 4.40156C12.8523 4.43253 12.8213 4.45319 12.7903 4.48416C12.7593 4.50481 12.7283 4.53579 12.687 4.55645C12.656 4.5771 12.6147 4.59775 12.5837 4.6184C12.5527 4.63905 12.5114 4.6597 12.4701 4.67003C12.4287 4.69068 12.3977 4.70101 12.3564 4.71133C12.3151 4.72166 12.2738 4.73198 12.2428 4.74231C12.2014 4.75264 12.1601 4.75264 12.1188 4.76296C12.0775 4.77329 12.0361 4.77329 11.9948 4.77329Z" fill="#0E2F56"/>
<path d="M20.4665 13.2406C20.4252 13.2406 20.3838 13.2406 20.3425 13.2302C20.3012 13.2302 20.2599 13.2199 20.2185 13.2096C20.1772 13.1993 20.1359 13.1889 20.1049 13.1786C20.0636 13.1683 20.0326 13.158 19.9912 13.1373C19.9499 13.1167 19.9189 13.1063 19.8776 13.0857C19.8466 13.065 19.8053 13.0444 19.7743 13.0237C19.7433 13.0031 19.7123 12.9721 19.671 12.9514C19.64 12.9205 19.609 12.8998 19.578 12.8688C19.547 12.8379 19.5263 12.8069 19.4953 12.7759C19.4747 12.7449 19.4437 12.714 19.423 12.6726C19.4024 12.6417 19.3817 12.6004 19.361 12.5694C19.3404 12.5384 19.3197 12.4971 19.3094 12.4558C19.2887 12.4145 19.2784 12.3835 19.268 12.3422C19.2577 12.3009 19.2474 12.2596 19.2371 12.2286C19.2267 12.1873 19.2267 12.146 19.2164 12.1047C19.2164 12.0634 19.2061 12.0221 19.2061 11.9808C19.2061 11.9395 19.2061 11.8982 19.2164 11.8569C19.2164 11.8156 19.2267 11.7743 19.2371 11.733C19.2474 11.6917 19.2577 11.6504 19.268 11.6194C19.2784 11.5781 19.2887 11.5368 19.3094 11.5058C19.3197 11.4645 19.3404 11.4335 19.361 11.3922C19.3817 11.3613 19.4024 11.32 19.423 11.289C19.4437 11.258 19.4747 11.2167 19.4953 11.1857C19.516 11.1547 19.547 11.1238 19.578 11.0928C19.609 11.0618 19.64 11.0412 19.671 11.0102C19.702 10.9895 19.733 10.9585 19.7743 10.9379C19.8053 10.9172 19.8466 10.8966 19.8776 10.8759C19.9086 10.8553 19.9499 10.8346 19.9912 10.8243C20.0326 10.814 20.0636 10.7933 20.1049 10.783C20.1462 10.7727 20.1875 10.7624 20.2185 10.752C20.2599 10.7417 20.3012 10.7417 20.3425 10.7314C20.4252 10.7211 20.5078 10.7211 20.5905 10.7314C20.6318 10.7314 20.6731 10.7417 20.7144 10.752C20.7558 10.7624 20.7971 10.7727 20.8281 10.783C20.8694 10.7933 20.9004 10.8037 20.9417 10.8243C20.9831 10.845 21.0141 10.8553 21.0554 10.8759C21.0967 10.8966 21.1277 10.9172 21.1587 10.9379C21.1897 10.9585 21.2207 10.9895 21.262 11.0102C21.293 11.0412 21.324 11.0618 21.355 11.0928C21.386 11.1238 21.4067 11.1547 21.4377 11.1857C21.4583 11.2167 21.4893 11.2477 21.51 11.289C21.5306 11.32 21.5513 11.3613 21.572 11.3922C21.5926 11.4232 21.6133 11.4645 21.6236 11.5058C21.6339 11.5471 21.6546 11.5781 21.6649 11.6194C21.6753 11.6607 21.6856 11.702 21.6959 11.733C21.7063 11.7743 21.7063 11.8156 21.7166 11.8569C21.7166 11.8982 21.7269 11.9395 21.7269 11.9808C21.7269 12.0221 21.7269 12.0634 21.7166 12.1047C21.7166 12.146 21.7063 12.1873 21.6959 12.2286C21.6856 12.2699 21.6753 12.3112 21.6649 12.3422C21.6546 12.3835 21.6339 12.4248 21.6236 12.4558C21.603 12.4971 21.5926 12.5281 21.572 12.5694C21.5513 12.6004 21.5306 12.6417 21.51 12.6726C21.4893 12.7036 21.4583 12.7449 21.4377 12.7759C21.4067 12.8069 21.386 12.8379 21.355 12.8688C21.324 12.8998 21.293 12.9205 21.262 12.9514C21.231 12.9721 21.2 13.0031 21.1587 13.0237C21.1277 13.0444 21.0864 13.065 21.0554 13.0857C21.0244 13.1063 20.9831 13.127 20.9417 13.1373C20.9004 13.1476 20.8694 13.1683 20.8281 13.1786C20.7868 13.1889 20.7454 13.1993 20.7144 13.2096C20.6731 13.2199 20.6318 13.2199 20.5905 13.2302C20.5491 13.2406 20.5078 13.2406 20.4665 13.2406Z" fill="#0E2F56"/>
<path d="M3.52314 13.2406C3.48181 13.2406 3.44048 13.2406 3.39916 13.2302C3.35783 13.2302 3.31651 13.2199 3.27518 13.2096C3.23385 13.1993 3.19253 13.1889 3.16153 13.1786C3.12021 13.1683 3.07888 13.158 3.04789 13.1373C3.00656 13.1167 2.97557 13.1063 2.93424 13.0857C2.90325 13.065 2.86192 13.0444 2.83093 13.0237C2.79993 13.0031 2.75861 12.9721 2.72761 12.9514C2.69662 12.9205 2.66562 12.8998 2.63463 12.8688C2.60363 12.8379 2.58297 12.8069 2.55198 12.7759C2.52098 12.7449 2.50032 12.714 2.47966 12.6726C2.45899 12.6417 2.43833 12.6004 2.41767 12.5694C2.397 12.5384 2.37634 12.4971 2.36601 12.4558C2.35568 12.4145 2.33502 12.3835 2.32468 12.3422C2.31435 12.3009 2.30402 12.2596 2.29369 12.2286C2.28336 12.1873 2.28336 12.146 2.27303 12.1047C2.27303 12.0634 2.2627 12.0221 2.2627 11.9808C2.2627 11.9395 2.2627 11.8982 2.27303 11.8569C2.27303 11.8156 2.28336 11.7743 2.29369 11.733C2.30402 11.6917 2.31435 11.6504 2.32468 11.6194C2.33502 11.5781 2.34535 11.5368 2.36601 11.5058C2.38667 11.4645 2.397 11.4335 2.41767 11.3922C2.43833 11.3613 2.45899 11.32 2.47966 11.289C2.50032 11.258 2.53131 11.2167 2.55198 11.1857C2.57264 11.1547 2.60363 11.1238 2.63463 11.0928C2.66562 11.0618 2.69662 11.0412 2.72761 11.0102C2.75861 10.9895 2.7896 10.9585 2.83093 10.9379C2.86192 10.9172 2.90325 10.8966 2.93424 10.8759C2.96524 10.8553 3.00656 10.8346 3.04789 10.8243C3.08921 10.814 3.12021 10.7933 3.16153 10.783C3.20286 10.7727 3.24419 10.7624 3.27518 10.752C3.31651 10.7417 3.35783 10.7417 3.39916 10.7314C3.48181 10.7211 3.56446 10.7211 3.64711 10.7314C3.68844 10.7314 3.72976 10.7417 3.77109 10.752C3.81242 10.7624 3.85374 10.7727 3.88474 10.783C3.92606 10.7933 3.95706 10.8037 3.99838 10.8243C4.03971 10.845 4.0707 10.8553 4.11203 10.8759C4.15336 10.8966 4.18435 10.9172 4.21534 10.9379C4.24634 10.9585 4.28766 10.9895 4.31866 11.0102C4.34965 11.0412 4.38065 11.0618 4.41164 11.0928C4.44264 11.1238 4.4633 11.1547 4.49429 11.1857C4.51496 11.2167 4.54595 11.2477 4.56661 11.289C4.58728 11.32 4.60794 11.3613 4.6286 11.3922C4.64927 11.4232 4.66993 11.4645 4.68026 11.5058C4.69059 11.5471 4.71125 11.5781 4.72159 11.6194C4.73192 11.6607 4.74225 11.702 4.75258 11.733C4.76291 11.7743 4.76291 11.8156 4.77324 11.8569C4.77324 11.8982 4.78357 11.9395 4.78357 11.9808C4.78357 12.0221 4.78357 12.0634 4.77324 12.1047C4.77324 12.146 4.76291 12.1873 4.75258 12.2286C4.74225 12.2699 4.73192 12.3112 4.72159 12.3422C4.71125 12.3835 4.70092 12.4248 4.68026 12.4558C4.6596 12.4971 4.64927 12.5281 4.6286 12.5694C4.60794 12.6004 4.58728 12.6417 4.56661 12.6726C4.54595 12.7036 4.51496 12.7449 4.49429 12.7759C4.4633 12.8069 4.44264 12.8379 4.41164 12.8688C4.38065 12.8998 4.34965 12.9205 4.31866 12.9514C4.28766 12.9721 4.25667 13.0031 4.21534 13.0237C4.18435 13.0444 4.14302 13.065 4.11203 13.0857C4.08103 13.1063 4.03971 13.127 3.99838 13.1373C3.95706 13.1476 3.92606 13.1683 3.88474 13.1786C3.84341 13.1889 3.80208 13.1993 3.77109 13.2096C3.72976 13.2199 3.68844 13.2199 3.64711 13.2302C3.60579 13.2406 3.56446 13.2406 3.52314 13.2406Z" fill="#0E2F56"/>
<path d="M19.4853 20.0455C19.3716 20.0455 19.2683 20.0042 19.196 19.9215C19.1237 19.8493 19.072 19.7357 19.072 19.6324C19.072 19.5188 19.1133 19.4156 19.196 19.3433C19.289 19.2504 19.4336 19.1987 19.5679 19.2297C19.5989 19.24 19.6196 19.24 19.6506 19.2504C19.6712 19.2607 19.7022 19.271 19.7229 19.2917C19.7436 19.302 19.7642 19.3226 19.7849 19.3433C19.8572 19.4156 19.9089 19.5292 19.9089 19.6324C19.9089 19.7357 19.8675 19.8493 19.7849 19.9215C19.7022 20.0042 19.5886 20.0455 19.4853 20.0455Z" fill="#0E2F56"/>
<path d="M4.50465 20.0453C4.47365 20.0453 4.45299 20.0453 4.42199 20.035C4.391 20.0247 4.37034 20.0247 4.33934 20.0143C4.31868 20.004 4.28768 19.9937 4.26702 19.973C4.24636 19.9627 4.22569 19.9421 4.20503 19.9214C4.18437 19.9007 4.16371 19.8801 4.15337 19.8594C4.14304 19.8388 4.12238 19.8078 4.11205 19.7872C4.10172 19.7665 4.09139 19.7355 4.09139 19.7046C4.08106 19.6736 4.08105 19.6529 4.08105 19.622C4.08105 19.591 4.08106 19.5703 4.09139 19.5393C4.10172 19.5084 4.10172 19.4877 4.11205 19.4567C4.12238 19.4361 4.13271 19.4051 4.15337 19.3845C4.16371 19.3638 4.18437 19.3432 4.20503 19.3225C4.22569 19.3018 4.24636 19.2812 4.26702 19.2709C4.28768 19.2605 4.30835 19.2399 4.33934 19.2296C4.36 19.2192 4.391 19.2089 4.42199 19.2089C4.47365 19.1986 4.52531 19.1986 4.5873 19.2089C4.61829 19.2192 4.63895 19.2192 4.66995 19.2296C4.69061 19.2399 4.72161 19.2502 4.74227 19.2709C4.76293 19.2812 4.78359 19.3018 4.80426 19.3225C4.82492 19.3432 4.84558 19.3638 4.85591 19.3845C4.86625 19.4051 4.88691 19.4361 4.89724 19.4567C4.90757 19.4774 4.9179 19.5084 4.9179 19.5393C4.92824 19.5703 4.92823 19.591 4.92823 19.622C4.92823 19.6529 4.92824 19.6736 4.9179 19.7046C4.9179 19.7355 4.90757 19.7562 4.89724 19.7872C4.88691 19.8078 4.87658 19.8388 4.85591 19.8594C4.84558 19.8801 4.82492 19.9007 4.80426 19.9214C4.78359 19.9421 4.76293 19.9627 4.74227 19.973C4.72161 19.9834 4.69061 20.004 4.66995 20.0143C4.64929 20.0247 4.61829 20.035 4.5873 20.035C4.56663 20.0453 4.53564 20.0453 4.50465 20.0453Z" fill="#0E2F56"/>
<path d="M19.4853 4.77334C19.3716 4.77334 19.2683 4.73204 19.196 4.64943C19.1753 4.62878 19.1547 4.60813 19.1443 4.58747C19.134 4.56682 19.1133 4.53584 19.103 4.51519C19.0927 4.49454 19.0824 4.46356 19.0824 4.43259C19.072 4.40161 19.072 4.38096 19.072 4.34998C19.072 4.319 19.072 4.29835 19.0824 4.26737C19.0927 4.2364 19.0927 4.21575 19.103 4.18477C19.1133 4.16412 19.1237 4.13314 19.1443 4.11249C19.1547 4.09183 19.1753 4.07118 19.196 4.05053C19.2167 4.02987 19.2373 4.00922 19.258 3.9989C19.2786 3.98857 19.2993 3.96792 19.3303 3.9576C19.351 3.94727 19.382 3.93694 19.413 3.93694C19.4646 3.92662 19.5163 3.92662 19.5783 3.93694C19.6093 3.94727 19.6299 3.94727 19.6609 3.9576C19.6816 3.96792 19.7126 3.97824 19.7332 3.9989C19.7539 4.00922 19.7746 4.02987 19.7952 4.05053C19.8159 4.07118 19.8366 4.09183 19.8469 4.11249C19.8572 4.13314 19.8779 4.16412 19.8882 4.18477C19.8985 4.20542 19.9089 4.2364 19.9089 4.26737C19.9192 4.29835 19.9192 4.319 19.9192 4.34998C19.9192 4.38096 19.9192 4.40161 19.9089 4.43259C19.9089 4.46356 19.8985 4.48421 19.8882 4.51519C19.8779 4.53584 19.8675 4.56682 19.8469 4.58747C19.8366 4.60813 19.8159 4.62878 19.7952 4.64943C19.7022 4.73204 19.5886 4.77334 19.4853 4.77334Z" fill="#0E2F56"/>
<path d="M4.50457 4.77327C4.39092 4.77327 4.28761 4.73197 4.21529 4.64936C4.19462 4.62871 4.17396 4.60806 4.16363 4.58741C4.1533 4.56675 4.13263 4.53577 4.1223 4.51512C4.11197 4.49447 4.10164 4.46349 4.10164 4.43252C4.09131 4.40154 4.09131 4.38089 4.09131 4.34991C4.09131 4.23633 4.13263 4.13307 4.21529 4.06079C4.23595 4.04013 4.25661 4.01948 4.27727 4.00916C4.29794 3.99883 4.3186 3.97818 4.3496 3.96785C4.37026 3.95752 4.40125 3.9472 4.43225 3.9472C4.4839 3.93687 4.54589 3.93687 4.59755 3.9472C4.62854 3.95752 4.64921 3.95752 4.6802 3.96785C4.70086 3.97818 4.73186 3.9885 4.75252 4.00916C4.77318 4.01948 4.79385 4.04013 4.81451 4.06079C4.88683 4.13307 4.93849 4.24665 4.93849 4.34991C4.93849 4.38089 4.93849 4.40154 4.92816 4.43252C4.92816 4.46349 4.91783 4.48414 4.90749 4.51512C4.89716 4.53577 4.88683 4.56675 4.86617 4.58741C4.85584 4.60806 4.83517 4.62871 4.81451 4.64936C4.72153 4.73197 4.61821 4.77327 4.50457 4.77327Z" fill="#0E2F56"/>
<path d="M11.9947 24C11.9431 24 11.8914 23.9794 11.8501 23.9381C11.8087 23.8968 11.7881 23.8451 11.7881 23.7935C11.7881 23.7419 11.8087 23.6902 11.8501 23.6489C11.9224 23.5767 12.067 23.5767 12.1394 23.6489C12.1807 23.6902 12.2013 23.7419 12.2013 23.7935C12.2013 23.8451 12.1807 23.8968 12.1394 23.9381C12.1084 23.969 12.0464 24 11.9947 24Z" fill="#0E2F56"/>
<path d="M16.1585 24.0001C16.1482 24.0001 16.1275 24.0001 16.1172 24.0001C16.1069 24.0001 16.0862 23.9897 16.0759 23.9897C16.0656 23.9897 16.0552 23.9794 16.0449 23.9691C16.0346 23.9588 16.0242 23.9484 16.0139 23.9381C15.9726 23.8968 15.9519 23.8452 15.9519 23.7935C15.9519 23.7832 15.9519 23.7626 15.9519 23.7522C15.9519 23.7419 15.9622 23.7213 15.9622 23.7109C15.9726 23.7006 15.9726 23.6903 15.9829 23.68C15.9932 23.6696 16.0036 23.6593 16.0036 23.649C16.0139 23.6387 16.0242 23.6283 16.0346 23.6283C16.0449 23.618 16.0552 23.618 16.0656 23.6077C16.0759 23.6077 16.0862 23.5974 16.1069 23.5974C16.1792 23.587 16.2412 23.6077 16.2928 23.649C16.3032 23.6593 16.3135 23.6696 16.3135 23.68C16.3238 23.6903 16.3238 23.7006 16.3342 23.7109C16.3342 23.7213 16.3445 23.7316 16.3445 23.7522C16.3445 23.7626 16.3445 23.7832 16.3445 23.7935C16.3445 23.8452 16.3238 23.8968 16.2825 23.9381C16.2618 23.9691 16.2102 24.0001 16.1585 24.0001Z" fill="#0E2F56"/>
<path d="M7.83114 24C7.82081 24 7.80015 24 7.78982 24C7.77948 24 7.75882 23.9897 7.74849 23.9897C7.73816 23.9793 7.72783 23.9793 7.7175 23.969C7.70717 23.9587 7.69683 23.9484 7.6865 23.9484C7.64518 23.9071 7.62451 23.8554 7.62451 23.8038C7.62451 23.7935 7.62451 23.7728 7.62451 23.7625C7.62451 23.7522 7.63484 23.7315 7.63484 23.7212C7.63484 23.7109 7.64518 23.7005 7.65551 23.6902C7.66584 23.6799 7.67617 23.6696 7.6865 23.6592C7.69683 23.6489 7.70717 23.6386 7.7175 23.6386C7.72783 23.6283 7.73816 23.6283 7.74849 23.6179C7.75882 23.6179 7.76915 23.6076 7.78982 23.6076C7.86214 23.5973 7.92413 23.6179 7.97578 23.6592C7.98612 23.6696 7.99645 23.6799 8.00678 23.6902C8.01711 23.7005 8.01711 23.7109 8.02744 23.7212C8.03777 23.7315 8.03777 23.7418 8.03777 23.7625C8.03777 23.7728 8.03777 23.7935 8.03777 23.8038C8.03777 23.8554 8.01711 23.9071 7.97578 23.9484C7.94479 23.969 7.89313 24 7.83114 24Z" fill="#0E2F56"/>
<path d="M23.6383 7.89174C23.6279 7.89174 23.6073 7.89174 23.5969 7.89174C23.5866 7.89174 23.566 7.88142 23.5556 7.88142C23.5453 7.88142 23.535 7.87109 23.5246 7.86077C23.5143 7.85044 23.504 7.84012 23.4936 7.82979C23.4523 7.78849 23.4316 7.73685 23.4316 7.68522C23.4316 7.6749 23.4316 7.65425 23.4316 7.64392C23.4316 7.6336 23.442 7.61294 23.442 7.60262C23.442 7.59229 23.4523 7.58197 23.4626 7.57164C23.473 7.56132 23.4833 7.55099 23.4936 7.54066C23.504 7.53034 23.5143 7.52001 23.5246 7.50968C23.535 7.49936 23.5453 7.49936 23.5556 7.48904C23.566 7.47871 23.5763 7.47871 23.5969 7.47871C23.6693 7.46838 23.7313 7.48903 23.7829 7.53034C23.7932 7.54066 23.8036 7.55099 23.8139 7.56131C23.8242 7.57164 23.8242 7.58197 23.8346 7.59229C23.8449 7.60262 23.8449 7.61294 23.8449 7.63359C23.8449 7.64392 23.8449 7.66457 23.8449 7.6749C23.8449 7.72653 23.8242 7.77816 23.7829 7.81946C23.7519 7.87109 23.7003 7.89174 23.6383 7.89174Z" fill="#0E2F56"/>
<path d="M23.6383 16.5136C23.6279 16.5136 23.6073 16.5136 23.5969 16.5136C23.5866 16.5136 23.566 16.5032 23.5556 16.5032C23.5453 16.4929 23.535 16.4929 23.5246 16.4826C23.5143 16.4723 23.504 16.4619 23.4936 16.4516C23.4833 16.4413 23.473 16.431 23.4626 16.4206C23.4523 16.4103 23.4523 16.4 23.442 16.3896C23.4316 16.3793 23.4316 16.369 23.4316 16.3483C23.4316 16.338 23.4316 16.3174 23.4316 16.307C23.4316 16.2967 23.4316 16.2761 23.4316 16.2657C23.4316 16.2554 23.442 16.2348 23.442 16.2244C23.442 16.2141 23.4523 16.2038 23.4626 16.1935C23.473 16.1831 23.4833 16.1728 23.4936 16.1625C23.504 16.1522 23.5143 16.1418 23.5246 16.1315C23.535 16.1212 23.5453 16.1212 23.5556 16.1108C23.566 16.1005 23.5763 16.1005 23.5969 16.1005C23.6279 16.0902 23.6486 16.0902 23.6796 16.1005C23.6899 16.1005 23.7106 16.1108 23.7209 16.1108C23.7313 16.1108 23.7416 16.1212 23.7519 16.1315C23.7622 16.1418 23.7726 16.1522 23.7829 16.1625C23.7932 16.1728 23.8036 16.1831 23.8139 16.1935C23.8242 16.2038 23.8242 16.2141 23.8346 16.2244C23.8449 16.2348 23.8449 16.2451 23.8449 16.2657C23.8449 16.2761 23.8449 16.2967 23.8449 16.307C23.8449 16.3174 23.8449 16.338 23.8449 16.3483C23.8449 16.3587 23.8346 16.3793 23.8346 16.3896C23.8346 16.4 23.8242 16.4103 23.8139 16.4206C23.8036 16.431 23.7932 16.4413 23.7829 16.4516C23.7726 16.4619 23.7622 16.4723 23.7519 16.4826C23.7416 16.4929 23.7313 16.4929 23.7209 16.5032C23.7106 16.5136 23.7003 16.5136 23.6796 16.5136C23.6693 16.5136 23.6589 16.5136 23.6383 16.5136Z" fill="#0E2F56"/>
<path d="M23.7933 12.1975C23.783 12.1975 23.7623 12.1975 23.752 12.1975C23.7416 12.1975 23.721 12.1872 23.7106 12.1872C23.7003 12.1768 23.69 12.1768 23.6797 12.1665C23.6693 12.1562 23.659 12.1459 23.6487 12.1459C23.6073 12.1046 23.5867 12.0529 23.5867 12.0013C23.5867 11.9497 23.6073 11.898 23.6487 11.8567C23.659 11.8464 23.6693 11.8361 23.6797 11.8361C23.69 11.8258 23.7003 11.8258 23.7106 11.8154C23.721 11.8154 23.7313 11.8051 23.752 11.8051C23.783 11.7948 23.8036 11.7948 23.8346 11.8051C23.845 11.8051 23.8656 11.8154 23.876 11.8154C23.8863 11.8258 23.8966 11.8258 23.9069 11.8361C23.9173 11.8464 23.9276 11.8567 23.9379 11.8567C23.9793 11.898 23.9999 11.9497 23.9999 12.0013C23.9999 12.0529 23.9793 12.1046 23.9379 12.1459C23.9276 12.1562 23.9173 12.1665 23.9069 12.1665C23.8966 12.1768 23.8863 12.1768 23.876 12.1872C23.8656 12.1872 23.8553 12.1975 23.8346 12.1975C23.8243 12.1975 23.8036 12.1975 23.7933 12.1975Z" fill="#0E2F56"/>
<path d="M16.1585 0.405288C16.1069 0.405288 16.0552 0.384639 16.0139 0.343335C15.9726 0.302032 15.9519 0.2504 15.9519 0.19877C15.9519 0.14714 15.9726 0.0955147 16.0139 0.054211C16.0965 -0.0180703 16.2309 -0.0180703 16.3032 0.054211C16.3445 0.0955147 16.3652 0.14714 16.3652 0.19877C16.3652 0.2504 16.3445 0.302032 16.3032 0.343335C16.2618 0.384639 16.2102 0.405288 16.1585 0.405288Z" fill="#0E2F56"/>
<path d="M7.83114 0.405288C7.82081 0.405288 7.80015 0.405288 7.78982 0.405288C7.77948 0.405288 7.75882 0.394965 7.74849 0.394965C7.73816 0.384639 7.72783 0.384638 7.7175 0.374312C7.70717 0.363986 7.69683 0.353659 7.6865 0.353659C7.64518 0.312355 7.62451 0.260729 7.62451 0.2091C7.62451 0.198774 7.62451 0.17812 7.62451 0.167794C7.62451 0.157468 7.63484 0.136813 7.63484 0.126488C7.63484 0.116162 7.64518 0.105837 7.65551 0.0955111C7.66584 0.0851852 7.67617 0.0748605 7.6865 0.0645346C7.69683 0.0542087 7.70717 0.0438841 7.7175 0.0335581C7.72783 0.0232322 7.73816 0.023231 7.74849 0.0129051C7.75882 0.00257914 7.76915 0.00258166 7.78982 0.00258166C7.86214 -0.00774425 7.92413 0.0129051 7.97578 0.0645346C7.98612 0.0748605 7.99645 0.0851852 8.00678 0.0955111C8.01711 0.105837 8.01711 0.116162 8.02744 0.126488C8.03777 0.136813 8.03777 0.157468 8.03777 0.167794C8.03777 0.17812 8.03777 0.198774 8.03777 0.2091C8.03777 0.260729 8.01711 0.312355 7.97578 0.353659C7.94479 0.384637 7.89313 0.405288 7.83114 0.405288Z" fill="#0E2F56"/>
<path d="M11.9947 0.405288C11.9431 0.405288 11.8914 0.384639 11.8501 0.343335C11.8397 0.333009 11.8294 0.322685 11.8191 0.312359C11.8087 0.302033 11.8087 0.291702 11.7984 0.281376C11.7881 0.27105 11.7881 0.260728 11.7881 0.240076C11.7881 0.22975 11.7881 0.209096 11.7881 0.19877C11.7881 0.188444 11.7881 0.167796 11.7881 0.15747C11.7881 0.147144 11.7984 0.12649 11.7984 0.116164C11.8087 0.105838 11.8087 0.0955134 11.8191 0.0851875C11.8294 0.0748616 11.8397 0.0645369 11.8501 0.054211C11.9224 -0.0180703 12.067 -0.0180703 12.1394 0.054211C12.1497 0.0645369 12.16 0.0748616 12.1703 0.0851875C12.1807 0.0955134 12.1807 0.105838 12.191 0.116164C12.2013 0.12649 12.2013 0.147144 12.2013 0.15747C12.2013 0.167796 12.2013 0.188444 12.2013 0.19877C12.2013 0.209096 12.2013 0.22975 12.2013 0.240076C12.2013 0.250402 12.191 0.27105 12.191 0.281376C12.191 0.291702 12.1807 0.302033 12.1703 0.312359C12.16 0.322685 12.1497 0.333009 12.1394 0.343335C12.1084 0.384639 12.0464 0.405288 11.9947 0.405288Z" fill="#0E2F56"/>
<path d="M0.351161 7.89158C0.340829 7.89158 0.320167 7.89158 0.309835 7.89158C0.299504 7.89158 0.278842 7.88125 0.26851 7.88125C0.258179 7.88125 0.247847 7.87093 0.237515 7.8606C0.227184 7.85028 0.216852 7.83995 0.206521 7.82962C0.165195 7.78832 0.144531 7.73669 0.144531 7.68506C0.144531 7.67473 0.144531 7.65409 0.144531 7.64376C0.144531 7.63343 0.154863 7.61278 0.154863 7.60245C0.165195 7.59213 0.165195 7.5818 0.175526 7.57148C0.185857 7.56115 0.196189 7.55083 0.196189 7.5405C0.247846 7.48887 0.320167 7.46822 0.382155 7.48887C0.392487 7.48887 0.413151 7.49919 0.423482 7.49919C0.433814 7.50952 0.444144 7.50952 0.454475 7.51985C0.464807 7.53017 0.475139 7.5405 0.48547 7.5405C0.495802 7.55083 0.506133 7.56115 0.506133 7.57148C0.516464 7.5818 0.516465 7.59213 0.526797 7.60245C0.537128 7.61278 0.537127 7.62311 0.537127 7.64376C0.537127 7.65409 0.537127 7.67473 0.537127 7.68506C0.537127 7.73669 0.516465 7.78832 0.47514 7.82962C0.464808 7.83995 0.454476 7.85028 0.444145 7.8606C0.433813 7.87093 0.423482 7.87093 0.41315 7.88125C0.402819 7.89158 0.382156 7.89158 0.371825 7.89158C0.382156 7.89158 0.361492 7.89158 0.351161 7.89158Z" fill="#0E2F56"/>
<path d="M0.351161 16.5138C0.340829 16.5138 0.320167 16.5138 0.309835 16.5138C0.299504 16.5138 0.278842 16.5034 0.26851 16.5034C0.258179 16.4931 0.247847 16.4931 0.237515 16.4828C0.227184 16.4725 0.216852 16.4621 0.206521 16.4518C0.165195 16.4105 0.144531 16.3589 0.144531 16.3072C0.144531 16.2556 0.165195 16.204 0.206521 16.1627C0.258178 16.1111 0.330499 16.0904 0.392487 16.1007C0.402819 16.1007 0.423481 16.1111 0.433813 16.1111C0.444144 16.1111 0.454476 16.1214 0.464807 16.1317C0.475139 16.142 0.485471 16.1524 0.495802 16.1627C0.537128 16.204 0.55779 16.2556 0.55779 16.3072C0.55779 16.3589 0.537128 16.4105 0.495802 16.4518C0.485471 16.4621 0.475139 16.4725 0.464807 16.4828C0.454476 16.4931 0.444144 16.4931 0.433813 16.5034C0.423481 16.5034 0.402819 16.5138 0.392487 16.5138C0.382156 16.5138 0.361492 16.5138 0.351161 16.5138Z" fill="#0E2F56"/>
<path d="M0.196297 12.1977C0.185966 12.1977 0.165304 12.1977 0.154972 12.1977C0.144641 12.1977 0.123978 12.1874 0.113647 12.1874C0.103315 12.177 0.0929835 12.177 0.0826521 12.1667C0.0723206 12.1564 0.0619888 12.1461 0.0516573 12.1461C0.0413259 12.1357 0.0309947 12.1254 0.0309947 12.1151C0.0206633 12.1048 0.0206636 12.0944 0.0103321 12.0841C0.0103321 12.0738 0 12.0635 0 12.0428C0 12.0325 0 12.0118 0 12.0015C0 11.9912 0 11.9705 0 11.9602C0 11.9499 0.0103321 11.9292 0.0103321 11.9189C0.0206636 11.9086 0.0206633 11.8982 0.0309947 11.8879C0.0413262 11.8776 0.0516573 11.8673 0.0516573 11.8569C0.123978 11.7847 0.268619 11.7847 0.340939 11.8569C0.35127 11.8673 0.361602 11.8776 0.371934 11.8879C0.382265 11.8982 0.382265 11.9086 0.392596 11.9189C0.402928 11.9292 0.402927 11.9396 0.402927 11.9602C0.402927 11.9705 0.402927 11.9912 0.402927 12.0015C0.402927 12.0531 0.382265 12.1048 0.340939 12.1461C0.309944 12.177 0.247955 12.1977 0.196297 12.1977Z" fill="#0E2F56"/>
</svg>
