<svg width="525" height="472" viewBox="0 0 525 472" fill="none" xmlns="http://www.w3.org/2000/svg">
<path d="M282.276 374.461C281.683 375.152 280.918 375.675 280.057 375.976C277.565 377.044 274.674 376.576 272.634 374.773L271.474 373.357C270.852 372.349 270.503 371.198 270.459 370.017L270.619 368.284C270.878 367.103 271.451 366.015 272.278 365.136C274.885 362.486 279.121 362.349 281.92 364.823L283.08 366.239C283.703 367.245 284.053 368.395 284.098 369.576L283.938 371.315C283.676 372.495 283.103 373.581 282.279 374.464L282.276 374.461Z" fill="#D5E2E8"/>
<path d="M286.351 412.998L286.387 412.959C286.477 412.812 286.575 412.671 286.682 412.536C286.933 412.099 287.301 411.742 287.745 411.503L287.785 411.46C287.933 411.369 288.093 411.298 288.26 411.25C288.88 410.974 289.561 410.861 290.239 410.923C290.758 410.931 291.267 411.072 291.717 411.333L292.588 411.954L293.266 412.777L293.688 413.721L293.857 414.723C293.9 415.237 293.807 415.753 293.589 416.22C293.514 416.565 293.347 416.882 293.105 417.138C292.94 417.455 292.692 417.72 292.388 417.907C292.149 418.166 291.844 418.355 291.506 418.454C291.055 418.704 290.547 418.832 290.031 418.825L289.019 418.727L288.049 418.371L287.181 417.752L286.5 416.926C286.209 416.496 286.032 415.998 285.989 415.481C285.891 415.153 285.879 414.806 285.954 414.474C285.957 413.954 286.095 413.444 286.354 412.995L286.351 412.998Z" fill="#D5E2E8"/>
<path d="M311.886 400.322C309.276 403.12 304.902 399.047 307.515 396.246C310.128 393.444 314.502 397.517 311.886 400.322Z" fill="#D5E2E8"/>
<path d="M309.144 375.577L309.068 374.674C309.043 374.016 309.281 373.376 309.729 372.895C310.179 372.418 310.799 372.137 311.457 372.113L312.367 372.135C312.942 372.141 313.51 372.271 314.032 372.516C314.452 372.71 314.811 373.015 315.07 373.398C315.287 373.601 315.445 373.857 315.53 374.141C315.684 374.387 315.77 374.67 315.778 374.959C315.876 375.523 315.824 376.102 315.626 376.638C315.508 377.069 315.279 377.461 314.962 377.776C314.549 378.196 314.042 378.512 313.482 378.698C312.931 378.853 312.349 378.872 311.788 378.752L310.97 378.453C310.56 378.257 310.209 377.957 309.952 377.583C309.733 377.381 309.574 377.124 309.492 376.839C309.278 376.462 309.167 376.035 309.17 375.602L309.144 375.577Z" fill="#D5E2E8"/>
<path d="M252.151 413.102C252.111 413.089 252.07 413.08 252.028 413.073L253.773 413.244C253.691 413.235 253.608 413.236 253.526 413.249L255.27 412.968C255.101 413.005 254.936 413.058 254.776 413.125L256.414 412.394C256.319 412.438 256.23 412.494 256.148 412.559C255.404 413.061 254.541 413.36 253.645 413.428C252.78 413.642 251.873 413.633 251.01 413.401L249.357 412.773C248.511 412.37 247.785 411.751 247.255 410.978C246.803 410.565 246.469 410.041 246.286 409.458C245.849 408.673 245.622 407.789 245.627 406.893L245.788 405.125C246.055 403.93 246.636 402.83 247.471 401.937C247.949 401.39 248.512 400.923 249.138 400.555L249.251 400.494L250.895 399.762C251.507 399.548 252.15 399.437 252.8 399.435C253.787 399.366 254.776 399.547 255.678 399.959C256.657 400.248 257.552 400.773 258.282 401.488L259.443 402.903C259.942 403.641 260.242 404.494 260.313 405.381C260.484 405.943 260.507 406.54 260.378 407.113C260.373 408 260.138 408.87 259.697 409.638L258.645 411.125L257.235 412.278C255.695 413.132 253.904 413.424 252.167 413.104L252.151 413.102Z" fill="#D5E2E8"/>
<path d="M269.835 432.958C267.896 435.037 264.646 432.012 266.588 429.93C268.53 427.848 271.773 430.879 269.835 432.958Z" fill="#D5E2E8"/>
<path d="M237.485 437.839C235.863 439.578 233.144 437.048 234.769 435.306C236.394 433.563 239.11 436.096 237.485 437.839Z" fill="#D5E2E8"/>
<path d="M472.948 362.546L472.883 362.09C472.844 361.618 472.929 361.144 473.13 360.716C473.257 360.243 473.508 359.812 473.858 359.47L474.616 358.85C475.155 358.521 475.771 358.337 476.404 358.315L476.86 358.352L477.894 358.446L478.887 358.811C479.385 359.05 479.812 359.415 480.127 359.868C480.573 360.417 480.871 361.071 480.991 361.767C481.091 362.103 481.103 362.458 481.027 362.799C481.04 363.153 480.959 363.504 480.793 363.815C480.654 364.341 480.376 364.819 479.986 365.198L479.145 365.888L478.181 366.316L477.157 366.483L476.122 366.383L475.129 366.018C474.631 365.783 474.204 365.419 473.893 364.964C473.628 364.717 473.433 364.405 473.328 364.06C473.072 363.598 472.94 363.079 472.942 362.553L472.948 362.546Z" fill="#D5E2E8"/>
<path d="M445.531 334.802C443.275 337.221 439.495 333.702 441.754 331.28C444.013 328.857 447.79 332.38 445.531 334.802Z" fill="#D5E2E8"/>
<path d="M442.454 359.977C439.527 363.115 434.622 358.547 437.552 355.406C440.482 352.264 445.399 356.819 442.454 359.977Z" fill="#D5E2E8"/>
<path d="M461.018 361.513C459.396 363.252 456.677 360.723 458.302 358.98C459.927 357.238 462.64 359.774 461.018 361.513Z" fill="#D5E2E8"/>
<path d="M447.615 400.721C444.134 404.453 438.298 399.022 441.785 395.284C445.272 391.545 451.102 396.982 447.615 400.721Z" fill="#D5E2E8"/>
<path d="M373.024 301.85L373.556 301.539L374.337 301.193C374.736 301.061 375.163 301.034 375.576 301.115C375.862 301.102 376.146 301.167 376.399 301.302C376.825 301.417 377.213 301.644 377.522 301.961L378.085 302.646L378.434 303.429C378.569 303.827 378.599 304.252 378.522 304.664C378.519 305.094 378.404 305.514 378.19 305.885L377.913 306.441C377.336 307.551 376.201 308.259 374.947 308.291L374.064 308.207C373.464 308.064 372.912 307.763 372.466 307.334C372.105 307.03 371.832 306.634 371.675 306.189C371.455 305.794 371.341 305.35 371.345 304.9C371.295 303.649 371.921 302.47 372.984 301.813L373.024 301.85Z" fill="#D5E2E8"/>
<path d="M297.569 332.634C297.252 333.007 296.84 333.288 296.377 333.447C295.964 333.678 295.497 333.795 295.023 333.789C294.059 333.785 293.127 333.435 292.397 332.802L291.773 332.041C291.438 331.502 291.251 330.884 291.229 330.251L291.313 329.323C291.455 328.689 291.762 328.105 292.204 327.63C292.89 326.958 293.791 326.55 294.75 326.476C295.713 326.484 296.643 326.835 297.373 327.466L298 328.223C298.332 328.764 298.519 329.381 298.544 330.014L298.46 330.948C298.32 331.58 298.012 332.163 297.569 332.634V332.634Z" fill="#D5E2E8"/>
<path d="M175.74 440.085C173.327 442.672 169.285 438.908 171.701 436.318C174.117 433.727 178.159 437.491 175.74 440.085Z" fill="#D5E2E8"/>
<path d="M168.359 143.564C167.482 143.809 166.555 143.818 165.672 143.589C163.008 143.091 160.865 141.093 160.174 138.46L159.997 136.638C160.041 135.455 160.391 134.304 161.012 133.298L162.109 131.947C162.981 131.109 164.062 130.524 165.239 130.253C168.88 129.502 172.476 131.745 173.425 135.358L173.602 137.18C173.559 138.362 173.211 139.513 172.591 140.519L171.491 141.876C170.616 142.71 169.536 143.294 168.36 143.569L168.359 143.564Z" fill="#D5E2E8"/>
<path d="M150.305 177.855L150.358 177.843C150.514 177.77 150.674 177.708 150.838 177.656C151.289 177.432 151.794 177.34 152.296 177.388L152.353 177.375C152.527 177.382 152.699 177.412 152.865 177.465C153.534 177.58 154.162 177.866 154.691 178.294C155.118 178.589 155.462 178.99 155.691 179.457L156.069 180.458L156.174 181.519L156.001 182.537L155.583 183.464C155.332 183.916 154.969 184.293 154.528 184.559C154.274 184.804 153.958 184.975 153.615 185.053C153.302 185.224 152.948 185.307 152.591 185.293C152.249 185.375 151.89 185.363 151.554 185.256C151.041 185.214 150.547 185.037 150.122 184.744L149.336 184.1L148.728 183.264L148.35 182.268L148.244 181.203C148.242 180.682 148.372 180.171 148.624 179.716C148.725 179.39 148.908 179.095 149.155 178.861C149.447 178.43 149.845 178.084 150.31 177.854L150.305 177.855Z" fill="#D5E2E8"/>
<path d="M178.577 181.527C174.851 182.401 173.483 176.583 177.213 175.708C180.943 174.834 182.311 180.652 178.577 181.527Z" fill="#D5E2E8"/>
<path d="M190.064 159.44L190.504 158.647C190.849 158.086 191.403 157.687 192.042 157.537C192.682 157.39 193.354 157.502 193.913 157.848L194.657 158.372C195.132 158.697 195.532 159.122 195.829 159.616C196.07 160.01 196.199 160.463 196.201 160.926C196.268 161.215 196.257 161.516 196.17 161.799C196.161 162.09 196.075 162.372 195.921 162.617C195.689 163.14 195.323 163.592 194.861 163.927C194.523 164.22 194.114 164.418 193.675 164.503C193.098 164.623 192.501 164.603 191.933 164.446C191.388 164.269 190.895 163.961 190.495 163.549L189.982 162.845C189.75 162.454 189.625 162.01 189.619 161.556C189.55 161.267 189.561 160.965 189.651 160.682C189.683 160.249 189.829 159.833 190.073 159.475L190.064 159.44Z" fill="#D5E2E8"/>
<path d="M121.83 158.914C121.803 158.882 121.774 158.851 121.743 158.823L123.098 159.935C123.035 159.881 122.965 159.837 122.89 159.802L124.495 160.539C124.334 160.475 124.168 160.427 123.998 160.395L125.765 160.698C125.662 160.682 125.557 160.679 125.452 160.687C124.555 160.69 123.672 160.459 122.89 160.016C122.051 159.714 121.303 159.201 120.715 158.528L119.691 157.087C119.211 156.282 118.953 155.363 118.942 154.426C118.797 153.832 118.811 153.21 118.983 152.623C119.057 151.728 119.359 150.868 119.862 150.126L120.98 148.746C121.867 147.902 122.961 147.311 124.152 147.034C124.853 146.844 125.581 146.77 126.306 146.813L126.434 146.825L128.207 147.131C128.835 147.293 129.431 147.559 129.972 147.919C130.83 148.411 131.552 149.111 132.072 149.956C132.725 150.741 133.176 151.674 133.386 152.675L133.563 154.496C133.567 155.387 133.341 156.263 132.907 157.039C132.737 157.602 132.423 158.111 131.997 158.515C131.5 159.249 130.821 159.842 130.027 160.234L128.326 160.885L126.513 161.058C124.758 160.911 123.107 160.157 121.841 158.926L121.83 158.914Z" fill="#D5E2E8"/>
<path d="M125.477 185.252C122.709 185.901 121.692 181.58 124.464 180.93C127.236 180.28 128.245 184.603 125.477 185.252Z" fill="#D5E2E8"/>
<path d="M95.8806 171.311C93.5654 171.853 92.7134 168.239 95.033 167.695C97.3526 167.151 98.2003 170.767 95.8806 171.311Z" fill="#D5E2E8"/>
<path d="M333.429 239.741L333.628 239.326C333.858 238.912 334.193 238.565 334.598 238.321C334.967 237.999 335.415 237.781 335.896 237.691L336.87 237.598C337.502 237.625 338.116 237.814 338.654 238.148L339.013 238.432L339.819 239.086L340.442 239.941C340.722 240.417 340.875 240.958 340.884 241.51C340.949 242.214 340.833 242.923 340.546 243.568C340.442 243.903 340.254 244.205 340.001 244.446C339.815 244.748 339.553 244.994 339.241 245.16C338.834 245.52 338.336 245.762 337.802 245.86L336.719 245.965L335.68 245.785L334.735 245.354L333.932 244.695L333.31 243.84C333.027 243.367 332.874 242.827 332.869 242.276C332.786 241.924 332.798 241.556 332.902 241.211C332.947 240.685 333.125 240.179 333.42 239.743L333.429 239.741Z" fill="#D5E2E8"/>
<path d="M326.081 201.434C322.861 202.189 321.678 197.161 324.902 196.405C328.127 195.649 329.306 200.678 326.081 201.434Z" fill="#D5E2E8"/>
<path d="M309.518 220.642C305.34 221.621 303.806 215.097 307.989 214.116C312.171 213.136 313.723 219.656 309.518 220.642Z" fill="#D5E2E8"/>
<path d="M324.09 232.245C321.775 232.788 320.923 229.173 323.243 228.63C325.562 228.086 326.405 231.702 324.09 232.245Z" fill="#D5E2E8"/>
<path d="M291.14 257.369C286.171 258.534 284.343 250.774 289.321 249.608C294.298 248.441 296.118 256.202 291.14 257.369Z" fill="#D5E2E8"/>
<path d="M284.162 133.714L284.778 133.751L285.619 133.899C286.024 134.011 286.394 134.226 286.693 134.523C286.937 134.671 287.137 134.884 287.272 135.137C287.563 135.469 287.759 135.874 287.839 136.308L287.925 137.191L287.78 138.036C287.67 138.441 287.459 138.812 287.166 139.111C286.924 139.466 286.595 139.752 286.211 139.941L285.671 140.249C284.574 140.851 283.237 140.807 282.178 140.136L281.49 139.575C281.071 139.123 280.78 138.565 280.648 137.961C280.518 137.507 280.51 137.026 280.628 136.569C280.664 136.119 280.817 135.686 281.071 135.314C281.725 134.247 282.901 133.615 284.15 133.661L284.162 133.714Z" fill="#D5E2E8"/>
<path d="M204.337 117.317C203.866 117.45 203.367 117.455 202.894 117.329C202.422 117.29 201.969 117.129 201.578 116.86C200.78 116.32 200.2 115.51 199.945 114.578L199.85 113.599C199.872 112.965 200.06 112.347 200.395 111.809L200.98 111.085C201.451 110.637 202.031 110.323 202.662 110.173C203.606 109.997 204.582 110.159 205.42 110.631C206.216 111.173 206.794 111.982 207.049 112.913L207.149 113.891C207.123 114.525 206.936 115.142 206.604 115.681L206.015 116.411C205.547 116.859 204.967 117.172 204.337 117.317V117.317Z" fill="#D5E2E8"/>
<path d="M43.3235 138.827C39.879 139.635 38.614 134.258 42.0629 133.45C45.5117 132.641 46.7767 138.018 43.3235 138.827Z" fill="#D5E2E8"/>
</svg>
