<svg width="281" height="217" viewBox="0 0 281 217" fill="none" xmlns="http://www.w3.org/2000/svg">
<path d="M160.602 151.193C161.42 150.972 162.281 150.97 163.1 151.189C165.574 151.672 167.552 153.545 168.176 155.997L168.327 157.692C168.278 158.792 167.944 159.86 167.359 160.79L166.33 162.039C165.513 162.811 164.504 163.347 163.408 163.591C160.018 164.263 156.69 162.152 155.834 158.786L155.683 157.091C155.731 155.992 156.063 154.925 156.646 153.994L157.679 152.741C158.498 151.972 159.507 151.436 160.601 151.189L160.602 151.193Z" fill="#D5E2E8"/>
<path d="M177.632 119.44L177.583 119.452C177.438 119.517 177.288 119.574 177.136 119.622C176.714 119.827 176.245 119.909 175.779 119.86L175.726 119.872C175.564 119.865 175.404 119.835 175.25 119.785C174.629 119.673 174.047 119.403 173.558 119.001C173.163 118.723 172.846 118.349 172.637 117.913L172.292 116.979L172.202 115.992L172.371 115.046L172.766 114.188C173.002 113.77 173.343 113.422 173.754 113.177C173.992 112.951 174.287 112.795 174.607 112.725C174.899 112.568 175.229 112.493 175.56 112.509C175.879 112.435 176.213 112.449 176.525 112.55C177.001 112.594 177.459 112.761 177.852 113.037L178.578 113.642L179.138 114.423L179.482 115.352L179.572 116.343C179.571 116.827 179.446 117.301 179.209 117.722C179.113 118.025 178.941 118.297 178.709 118.514C178.435 118.912 178.062 119.231 177.628 119.441L177.632 119.44Z" fill="#D5E2E8"/>
<path d="M151.374 115.825C154.844 115.039 156.075 120.458 152.601 121.244C149.127 122.031 147.896 116.612 151.374 115.825Z" fill="#D5E2E8"/>
<path d="M140.536 136.278L140.122 137.012C139.797 137.531 139.28 137.899 138.684 138.033C138.088 138.165 137.464 138.056 136.946 137.731L136.258 137.238C135.819 136.932 135.451 136.535 135.178 136.073C134.957 135.705 134.84 135.283 134.841 134.853C134.781 134.583 134.793 134.303 134.877 134.041C134.887 133.771 134.969 133.509 135.114 133.282C135.334 132.798 135.677 132.38 136.109 132.072C136.425 131.802 136.807 131.62 137.215 131.545C137.752 131.438 138.307 131.46 138.835 131.61C139.34 131.779 139.796 132.069 140.166 132.455L140.637 133.113C140.85 133.478 140.963 133.892 140.965 134.314C141.027 134.583 141.015 134.864 140.929 135.126C140.896 135.528 140.758 135.914 140.529 136.245L140.536 136.278Z" fill="#D5E2E8"/>
<path d="M203.971 137.255C203.996 137.286 204.022 137.314 204.051 137.341L202.799 136.297C202.857 136.347 202.922 136.389 202.991 136.422L201.504 135.725C201.653 135.786 201.808 135.832 201.966 135.863L200.325 135.569C200.421 135.584 200.519 135.588 200.616 135.581C201.45 135.584 202.269 135.806 202.993 136.223C203.771 136.51 204.463 136.992 205.005 137.622L205.946 138.969C206.386 139.721 206.62 140.577 206.624 141.448C206.754 142.002 206.737 142.58 206.573 143.124C206.498 143.956 206.21 144.754 205.738 145.44L204.688 146.715C203.858 147.493 202.836 148.034 201.727 148.284C201.074 148.455 200.397 148.519 199.723 148.474L199.604 148.462L197.958 148.165C197.375 148.009 196.823 147.757 196.322 147.419C195.528 146.956 194.862 146.3 194.385 145.511C193.783 144.776 193.371 143.905 193.183 142.973L193.031 141.278C193.033 140.45 193.25 139.637 193.659 138.919C193.821 138.397 194.117 137.926 194.515 137.554C194.983 136.874 195.618 136.328 196.359 135.969L197.946 135.377L199.633 135.228C201.263 135.378 202.792 136.09 203.96 137.245L203.971 137.255Z" fill="#D5E2E8"/>
<path d="M200.768 112.741C203.346 112.158 204.261 116.182 201.68 116.767C199.098 117.351 198.191 113.324 200.768 112.741Z" fill="#D5E2E8"/>
<path d="M228.185 125.915C230.341 125.427 231.108 128.794 228.947 129.283C226.787 129.772 226.024 126.404 228.185 125.915Z" fill="#D5E2E8"/>
<path d="M7.82292 60.5958L7.63456 60.9799C7.41771 61.3636 7.1045 61.6834 6.72609 61.9074C6.38083 62.2047 5.96258 62.4038 5.51457 62.4841L4.60784 62.564C4.02103 62.5343 3.45136 62.3536 2.95347 62.0393L2.62217 61.7728L1.87678 61.1592L1.30433 60.3594C1.04688 59.9152 0.909158 59.4115 0.904773 58.898C0.848986 58.2427 0.962208 57.5844 1.23352 56.9865C1.33276 56.6762 1.50936 56.3967 1.74657 56.1745C1.92121 55.8955 2.16673 55.6684 2.45792 55.5164C2.83935 55.1844 3.30359 54.9628 3.80111 54.8753L4.80885 54.7855L5.77328 54.9606L6.64828 55.3677L7.39052 55.9864L7.96296 56.7862C8.2229 57.2278 8.36055 57.7309 8.36159 58.2435C8.43595 58.5712 8.42272 58.9127 8.32324 59.2334C8.27797 59.722 8.10852 60.1905 7.8311 60.5939L7.82292 60.5958Z" fill="#D5E2E8"/>
<path d="M14.3801 96.2616C17.3794 95.5828 18.4435 100.266 15.4401 100.945C12.4366 101.625 11.3766 96.9414 14.3801 96.2616Z" fill="#D5E2E8"/>
<path d="M29.9162 78.5231C33.8075 77.6424 35.1871 83.7191 31.2917 84.6007C27.3962 85.4823 26.0003 79.4093 29.9162 78.5231Z" fill="#D5E2E8"/>
<path d="M16.4516 67.6314C18.608 67.1433 19.3742 70.5099 17.2137 70.9989C15.0532 71.4878 14.2951 68.1194 16.4516 67.6314Z" fill="#D5E2E8"/>
<path d="M47.2654 44.5095C51.8933 43.4621 53.5376 50.6892 48.9015 51.7385C44.2654 52.7877 42.6293 45.5587 47.2654 44.5095Z" fill="#D5E2E8"/>
<path d="M52.8681 159.522L52.2958 159.483L51.5149 159.34C51.1394 159.233 50.7973 159.03 50.5216 158.752C50.2952 158.612 50.1105 158.414 49.9872 158.177C49.7193 157.867 49.5402 157.489 49.4688 157.084L49.3946 156.262L49.5355 155.478C49.6406 155.102 49.8399 154.759 50.1145 154.483C50.3417 154.155 50.6496 153.892 51.0083 153.719L51.5122 153.436C52.5365 152.884 53.779 152.934 54.759 153.566L55.3943 154.092C55.7811 154.516 56.0475 155.037 56.1655 155.599C56.2839 156.022 56.2871 156.469 56.1746 156.894C56.1374 157.312 55.9924 157.712 55.7539 158.057C55.1376 159.045 54.0401 159.623 52.8793 159.572L52.8681 159.522Z" fill="#D5E2E8"/>
<path d="M126.966 175.338C127.405 175.217 127.868 175.217 128.308 175.337C128.746 175.376 129.166 175.53 129.527 175.783C130.266 176.29 130.799 177.047 131.029 177.916L131.11 178.827C131.085 179.417 130.906 179.989 130.591 180.487L130.042 181.156C129.601 181.569 129.059 181.857 128.472 181.991C127.593 182.149 126.687 181.992 125.91 181.547C125.175 181.037 124.643 180.28 124.412 179.413L124.327 178.503C124.355 177.914 124.534 177.342 124.846 176.843L125.399 176.168C125.837 175.755 126.378 175.469 126.966 175.338V175.338Z" fill="#D5E2E8"/>
<path d="M276.816 156.491C280.024 155.765 281.161 160.772 277.949 161.499C274.737 162.226 273.599 157.219 276.816 156.491Z" fill="#D5E2E8"/>
</svg>
