<svg width="113" height="24" viewBox="0 0 113 24" fill="none" xmlns="http://www.w3.org/2000/svg">
<path d="M32.2285 10.0919V7.11254C32.469 5.04167 33.7383 3.14447 36.1966 2.52989C37.0517 2.31613 37.8667 2.98415 37.8667 3.86594C37.8667 4.4538 37.4926 4.97485 36.9448 5.1619C36.063 5.45583 35.4752 6.13723 35.2614 7.11254H37.5594C38.3076 7.11254 38.9088 7.71376 38.9088 8.46194V8.48866C38.9088 9.23684 38.3076 9.83806 37.5594 9.83806H35.3415V17.841C35.3415 18.6961 34.6468 19.3908 33.7917 19.3908C32.9367 19.3908 32.2419 18.6961 32.2419 17.841V10.0919H32.2285Z" fill="#F8F8FA"/>
<path d="M42.5157 12.1894C42.5157 9.86473 43.9721 7.86065 46.4437 7.21934C47.3122 6.99222 48.1539 7.6736 48.1539 8.56875C48.1539 9.16997 47.7932 9.71775 47.2187 9.90479C46.2166 10.2254 45.5753 11.0939 45.5753 12.5635V17.881C45.5753 18.7227 44.8939 19.4041 44.0522 19.4041C43.2105 19.4041 42.5291 18.7227 42.5291 17.881V12.1894H42.5157Z" fill="#F8F8FA"/>
<path d="M54.4869 7.1123C55.342 7.1123 56.0233 7.80705 56.0233 8.64876L55.9966 17.8541C55.9966 18.7092 55.3019 19.3906 54.4602 19.3906C53.6051 19.3906 52.9237 18.6958 52.9237 17.8541L52.9504 8.64876C52.9371 7.80705 53.6318 7.1123 54.4869 7.1123Z" fill="#F8F8FA"/>
<path d="M60.8734 16.6117C61.2208 15.9971 61.9823 15.7833 62.5969 16.1173C63.3718 16.5182 64.2269 16.8388 65.0552 16.8388C65.6965 16.8388 66.8589 16.6785 66.8589 15.7967C66.8589 13.9663 60.8199 14.3805 60.8199 10.6395C60.8199 8.24802 63.0778 7.1792 65.1621 7.1792C66.2576 7.1792 67.4067 7.5132 68.422 8.00754C69.1302 8.35491 69.3974 9.23671 68.9832 9.91809C68.6224 10.5193 67.8609 10.7331 67.2329 10.4258C66.5516 10.0784 65.79 9.77112 65.122 9.77112C64.641 9.77112 63.9196 9.878 63.9196 10.4926C63.9196 12.3764 69.9585 11.6683 69.9585 15.7566C69.9585 18.3085 67.3265 19.404 65.0953 19.404C63.7592 19.404 62.5167 19.0166 61.341 18.4153C60.6997 18.0947 60.4726 17.2931 60.8199 16.6651L60.8734 16.6117Z" fill="#F8F8FA"/>
<path d="M73.6725 16.6117C74.0199 15.9971 74.7814 15.7833 75.396 16.1173C76.1709 16.5182 77.026 16.8388 77.8543 16.8388C78.4956 16.8388 79.658 16.6785 79.658 15.7967C79.658 13.9663 73.619 14.3805 73.619 10.6395C73.619 8.24802 75.877 7.1792 77.9612 7.1792C79.0568 7.1792 80.2058 7.5132 81.2212 8.00754C81.9293 8.35491 82.1965 9.23671 81.7823 9.91809C81.4216 10.5193 80.66 10.7331 80.0321 10.4258C79.3507 10.0784 78.5891 9.77112 77.9211 9.77112C77.4401 9.77112 76.7187 9.878 76.7187 10.4926C76.7187 12.3764 82.7576 11.6683 82.7576 15.7566C82.7576 18.3085 80.1256 19.404 77.8944 19.404C76.5851 19.404 75.3426 19.0166 74.1936 18.4421C73.5255 18.1081 73.2717 17.2931 73.6324 16.6518L73.6725 16.6117Z" fill="#F8F8FA"/>
<path d="M85.8839 13.285C85.8839 9.87806 88.5961 7.13916 92.003 7.13916C95.3832 7.13916 98.1221 9.87806 98.1221 13.285C98.1221 16.6652 95.3832 19.4308 91.9763 19.4308C88.5961 19.4308 85.8839 16.6652 85.8839 13.285ZM92.0297 16.5048C93.7265 16.5048 95.1427 15.1154 95.1427 13.3919C95.1427 11.6684 93.7265 10.2789 92.0297 10.2789C90.3062 10.2789 88.9167 11.6684 88.9167 13.3919C88.9167 15.1287 90.3062 16.5048 92.0297 16.5048Z" fill="#F8F8FA"/>
<path d="M101.636 12.2697C101.636 9.53083 103.921 7.16602 107.247 7.16602C110.601 7.16602 112.886 9.53083 112.886 12.2697V17.8678C112.886 18.7228 112.191 19.4042 111.349 19.4042C110.494 19.4042 109.813 18.7095 109.813 17.8678V12.724C109.813 10.8402 108.77 9.77131 107.261 9.77131C105.791 9.77131 104.736 10.8402 104.736 12.724V17.8678C104.736 18.7228 104.041 19.4042 103.199 19.4042C102.344 19.4042 101.663 18.7095 101.663 17.8678V12.2697H101.636Z" fill="#F8F8FA"/>
<path d="M11.9948 14.0667C11.9638 14.0667 11.9225 14.0667 11.8915 14.0667C11.8605 14.0667 11.8192 14.0667 11.7882 14.0564C11.7572 14.0564 11.7159 14.046 11.6849 14.046C11.6539 14.046 11.6126 14.0357 11.5816 14.0254C11.5506 14.0151 11.5196 14.0151 11.4783 14.0047C11.4473 13.9944 11.4163 13.9841 11.3853 13.9738C11.3543 13.9634 11.3233 13.9531 11.2923 13.9428C11.2613 13.9325 11.2303 13.9221 11.1993 13.9015C11.1683 13.8911 11.1373 13.8705 11.1063 13.8602C11.0753 13.8498 11.0443 13.8292 11.0133 13.8189C10.9823 13.7982 10.9513 13.7879 10.9204 13.7672C10.8894 13.7466 10.8584 13.7363 10.8377 13.7156C10.8067 13.695 10.786 13.6743 10.755 13.6536C10.7241 13.633 10.7034 13.6123 10.6724 13.5917C10.6414 13.571 10.6207 13.5504 10.6001 13.5297C10.5794 13.5091 10.5484 13.4781 10.5278 13.4575C10.5071 13.4368 10.4761 13.4058 10.4554 13.3852C10.4348 13.3645 10.4141 13.3335 10.3934 13.3026C10.3728 13.2716 10.3521 13.2509 10.3315 13.22C10.3108 13.189 10.2901 13.1683 10.2695 13.1374C10.2488 13.1064 10.2281 13.0754 10.2178 13.0547C10.1971 13.0238 10.1868 12.9928 10.1662 12.9618C10.1455 12.9308 10.1352 12.8999 10.1248 12.8689C10.1145 12.8379 10.0938 12.8069 10.0835 12.7759C10.0732 12.745 10.0628 12.714 10.0422 12.683C10.0318 12.652 10.0215 12.6211 10.0112 12.5901C10.0008 12.5591 9.99052 12.5281 9.98019 12.4971C9.96986 12.4662 9.95952 12.4352 9.95952 12.3939C9.94919 12.3629 9.94919 12.3319 9.93886 12.2906C9.92853 12.2597 9.92853 12.2184 9.92853 12.1874C9.92853 12.1564 9.9182 12.1151 9.9182 12.0841C9.9182 12.0531 9.9182 12.0118 9.9182 11.9809C9.9182 11.9499 9.9182 11.9086 9.9182 11.8776C9.9182 11.8466 9.9182 11.8053 9.92853 11.7743C9.92853 11.7434 9.93886 11.7021 9.93886 11.6711C9.93886 11.6401 9.94919 11.6091 9.95952 11.5678C9.96985 11.5368 9.96986 11.5059 9.98019 11.4646C9.99052 11.4336 10.0008 11.4026 10.0112 11.3716C10.0215 11.3406 10.0318 11.3097 10.0422 11.2787C10.0525 11.2477 10.0628 11.2167 10.0835 11.1858C10.0938 11.1548 10.1145 11.1238 10.1248 11.0928C10.1352 11.0618 10.1558 11.0309 10.1662 10.9999C10.1868 10.9689 10.1971 10.9379 10.2178 10.907C10.2385 10.876 10.2488 10.845 10.2695 10.8244C10.2901 10.7934 10.3108 10.7727 10.3315 10.7417C10.3521 10.7108 10.3728 10.6901 10.3934 10.6591C10.4141 10.6282 10.4348 10.6075 10.4554 10.5765C10.4761 10.5559 10.4968 10.5249 10.5278 10.5042C10.5484 10.4836 10.5794 10.4526 10.6001 10.432C10.6207 10.4113 10.6517 10.3907 10.6724 10.37C10.7034 10.3494 10.7241 10.3287 10.755 10.3081C10.786 10.2874 10.8067 10.2667 10.8377 10.2461C10.8687 10.2254 10.8997 10.2048 10.9204 10.1945C10.9513 10.1738 10.9823 10.1635 11.0133 10.1428C11.0443 10.1222 11.0753 10.1119 11.1063 10.1015C11.1373 10.0912 11.1683 10.0706 11.1993 10.0602C11.2303 10.0499 11.2613 10.0396 11.2923 10.0189C11.3233 10.0086 11.3543 9.99827 11.3853 9.98795C11.4163 9.97762 11.4473 9.9673 11.4783 9.95697C11.5092 9.94665 11.5402 9.93632 11.5816 9.93632C11.6126 9.92599 11.6436 9.926 11.6849 9.91567C11.7159 9.91567 11.7572 9.90534 11.7882 9.90534C11.8192 9.90534 11.8605 9.89502 11.8915 9.89502C11.9638 9.89502 12.0258 9.89502 12.0981 9.89502C12.1291 9.89502 12.1705 9.89502 12.2015 9.90534C12.2324 9.90534 12.2738 9.91567 12.3048 9.91567C12.3358 9.91567 12.3771 9.92599 12.4081 9.93632C12.4391 9.94665 12.4701 9.94665 12.5114 9.95697C12.5424 9.9673 12.5734 9.97762 12.6044 9.98795C12.6354 9.99827 12.6664 10.0086 12.6974 10.0189C12.7284 10.0293 12.7594 10.0396 12.7903 10.0602C12.8213 10.0706 12.8523 10.0912 12.8833 10.1015C12.9143 10.1119 12.9453 10.1325 12.9763 10.1428C13.0073 10.1635 13.0383 10.1738 13.0693 10.1945C13.1003 10.2151 13.1313 10.2254 13.1519 10.2461C13.1829 10.2667 13.2036 10.2874 13.2346 10.3081C13.2656 10.3287 13.2863 10.3494 13.3173 10.37C13.3482 10.3907 13.3689 10.4113 13.3896 10.432C13.4102 10.4526 13.4412 10.4836 13.4619 10.5042C13.4826 10.5249 13.5135 10.5559 13.5342 10.5765C13.5549 10.5972 13.5755 10.6282 13.5962 10.6591C13.6169 10.6901 13.6375 10.7108 13.6582 10.7417C13.6789 10.7727 13.6995 10.7934 13.7202 10.8244C13.7408 10.8553 13.7615 10.8863 13.7718 10.907C13.7925 10.9379 13.8028 10.9689 13.8235 10.9999C13.8442 11.0309 13.8545 11.0618 13.8648 11.0928C13.8752 11.1238 13.8958 11.1548 13.9061 11.1858C13.9165 11.2167 13.9268 11.2477 13.9475 11.2787C13.9578 11.3097 13.9681 11.3406 13.9785 11.3716C13.9888 11.4026 13.9991 11.4336 14.0095 11.4646C14.0198 11.4955 14.0301 11.5265 14.0301 11.5678C14.0405 11.5988 14.0405 11.6298 14.0508 11.6711C14.0508 11.7021 14.0611 11.7434 14.0611 11.7743C14.0611 11.8053 14.0714 11.8466 14.0714 11.8776C14.0714 11.9086 14.0714 11.9499 14.0714 11.9809C14.0714 12.0118 14.0714 12.0531 14.0714 12.0841C14.0714 12.1151 14.0714 12.1564 14.0611 12.1874C14.0611 12.2184 14.0508 12.2597 14.0508 12.2906C14.0508 12.3216 14.0405 12.3526 14.0301 12.3939C14.0198 12.4249 14.0198 12.4558 14.0095 12.4971C13.9991 12.5281 13.9888 12.5591 13.9785 12.5901C13.9681 12.6211 13.9578 12.652 13.9475 12.683C13.9371 12.714 13.9268 12.745 13.9061 12.7759C13.8958 12.8069 13.8752 12.8379 13.8648 12.8689C13.8545 12.8999 13.8338 12.9308 13.8235 12.9618C13.8028 12.9928 13.7925 13.0238 13.7718 13.0547C13.7512 13.0857 13.7408 13.1167 13.7202 13.1374C13.6995 13.1683 13.6789 13.189 13.6582 13.22C13.6375 13.2509 13.6169 13.2716 13.5962 13.3026C13.5755 13.3335 13.5549 13.3542 13.5342 13.3852C13.5135 13.4058 13.4826 13.4368 13.4619 13.4575C13.4412 13.4781 13.4102 13.5091 13.3896 13.5297C13.3689 13.5504 13.3379 13.571 13.3173 13.5917C13.2863 13.6123 13.2656 13.633 13.2346 13.6536C13.2036 13.6743 13.1829 13.695 13.1519 13.7156C13.121 13.7363 13.09 13.7569 13.0693 13.7672C13.0383 13.7879 13.0073 13.7982 12.9763 13.8189C12.9453 13.8395 12.9143 13.8498 12.8833 13.8602C12.8523 13.8705 12.8213 13.8911 12.7903 13.9015C12.7594 13.9118 12.7284 13.9221 12.6974 13.9428C12.6664 13.9531 12.6354 13.9634 12.6044 13.9738C12.5734 13.9841 12.5424 13.9944 12.5114 14.0047C12.4804 14.0151 12.4494 14.0254 12.4081 14.0254C12.3771 14.0357 12.3358 14.0357 12.3048 14.046C12.2738 14.046 12.2324 14.0564 12.2015 14.0564C12.1705 14.0564 12.1291 14.0667 12.0981 14.0667C12.0671 14.0667 12.0258 14.0667 11.9948 14.0667Z" fill="#F8F8FA"/>
<path d="M16.3134 13.6536C16.2824 13.6536 16.2617 13.6536 16.2307 13.6536C16.1997 13.6536 16.1791 13.6536 16.1481 13.6432C16.1171 13.6432 16.0964 13.6329 16.0654 13.6329C16.0344 13.6329 16.0138 13.6226 15.9828 13.6226C15.9518 13.6122 15.9311 13.6122 15.9001 13.6019C15.8691 13.5916 15.8484 13.5916 15.8175 13.5813C15.7968 13.5709 15.7658 13.5606 15.7451 13.5606C15.7245 13.5503 15.6935 13.54 15.6728 13.5296C15.6521 13.5193 15.6212 13.509 15.6005 13.4987C15.5798 13.4883 15.5488 13.478 15.5282 13.4574C15.5075 13.447 15.4765 13.4264 15.4559 13.4161C15.4352 13.4057 15.4042 13.3851 15.3835 13.3748C15.3629 13.3644 15.3422 13.3438 15.3215 13.3231C15.3009 13.3025 15.2802 13.2922 15.2596 13.2715C15.2389 13.2508 15.2182 13.2405 15.1976 13.2199C15.1769 13.1992 15.1562 13.1786 15.1356 13.1682C15.1149 13.1476 15.0942 13.1269 15.0839 13.1063C15.0633 13.0856 15.0426 13.065 15.0323 13.0443C15.0116 13.0237 15.0013 13.003 14.9806 12.9824C14.9599 12.9617 14.9496 12.9411 14.9289 12.9204C14.9186 12.8998 14.898 12.8791 14.8876 12.8481C14.8773 12.8275 14.8566 12.7965 14.8463 12.7758C14.836 12.7552 14.8256 12.7242 14.805 12.7036C14.7946 12.6829 14.7843 12.6519 14.774 12.6313C14.7636 12.6106 14.7533 12.5797 14.743 12.559C14.7326 12.5384 14.7223 12.5074 14.7223 12.4867C14.712 12.4557 14.712 12.4351 14.7017 12.4041C14.6913 12.3731 14.6913 12.3525 14.681 12.3215C14.6707 12.2905 14.6707 12.2699 14.6707 12.2389C14.6707 12.2079 14.6603 12.1873 14.6603 12.1563C14.6603 12.1253 14.6603 12.1047 14.65 12.0737C14.65 12.0427 14.65 12.0221 14.65 11.9911C14.65 11.9601 14.65 11.9395 14.65 11.9085C14.65 11.8775 14.65 11.8568 14.6603 11.8259C14.6603 11.7949 14.6707 11.7742 14.6707 11.7433C14.6707 11.7123 14.681 11.6916 14.681 11.6607C14.6913 11.6297 14.6913 11.609 14.7017 11.578C14.712 11.5471 14.712 11.5264 14.7223 11.4954C14.7326 11.4748 14.743 11.4438 14.743 11.4232C14.743 11.4025 14.7636 11.3715 14.774 11.3509C14.7843 11.3302 14.7946 11.2992 14.805 11.2786C14.8153 11.2579 14.8256 11.227 14.8463 11.2063C14.8566 11.1857 14.8773 11.1547 14.8876 11.134C14.898 11.1134 14.9186 11.0824 14.9289 11.0618C14.9393 11.0411 14.9599 11.0204 14.9806 10.9998C15.0013 10.9791 15.0116 10.9585 15.0323 10.9378C15.0529 10.9172 15.0633 10.8965 15.0839 10.8759C15.1046 10.8552 15.1252 10.8346 15.1356 10.8139C15.1562 10.7933 15.1769 10.7726 15.1976 10.7623C15.2182 10.7416 15.2389 10.721 15.2596 10.7107C15.2802 10.69 15.3009 10.6797 15.3215 10.659C15.3422 10.6384 15.3629 10.6281 15.3835 10.6074C15.4042 10.5971 15.4249 10.5764 15.4559 10.5661C15.4765 10.5558 15.5075 10.5351 15.5282 10.5248C15.5488 10.5145 15.5798 10.5042 15.6005 10.4835C15.6212 10.4732 15.6521 10.4628 15.6728 10.4525C15.6935 10.4422 15.7245 10.4319 15.7451 10.4215C15.7658 10.4112 15.7968 10.4009 15.8175 10.4009C15.8484 10.3906 15.8691 10.3906 15.9001 10.3802C15.9311 10.3699 15.9518 10.3699 15.9828 10.3596C16.0138 10.3493 16.0344 10.3493 16.0654 10.3493C16.0964 10.3493 16.1171 10.3389 16.1481 10.3389C16.1791 10.3389 16.1997 10.3389 16.2307 10.3286C16.2824 10.3286 16.3444 10.3286 16.396 10.3286C16.427 10.3286 16.4477 10.3286 16.4787 10.3389C16.5097 10.3389 16.5303 10.3493 16.5613 10.3493C16.5923 10.3493 16.613 10.3596 16.644 10.3596C16.675 10.3699 16.6956 10.3699 16.7266 10.3802C16.7576 10.3906 16.7783 10.3906 16.8093 10.4009C16.8299 10.4112 16.8609 10.4215 16.8816 10.4215C16.9023 10.4319 16.9333 10.4422 16.9539 10.4525C16.9746 10.4628 17.0056 10.4732 17.0262 10.4835C17.0469 10.4938 17.0779 10.5042 17.0986 10.5248C17.1192 10.5351 17.1502 10.5558 17.1709 10.5661C17.1915 10.5764 17.2122 10.5971 17.2432 10.6074C17.2639 10.6177 17.2845 10.6384 17.3052 10.659C17.3258 10.6797 17.3465 10.69 17.3672 10.7107C17.3878 10.7313 17.4085 10.7416 17.4292 10.7623C17.4498 10.7829 17.4705 10.8036 17.4911 10.8139C17.5118 10.8346 17.5325 10.8552 17.5428 10.8759C17.5635 10.8965 17.5841 10.9172 17.5945 10.9378C17.6151 10.9585 17.6255 10.9791 17.6461 10.9998C17.6668 11.0204 17.6771 11.0411 17.6978 11.0618C17.7081 11.0824 17.7288 11.1031 17.7391 11.134C17.7494 11.1547 17.7701 11.1857 17.7804 11.2063C17.7908 11.227 17.8011 11.2579 17.8218 11.2786C17.8321 11.2992 17.8424 11.3302 17.8527 11.3509C17.8631 11.3715 17.8734 11.4025 17.8837 11.4232C17.8941 11.4438 17.9044 11.4748 17.9044 11.4954C17.9147 11.5264 17.9147 11.5471 17.9251 11.578C17.9354 11.609 17.9354 11.6297 17.9457 11.6607C17.9561 11.6916 17.9561 11.7123 17.9561 11.7433C17.9561 11.7742 17.9664 11.7949 17.9664 11.8259C17.9664 11.8568 17.9664 11.8775 17.9767 11.9085C17.9767 11.9395 17.9767 11.9601 17.9767 11.9911C17.9767 12.0221 17.9767 12.0427 17.9767 12.0737C17.9767 12.1047 17.9767 12.1253 17.9664 12.1563C17.9664 12.1873 17.9561 12.2079 17.9561 12.2389C17.9561 12.2699 17.9457 12.2905 17.9457 12.3215C17.9354 12.3525 17.9354 12.3731 17.9251 12.4041C17.9147 12.4351 17.9147 12.4557 17.9044 12.4867C17.8941 12.5074 17.8837 12.5384 17.8837 12.559C17.8734 12.5797 17.8631 12.6106 17.8527 12.6313C17.8424 12.6519 17.8321 12.6829 17.8218 12.7036C17.8114 12.7242 17.8011 12.7552 17.7804 12.7758C17.7701 12.7965 17.7494 12.8275 17.7391 12.8481C17.7288 12.8688 17.7081 12.8998 17.6978 12.9204C17.6874 12.9411 17.6668 12.9617 17.6461 12.9824C17.6255 13.003 17.6151 13.0237 17.5945 13.0443C17.5738 13.065 17.5635 13.0856 17.5428 13.1063C17.5221 13.1269 17.5015 13.1476 17.4911 13.1682C17.4705 13.1889 17.4498 13.2095 17.4292 13.2199C17.4085 13.2405 17.3878 13.2612 17.3672 13.2715C17.3465 13.2922 17.3258 13.3025 17.3052 13.3231C17.2845 13.3438 17.2639 13.3541 17.2432 13.3748C17.2225 13.3851 17.2019 13.4057 17.1709 13.4161C17.1502 13.4264 17.1192 13.447 17.0986 13.4574C17.0779 13.4677 17.0469 13.478 17.0262 13.4987C17.0056 13.509 16.9746 13.5193 16.9539 13.5296C16.9333 13.54 16.9023 13.5503 16.8816 13.5606C16.8609 13.5709 16.8299 13.5813 16.8093 13.5813C16.7783 13.5916 16.7576 13.5916 16.7266 13.6019C16.6956 13.6122 16.675 13.6122 16.644 13.6226C16.613 13.6329 16.5923 13.6329 16.5613 13.6329C16.5303 13.6329 16.5097 13.6432 16.4787 13.6432C16.4477 13.6432 16.427 13.6432 16.396 13.6536C16.365 13.6536 16.334 13.6536 16.3134 13.6536Z" fill="#F8F8FA"/>
<path d="M7.68664 13.6535C7.65564 13.6535 7.63498 13.6535 7.60398 13.6535C7.57299 13.6535 7.55233 13.6535 7.52133 13.6432C7.49034 13.6432 7.46967 13.6328 7.43868 13.6328C7.40769 13.6328 7.38702 13.6225 7.35603 13.6225C7.32504 13.6122 7.30437 13.6122 7.27338 13.6019C7.24238 13.5915 7.22172 13.5915 7.19073 13.5812C7.17006 13.5709 7.13907 13.5606 7.1184 13.5606C7.09774 13.5502 7.06675 13.5399 7.04609 13.5296C7.02542 13.5193 6.99443 13.5089 6.97376 13.4986C6.9531 13.4883 6.92211 13.4779 6.90144 13.4573C6.88078 13.447 6.84979 13.4263 6.82912 13.416C6.80846 13.4057 6.77747 13.385 6.7568 13.3747C6.73614 13.3644 6.71548 13.3437 6.69481 13.3334C6.67415 13.3127 6.65349 13.3024 6.63283 13.2818C6.61216 13.2611 6.5915 13.2508 6.57084 13.2301C6.55017 13.2095 6.52951 13.1888 6.50885 13.1785C6.48819 13.1578 6.46752 13.1372 6.45719 13.1165C6.44686 13.0959 6.4262 13.0752 6.40553 13.0546C6.38487 13.0339 6.37454 13.0133 6.35388 12.9926C6.33321 12.972 6.32288 12.9513 6.30222 12.9307C6.29189 12.91 6.27123 12.8894 6.26089 12.8584C6.25056 12.8377 6.2299 12.8068 6.21957 12.7861C6.20924 12.7655 6.1989 12.7345 6.17824 12.7138C6.16791 12.6932 6.15758 12.6622 6.14725 12.6415C6.13692 12.6209 6.12659 12.5899 6.11625 12.5693C6.10592 12.5486 6.09559 12.5176 6.09559 12.497C6.08526 12.466 6.08526 12.4454 6.07493 12.4144C6.06459 12.3834 6.0646 12.3627 6.05426 12.3318C6.05426 12.3008 6.04393 12.2801 6.04393 12.2492C6.04393 12.2182 6.0336 12.1975 6.0336 12.1666C6.0336 12.1356 6.0336 12.1149 6.02327 12.0839C6.02327 12.053 6.02327 12.0323 6.02327 12.0013C6.02327 11.9704 6.02327 11.9497 6.02327 11.9187C6.02327 11.8878 6.02327 11.8671 6.0336 11.8361C6.0336 11.8051 6.04393 11.7845 6.04393 11.7535C6.04393 11.7225 6.05426 11.7019 6.05426 11.6709C6.0646 11.6399 6.06459 11.6193 6.07493 11.5883C6.08526 11.5573 6.08526 11.5367 6.09559 11.5057C6.10592 11.485 6.11625 11.4541 6.11625 11.4334C6.12659 11.4128 6.13692 11.3818 6.14725 11.3611C6.15758 11.3405 6.16791 11.3095 6.17824 11.2889C6.18857 11.2682 6.19891 11.2372 6.21957 11.2166C6.2299 11.1959 6.25056 11.1649 6.26089 11.1443C6.27123 11.1236 6.29189 11.0927 6.30222 11.072C6.31255 11.0514 6.33321 11.0307 6.35388 11.0101C6.37454 10.9894 6.38487 10.9688 6.40553 10.9481C6.4262 10.9274 6.43653 10.9068 6.45719 10.8861C6.47785 10.8655 6.49852 10.8448 6.50885 10.8242C6.52951 10.8035 6.55017 10.7829 6.57084 10.7726C6.5915 10.7519 6.61216 10.7313 6.63283 10.7209C6.65349 10.7003 6.67415 10.6899 6.69481 10.6693C6.71548 10.6486 6.73614 10.6383 6.7568 10.6177C6.77747 10.6073 6.79813 10.5867 6.82912 10.5764C6.84979 10.566 6.88078 10.5454 6.90144 10.5351C6.92211 10.5247 6.9531 10.5144 6.97376 10.4938C6.99443 10.4834 7.02542 10.4731 7.04609 10.4628C7.06675 10.4525 7.09774 10.4421 7.1184 10.4318C7.13907 10.4215 7.17006 10.4111 7.19073 10.4111C7.22172 10.4008 7.24238 10.4008 7.27338 10.3905C7.30437 10.3802 7.32504 10.3802 7.35603 10.3698C7.38702 10.3595 7.40769 10.3595 7.43868 10.3595C7.46967 10.3595 7.49034 10.3492 7.52133 10.3492C7.55233 10.3492 7.57299 10.3492 7.60398 10.3389C7.65564 10.3389 7.71763 10.3389 7.76929 10.3389C7.80028 10.3389 7.82094 10.3389 7.85194 10.3492C7.88293 10.3492 7.9036 10.3595 7.93459 10.3595C7.96558 10.3595 7.98625 10.3698 8.01724 10.3698C8.04824 10.3802 8.0689 10.3802 8.09989 10.3905C8.13089 10.4008 8.15155 10.4008 8.18255 10.4111C8.21354 10.4215 8.2342 10.4318 8.25487 10.4318C8.27553 10.4421 8.30652 10.4525 8.32719 10.4628C8.34785 10.4731 8.37884 10.4834 8.39951 10.4938C8.42017 10.5041 8.45116 10.5144 8.47183 10.5351C8.49249 10.5454 8.52349 10.566 8.54415 10.5764C8.56481 10.5867 8.58547 10.6073 8.61647 10.6177C8.63713 10.628 8.65779 10.6486 8.67846 10.6693C8.69912 10.6899 8.71978 10.7003 8.74045 10.7209C8.76111 10.7416 8.78177 10.7519 8.80244 10.7726C8.8231 10.7932 8.84376 10.8139 8.86442 10.8242C8.88508 10.8448 8.90575 10.8655 8.91608 10.8861C8.93674 10.9068 8.94707 10.9274 8.96774 10.9481C8.9884 10.9688 8.99873 10.9894 9.01939 11.0101C9.04006 11.0307 9.05039 11.0514 9.07105 11.072C9.08138 11.0927 9.10205 11.1133 9.11238 11.1443C9.12271 11.1649 9.14337 11.1959 9.1537 11.2166C9.16404 11.2372 9.17437 11.2682 9.19503 11.2889C9.20536 11.3095 9.21569 11.3405 9.22602 11.3611C9.23635 11.3818 9.24669 11.4128 9.25702 11.4334C9.26735 11.4541 9.27768 11.485 9.28801 11.5057C9.29834 11.5367 9.29835 11.5573 9.30868 11.5883C9.31901 11.6193 9.31901 11.6399 9.32934 11.6709C9.33967 11.7019 9.33967 11.7225 9.33967 11.7535C9.33967 11.7845 9.35 11.8051 9.35 11.8361C9.35 11.8671 9.35 11.8878 9.36033 11.9187C9.36033 11.9497 9.36033 11.9704 9.36033 12.0013C9.36033 12.0323 9.36033 12.053 9.36033 12.0839C9.36033 12.1149 9.36033 12.1356 9.35 12.1666C9.35 12.1975 9.33967 12.2182 9.33967 12.2492C9.33967 12.2801 9.32934 12.3008 9.32934 12.3318C9.31901 12.3627 9.31901 12.3834 9.30868 12.4144C9.29835 12.4454 9.29834 12.466 9.28801 12.497C9.27768 12.5176 9.26735 12.5486 9.25702 12.5693C9.24669 12.5899 9.23635 12.6209 9.22602 12.6415C9.21569 12.6622 9.20536 12.6932 9.19503 12.7138C9.1847 12.7345 9.17437 12.7655 9.1537 12.7861C9.13304 12.8068 9.12271 12.8377 9.11238 12.8584C9.10205 12.879 9.08138 12.8997 9.07105 12.9307C9.06072 12.9513 9.04006 12.972 9.01939 12.9926C8.99873 13.0133 8.9884 13.0339 8.96774 13.0546C8.94707 13.0752 8.93674 13.0959 8.91608 13.1165C8.89542 13.1372 8.87475 13.1578 8.86442 13.1785C8.84376 13.1991 8.8231 13.2198 8.80244 13.2301C8.78177 13.2508 8.76111 13.2714 8.74045 13.2818C8.71978 13.3024 8.69912 13.3127 8.67846 13.3334C8.65779 13.354 8.63713 13.3644 8.61647 13.3747C8.5958 13.385 8.57514 13.4057 8.54415 13.416C8.52349 13.4263 8.49249 13.447 8.47183 13.4573C8.45116 13.4676 8.42017 13.4779 8.39951 13.4986C8.37884 13.5089 8.34785 13.5193 8.32719 13.5296C8.30652 13.5399 8.27553 13.5502 8.25487 13.5606C8.2342 13.5709 8.20321 13.5812 8.18255 13.5812C8.16188 13.5915 8.13089 13.5915 8.09989 13.6019C8.0689 13.6122 8.04824 13.6122 8.01724 13.6225C7.98625 13.6328 7.96558 13.6328 7.93459 13.6328C7.9036 13.6328 7.88293 13.6432 7.85194 13.6432C7.82094 13.6432 7.80028 13.6432 7.76929 13.6535C7.73829 13.6535 7.7073 13.6535 7.68664 13.6535Z" fill="#F8F8FA"/>
<path d="M11.9948 9.34748C11.9638 9.34748 11.9432 9.34748 11.9122 9.34748C11.8812 9.34748 11.8605 9.34748 11.8295 9.33715C11.7985 9.33715 11.7779 9.32683 11.7469 9.32683C11.7159 9.32683 11.6952 9.3165 11.6642 9.3165C11.6332 9.30617 11.6126 9.30618 11.5816 9.29585C11.5506 9.28553 11.5299 9.28552 11.4989 9.2752C11.4679 9.26487 11.4473 9.25455 11.4266 9.25455C11.4059 9.24422 11.3749 9.2339 11.3543 9.22357C11.3336 9.21324 11.3026 9.20292 11.2819 9.19259C11.2613 9.18227 11.2303 9.17194 11.2096 9.15129C11.189 9.14096 11.158 9.12031 11.1373 9.10998C11.1166 9.09965 11.096 9.07901 11.065 9.06868C11.0443 9.05835 11.0237 9.0377 11.003 9.01705C10.9823 8.9964 10.9617 8.98607 10.941 8.96542C10.9203 8.94477 10.8997 8.93444 10.879 8.91379C10.8584 8.89314 10.8377 8.87249 10.817 8.86216C10.7964 8.84151 10.7757 8.82085 10.7654 8.8002C10.7447 8.77955 10.7344 8.7589 10.7137 8.73825C10.6931 8.7176 10.6827 8.69695 10.6621 8.6763C10.6414 8.65565 10.6311 8.63499 10.6104 8.61434C10.6001 8.59369 10.5794 8.57303 10.5691 8.54206C10.5587 8.5214 10.5381 8.49043 10.5278 8.46978C10.5174 8.44913 10.5071 8.41815 10.4864 8.3975C10.4761 8.37684 10.4658 8.34587 10.4554 8.32521C10.4451 8.30456 10.4348 8.27358 10.4244 8.25293C10.4141 8.23228 10.4038 8.2013 10.3934 8.18065C10.3831 8.14967 10.3831 8.12902 10.3728 8.09804C10.3624 8.06706 10.3624 8.04641 10.3521 8.01544C10.3418 7.98446 10.3418 7.96381 10.3418 7.93283C10.3418 7.90185 10.3315 7.8812 10.3315 7.85022C10.3315 7.81925 10.3315 7.79859 10.3211 7.76761C10.3211 7.73663 10.3211 7.71598 10.3211 7.68501C10.3211 7.65403 10.3211 7.63338 10.3211 7.6024C10.3211 7.57142 10.3211 7.55077 10.3315 7.51979C10.3315 7.48882 10.3418 7.46817 10.3418 7.43719C10.3418 7.40621 10.3521 7.38555 10.3521 7.35458C10.3624 7.3236 10.3624 7.30295 10.3728 7.27197C10.3831 7.24099 10.3831 7.22034 10.3934 7.18936C10.4038 7.15839 10.4141 7.13773 10.4244 7.11708C10.4348 7.09643 10.4451 7.06545 10.4554 7.0448C10.4658 7.02415 10.4761 6.99317 10.4864 6.97252C10.4968 6.95187 10.5071 6.92089 10.5278 6.90024C10.5381 6.87959 10.5587 6.84861 10.5691 6.82796C10.5794 6.8073 10.6001 6.78665 10.6104 6.75567C10.6207 6.73502 10.6414 6.71437 10.6621 6.69372C10.6827 6.67307 10.6931 6.65241 10.7137 6.63176C10.7344 6.61111 10.7447 6.59046 10.7654 6.56981C10.786 6.54916 10.8067 6.52851 10.817 6.50786C10.8377 6.4872 10.8584 6.46655 10.879 6.45623C10.8997 6.43557 10.9203 6.42525 10.941 6.4046C10.9617 6.38394 10.9823 6.37362 11.003 6.35297C11.0237 6.33232 11.0443 6.32199 11.065 6.30134C11.0857 6.29101 11.1063 6.27036 11.1373 6.26003C11.158 6.24971 11.189 6.22905 11.2096 6.21873C11.2303 6.2084 11.2613 6.19808 11.2819 6.17743C11.3026 6.1671 11.3336 6.15677 11.3543 6.14645C11.3749 6.13612 11.4059 6.12579 11.4266 6.11547C11.4473 6.10514 11.4782 6.09482 11.4989 6.08449C11.5196 6.07416 11.5506 6.07416 11.5816 6.06384C11.6126 6.05351 11.6332 6.05352 11.6642 6.04319C11.6952 6.03286 11.7159 6.03286 11.7469 6.03286C11.7779 6.03286 11.7985 6.02254 11.8295 6.02254C11.8605 6.02254 11.8812 6.02253 11.9122 6.01221C11.9638 6.01221 12.0258 6.01221 12.0775 6.01221C12.1085 6.01221 12.1291 6.01221 12.1601 6.02254C12.1911 6.02254 12.2118 6.03286 12.2428 6.03286C12.2738 6.03286 12.2944 6.04319 12.3254 6.04319C12.3564 6.05352 12.3771 6.05351 12.4081 6.06384C12.4391 6.07416 12.4597 6.07416 12.4907 6.08449C12.5114 6.09482 12.5424 6.10514 12.5631 6.11547C12.5837 6.12579 12.6147 6.13612 12.6354 6.14645C12.656 6.15677 12.687 6.1671 12.7077 6.17743C12.7284 6.18775 12.7593 6.19807 12.78 6.21873C12.8007 6.22905 12.8317 6.24971 12.8523 6.26003C12.873 6.27036 12.904 6.29101 12.9247 6.30134C12.9453 6.31166 12.966 6.33232 12.9866 6.35297C13.0073 6.37362 13.028 6.38394 13.0486 6.4046C13.0693 6.42525 13.09 6.43557 13.1106 6.45623C13.1313 6.47688 13.1519 6.49753 13.1726 6.50786C13.1933 6.52851 13.2139 6.54916 13.2243 6.56981C13.2449 6.59046 13.2656 6.61111 13.2759 6.63176C13.2966 6.65241 13.3069 6.67307 13.3276 6.69372C13.3482 6.71437 13.3586 6.73502 13.3792 6.75567C13.3896 6.77633 13.4102 6.79698 13.4206 6.82796C13.4309 6.84861 13.4516 6.87959 13.4619 6.90024C13.4722 6.92089 13.4826 6.95187 13.5032 6.97252C13.5135 6.99317 13.5239 7.02415 13.5342 7.0448C13.5445 7.06545 13.5549 7.09643 13.5652 7.11708C13.5755 7.13773 13.5859 7.16871 13.5859 7.18936C13.5962 7.21002 13.5962 7.24099 13.6065 7.27197C13.6169 7.30295 13.6169 7.3236 13.6272 7.35458C13.6375 7.38555 13.6375 7.40621 13.6375 7.43719C13.6375 7.46817 13.6479 7.48882 13.6479 7.51979C13.6479 7.55077 13.6479 7.57142 13.6582 7.6024C13.6582 7.63338 13.6582 7.65403 13.6582 7.68501C13.6582 7.71598 13.6582 7.73663 13.6582 7.76761C13.6582 7.79859 13.6582 7.81925 13.6479 7.85022C13.6479 7.8812 13.6375 7.90185 13.6375 7.93283C13.6375 7.96381 13.6272 7.98446 13.6272 8.01544C13.6272 8.04641 13.6169 8.06706 13.6065 8.09804C13.5962 8.12902 13.5962 8.14967 13.5859 8.18065C13.5755 8.2013 13.5652 8.23228 13.5652 8.25293C13.5549 8.27358 13.5445 8.30456 13.5342 8.32521C13.5239 8.34587 13.5135 8.37684 13.5032 8.3975C13.4929 8.41815 13.4825 8.44913 13.4619 8.46978C13.4516 8.49043 13.4309 8.5214 13.4206 8.54206C13.4102 8.56271 13.3896 8.59369 13.3792 8.61434C13.3689 8.63499 13.3482 8.65565 13.3276 8.6763C13.3069 8.69695 13.2966 8.7176 13.2759 8.73825C13.2553 8.7589 13.2449 8.77955 13.2243 8.8002C13.2036 8.82085 13.1829 8.84151 13.1726 8.86216C13.1519 8.88281 13.1313 8.90347 13.1106 8.91379C13.09 8.93444 13.0693 8.9551 13.0486 8.96542C13.028 8.98607 13.0073 8.9964 12.9866 9.01705C12.966 9.0377 12.9453 9.04803 12.9247 9.06868C12.904 9.07901 12.8833 9.09965 12.8523 9.10998C12.8317 9.12031 12.8007 9.14096 12.78 9.15129C12.7593 9.16161 12.7284 9.17194 12.7077 9.19259C12.687 9.20292 12.656 9.21324 12.6354 9.22357C12.6147 9.2339 12.5837 9.24422 12.5631 9.25455C12.5424 9.26487 12.5114 9.2752 12.4907 9.2752C12.4597 9.28552 12.4391 9.28553 12.4081 9.29585C12.3771 9.30618 12.3564 9.30617 12.3254 9.3165C12.2944 9.3165 12.2738 9.32683 12.2428 9.32683C12.2118 9.32683 12.1911 9.33715 12.1601 9.33715C12.1291 9.33715 12.1085 9.33716 12.0775 9.34748C12.0465 9.34748 12.0258 9.34748 11.9948 9.34748Z" fill="#F8F8FA"/>
<path d="M11.9948 17.9696C11.9638 17.9696 11.9432 17.9696 11.9122 17.9696C11.8812 17.9696 11.8605 17.9695 11.8295 17.9592C11.7985 17.9592 11.7779 17.9489 11.7469 17.9489C11.7159 17.9489 11.6952 17.9386 11.6642 17.9386C11.6332 17.9282 11.6126 17.9282 11.5816 17.9179C11.5506 17.9076 11.5299 17.9076 11.4989 17.8973C11.4679 17.8869 11.4473 17.8766 11.4266 17.8663C11.4059 17.856 11.3749 17.8456 11.3543 17.8353C11.3336 17.825 11.3026 17.8147 11.2819 17.8043C11.2613 17.794 11.2303 17.7837 11.2096 17.763C11.189 17.7527 11.158 17.7321 11.1373 17.7217C11.1166 17.7114 11.096 17.6907 11.065 17.6804C11.0443 17.6701 11.0237 17.6494 11.003 17.6288C10.9823 17.6081 10.9617 17.5978 10.941 17.5772C10.9203 17.5565 10.8997 17.5462 10.879 17.5255C10.8584 17.5049 10.8377 17.4842 10.817 17.4739C10.7964 17.4533 10.7757 17.4326 10.7654 17.4119C10.7447 17.3913 10.7344 17.3706 10.7137 17.35C10.6931 17.3293 10.6827 17.3087 10.6621 17.288C10.6414 17.2674 10.6311 17.2467 10.6104 17.2261C10.6001 17.2054 10.5794 17.1848 10.5691 17.1538C10.5587 17.1332 10.5381 17.1022 10.5278 17.0815C10.5174 17.0609 10.5071 17.0299 10.4864 17.0092C10.4761 16.9886 10.4658 16.9576 10.4554 16.937C10.4451 16.9163 10.4348 16.8853 10.4244 16.8647C10.4141 16.844 10.4038 16.813 10.3934 16.7924C10.3831 16.7717 10.3831 16.7408 10.3728 16.7098C10.3624 16.6788 10.3624 16.6582 10.3521 16.6272C10.3418 16.5962 10.3418 16.5755 10.3418 16.5446C10.3418 16.5136 10.3315 16.4929 10.3315 16.462C10.3315 16.431 10.3315 16.4103 10.3211 16.3794C10.3211 16.3484 10.3211 16.3277 10.3211 16.2968C10.3211 16.2658 10.3211 16.2451 10.3211 16.2141C10.3211 16.1832 10.3211 16.1625 10.3315 16.1315C10.3315 16.1006 10.3418 16.0799 10.3418 16.0489C10.3418 16.018 10.3521 15.9973 10.3521 15.9663C10.3624 15.9353 10.3624 15.9147 10.3728 15.8837C10.3831 15.8527 10.3831 15.8321 10.3934 15.8011C10.4038 15.7805 10.4141 15.7495 10.4244 15.7288C10.4348 15.7082 10.4451 15.6772 10.4554 15.6565C10.4658 15.6359 10.4761 15.6049 10.4864 15.5843C10.4968 15.5636 10.5071 15.5326 10.5278 15.512C10.5381 15.4913 10.5587 15.4604 10.5691 15.4397C10.5794 15.4191 10.6001 15.3881 10.6104 15.3674C10.6207 15.3468 10.6414 15.3261 10.6621 15.3055C10.6827 15.2848 10.6931 15.2642 10.7137 15.2435C10.7344 15.2229 10.7447 15.2022 10.7654 15.1816C10.786 15.1609 10.8067 15.1402 10.817 15.1196C10.8377 15.0989 10.8584 15.0783 10.879 15.068C10.8997 15.0473 10.9203 15.0267 10.941 15.0163C10.9617 14.9957 10.9823 14.9854 11.003 14.9647C11.0237 14.9441 11.0443 14.9337 11.065 14.9131C11.0857 14.9028 11.1063 14.8821 11.1373 14.8718C11.158 14.8615 11.189 14.8408 11.2096 14.8305C11.2303 14.8201 11.2613 14.8098 11.2819 14.7892C11.3026 14.7788 11.3336 14.7685 11.3543 14.7582C11.3749 14.7479 11.4059 14.7375 11.4266 14.7272C11.4473 14.7169 11.4782 14.7066 11.4989 14.7066C11.5196 14.6962 11.5506 14.6962 11.5816 14.6859C11.6126 14.6756 11.6332 14.6756 11.6642 14.6653C11.6952 14.6653 11.7159 14.6549 11.7469 14.6549C11.7779 14.6549 11.7985 14.6446 11.8295 14.6446C11.8605 14.6446 11.8812 14.6446 11.9122 14.6343C11.9638 14.6343 12.0258 14.6343 12.0775 14.6343C12.1085 14.6343 12.1291 14.6343 12.1601 14.6446C12.1911 14.6446 12.2118 14.6549 12.2428 14.6549C12.2738 14.6549 12.2944 14.6653 12.3254 14.6653C12.3564 14.6756 12.3771 14.6756 12.4081 14.6859C12.4391 14.6962 12.4597 14.6962 12.4907 14.7066C12.5114 14.7169 12.5424 14.7272 12.5631 14.7272C12.5837 14.7375 12.6147 14.7479 12.6354 14.7582C12.656 14.7685 12.687 14.7788 12.7077 14.7892C12.7284 14.7995 12.7593 14.8098 12.78 14.8305C12.8007 14.8408 12.8317 14.8615 12.8523 14.8718C12.873 14.8821 12.904 14.9028 12.9247 14.9131C12.9453 14.9234 12.966 14.9441 12.9866 14.9647C13.0073 14.9854 13.028 14.9957 13.0486 15.0163C13.0693 15.037 13.09 15.0473 13.1106 15.068C13.1313 15.0886 13.1519 15.1093 13.1726 15.1196C13.1933 15.1402 13.2139 15.1609 13.2243 15.1816C13.2449 15.2022 13.2656 15.2229 13.2759 15.2435C13.2966 15.2642 13.3069 15.2848 13.3276 15.3055C13.3482 15.3261 13.3586 15.3468 13.3792 15.3674C13.3896 15.3881 13.4102 15.4087 13.4206 15.4397C13.4309 15.4604 13.4516 15.4913 13.4619 15.512C13.4722 15.5326 13.4826 15.5636 13.5032 15.5843C13.5239 15.6049 13.5239 15.6359 13.5342 15.6565C13.5445 15.6772 13.5549 15.7082 13.5652 15.7288C13.5755 15.7495 13.5859 15.7805 13.5859 15.8011C13.5962 15.8321 13.5962 15.8527 13.6065 15.8837C13.6169 15.9147 13.6169 15.9353 13.6272 15.9663C13.6375 15.9973 13.6375 16.018 13.6375 16.0489C13.6375 16.0799 13.6479 16.1006 13.6479 16.1315C13.6479 16.1625 13.6479 16.1832 13.6582 16.2141C13.6582 16.2451 13.6582 16.2658 13.6582 16.2968C13.6582 16.3277 13.6582 16.3484 13.6582 16.3794C13.6582 16.4103 13.6582 16.431 13.6479 16.462C13.6479 16.4929 13.6375 16.5136 13.6375 16.5446C13.6375 16.5755 13.6272 16.5962 13.6272 16.6272C13.6272 16.6582 13.6169 16.6788 13.6065 16.7098C13.5962 16.7408 13.5962 16.7614 13.5859 16.7924C13.5755 16.8234 13.5652 16.844 13.5652 16.8647C13.5549 16.8853 13.5445 16.9163 13.5342 16.937C13.5239 16.9576 13.5135 16.9886 13.5032 17.0092C13.4929 17.0299 13.4825 17.0609 13.4619 17.0815C13.4412 17.1022 13.4309 17.1332 13.4206 17.1538C13.4102 17.1745 13.3896 17.1951 13.3792 17.2261C13.3689 17.2467 13.3482 17.2674 13.3276 17.288C13.3069 17.3087 13.2966 17.3293 13.2759 17.35C13.2553 17.3706 13.2449 17.3913 13.2243 17.4119C13.2036 17.4326 13.1829 17.4533 13.1726 17.4739C13.1519 17.4946 13.1313 17.5152 13.1106 17.5255C13.09 17.5462 13.0693 17.5565 13.0486 17.5772C13.028 17.5978 13.0073 17.6081 12.9866 17.6288C12.966 17.6494 12.9453 17.6598 12.9247 17.6804C12.904 17.6907 12.8833 17.7114 12.8523 17.7217C12.8317 17.7321 12.8007 17.7527 12.78 17.763C12.7593 17.7734 12.7284 17.7837 12.7077 17.8043C12.687 17.8147 12.656 17.825 12.6354 17.8353C12.6147 17.8456 12.5837 17.856 12.5631 17.8663C12.5424 17.8766 12.5114 17.8869 12.4907 17.8973C12.4597 17.9076 12.4391 17.9076 12.4081 17.9179C12.3771 17.9282 12.3564 17.9282 12.3254 17.9386C12.2944 17.9489 12.2738 17.9489 12.2428 17.9489C12.2118 17.9489 12.1911 17.9592 12.1601 17.9592C12.1291 17.9592 12.1085 17.9592 12.0775 17.9696C12.0465 17.9696 12.0258 17.9696 11.9948 17.9696Z" fill="#F8F8FA"/>
<path d="M15.8898 9.34751C15.8485 9.34751 15.8072 9.34751 15.7659 9.33718C15.7245 9.33718 15.6832 9.32686 15.6419 9.31653C15.6006 9.3062 15.5592 9.29588 15.5282 9.28555C15.4869 9.27523 15.4456 9.26491 15.4146 9.24425C15.3733 9.23393 15.3423 9.21328 15.3009 9.19262C15.2699 9.17197 15.2286 9.15132 15.1976 9.13066C15.1666 9.11001 15.1253 9.07903 15.0943 9.05838C15.0633 9.03773 15.0323 9.00675 15.0013 8.97578C14.9703 8.9448 14.9497 8.91382 14.9187 8.88285C14.898 8.85187 14.867 8.82089 14.8464 8.77959C14.8257 8.74861 14.805 8.70731 14.7844 8.67633C14.7637 8.64535 14.743 8.60404 14.7327 8.56274C14.7224 8.52144 14.7017 8.49046 14.6914 8.44916C14.6811 8.40785 14.6707 8.36655 14.6604 8.33557C14.6501 8.29426 14.6501 8.25297 14.6397 8.21166C14.6397 8.17036 14.6294 8.12905 14.6294 8.08775C14.6294 8.04645 14.6294 8.00514 14.6397 7.96384C14.6397 7.92253 14.6501 7.88123 14.6604 7.83993C14.6707 7.79862 14.6811 7.75732 14.6914 7.72634C14.7017 7.68504 14.712 7.65406 14.7327 7.61275C14.7534 7.57145 14.7637 7.54048 14.7844 7.49917C14.805 7.46819 14.8257 7.42689 14.8464 7.39591C14.867 7.36493 14.898 7.33396 14.9187 7.29265C14.9497 7.26168 14.9703 7.2307 15.0013 7.19972C15.0323 7.16874 15.0633 7.14809 15.0943 7.11711C15.1253 7.09646 15.1563 7.06548 15.1976 7.04483C15.2286 7.02418 15.2699 7.00353 15.3009 6.98288C15.3319 6.96222 15.3733 6.94157 15.4146 6.93125C15.4559 6.92092 15.4869 6.90027 15.5282 6.88994C15.5696 6.87961 15.6109 6.86929 15.6419 6.85896C15.6832 6.84864 15.7245 6.84864 15.7659 6.83831C15.8485 6.82798 15.9312 6.82798 16.0138 6.83831C16.0551 6.83831 16.0965 6.84864 16.1378 6.85896C16.1791 6.86929 16.2204 6.87961 16.2514 6.88994C16.2928 6.90027 16.3341 6.92092 16.3651 6.93125C16.4064 6.9519 16.4374 6.96222 16.4787 6.98288C16.5097 7.00353 16.551 7.02418 16.582 7.04483C16.613 7.06548 16.6544 7.09646 16.6854 7.11711C16.7164 7.14809 16.7473 7.16874 16.7783 7.19972C16.8093 7.2307 16.83 7.26168 16.861 7.29265C16.8817 7.32363 16.9126 7.35461 16.9333 7.39591C16.954 7.42689 16.9746 7.46819 16.9953 7.49917C17.016 7.53015 17.0366 7.57145 17.047 7.61275C17.0573 7.65406 17.078 7.68504 17.0883 7.72634C17.0986 7.76765 17.1089 7.80895 17.1193 7.83993C17.1296 7.88123 17.1296 7.92253 17.1399 7.96384C17.1399 8.00514 17.1503 8.04645 17.1503 8.08775C17.1503 8.12905 17.1503 8.17036 17.1399 8.21166C17.1399 8.25297 17.1296 8.29426 17.1193 8.33557C17.1089 8.37687 17.0986 8.41818 17.0883 8.44916C17.078 8.49046 17.0676 8.52144 17.047 8.56274C17.0263 8.60404 17.016 8.63502 16.9953 8.67633C16.9746 8.70731 16.954 8.74861 16.9333 8.77959C16.9126 8.81057 16.8817 8.84154 16.861 8.88285C16.83 8.91382 16.8093 8.9448 16.7783 8.97578C16.7473 9.00675 16.7164 9.0274 16.6854 9.05838C16.6544 9.08936 16.6234 9.11001 16.582 9.13066C16.551 9.15132 16.5097 9.17197 16.4787 9.19262C16.4477 9.21328 16.4064 9.23393 16.3651 9.24425C16.3238 9.26491 16.2928 9.27523 16.2514 9.28555C16.2101 9.29588 16.1688 9.3062 16.1378 9.31653C16.0965 9.32686 16.0551 9.32686 16.0138 9.33718C15.9725 9.34751 15.9312 9.34751 15.8898 9.34751Z" fill="#F8F8FA"/>
<path d="M15.8898 17.1332C15.8485 17.1332 15.8072 17.1332 15.7659 17.1228C15.7245 17.1228 15.6832 17.1125 15.6419 17.1022C15.6006 17.0918 15.5592 17.0815 15.5282 17.0712C15.4869 17.0609 15.4456 17.0402 15.4146 17.0299C15.3733 17.0092 15.3423 16.9989 15.3009 16.9783C15.2699 16.9576 15.2286 16.937 15.1976 16.9163C15.1666 16.8957 15.1253 16.8647 15.0943 16.844C15.0633 16.813 15.0323 16.7924 15.0013 16.7614C14.9703 16.7304 14.9497 16.6995 14.9187 16.6685C14.898 16.6375 14.867 16.6065 14.8464 16.5652C14.8257 16.5342 14.805 16.4929 14.7844 16.462C14.7637 16.431 14.743 16.3897 14.7327 16.3484C14.7224 16.3071 14.7017 16.2761 14.6914 16.2348C14.6811 16.1935 14.6707 16.1522 14.6604 16.1212C14.6501 16.0799 14.6501 16.0386 14.6397 15.9973C14.6397 15.956 14.6294 15.9147 14.6294 15.8734C14.6294 15.8321 14.6294 15.7908 14.6397 15.7495C14.6397 15.7082 14.6501 15.6669 14.6604 15.6256C14.6707 15.5843 14.6811 15.543 14.6914 15.512C14.7017 15.4707 14.712 15.4397 14.7327 15.3984C14.7534 15.3571 14.7637 15.3261 14.7844 15.2848C14.805 15.2538 14.8257 15.2125 14.8464 15.1816C14.867 15.1506 14.898 15.1196 14.9187 15.0783C14.9497 15.0473 14.9703 15.0163 15.0013 14.9854C15.0323 14.9544 15.0633 14.9337 15.0943 14.9028C15.1253 14.8821 15.1563 14.8511 15.1976 14.8305C15.2286 14.8098 15.2699 14.7892 15.3009 14.7685C15.3319 14.7479 15.3733 14.7272 15.4146 14.7169C15.4559 14.6962 15.4869 14.6859 15.5282 14.6756C15.5696 14.6653 15.6109 14.6549 15.6419 14.6446C15.6832 14.6343 15.7245 14.6343 15.7659 14.624C15.8485 14.6136 15.9312 14.6136 16.0138 14.624C16.0551 14.624 16.0965 14.6343 16.1378 14.6446C16.1791 14.6549 16.2204 14.6653 16.2514 14.6756C16.2928 14.6859 16.3341 14.6962 16.3651 14.7169C16.4064 14.7272 16.4374 14.7479 16.4787 14.7685C16.5097 14.7892 16.551 14.8098 16.582 14.8305C16.613 14.8511 16.6544 14.8821 16.6854 14.9028C16.7164 14.9234 16.7473 14.9544 16.7783 14.9854C16.8093 15.0163 16.83 15.0473 16.861 15.0783C16.8817 15.1093 16.9126 15.1403 16.9333 15.1816C16.954 15.2125 16.9746 15.2538 16.9953 15.2848C17.016 15.3158 17.0366 15.3571 17.047 15.3984C17.0573 15.4397 17.078 15.4707 17.0883 15.512C17.0986 15.5533 17.1089 15.5946 17.1193 15.6256C17.1296 15.6669 17.1296 15.7082 17.1399 15.7495C17.1399 15.7908 17.1503 15.8321 17.1503 15.8734C17.1503 15.9147 17.1503 15.956 17.1399 15.9973C17.1399 16.0386 17.1296 16.0799 17.1193 16.1212C17.1089 16.1625 17.0986 16.2038 17.0883 16.2348C17.078 16.2761 17.0676 16.3071 17.047 16.3484C17.0263 16.3897 17.016 16.4207 16.9953 16.462C16.9746 16.4929 16.954 16.5342 16.9333 16.5652C16.9126 16.5962 16.8817 16.6272 16.861 16.6685C16.83 16.6995 16.8093 16.7304 16.7783 16.7614C16.7473 16.7924 16.7164 16.813 16.6854 16.844C16.6544 16.8647 16.6234 16.8957 16.582 16.9163C16.551 16.937 16.5097 16.9576 16.4787 16.9783C16.4477 16.9989 16.4064 17.0196 16.3651 17.0299C16.3238 17.0402 16.2928 17.0609 16.2514 17.0712C16.2101 17.0815 16.1688 17.0918 16.1378 17.1022C16.0965 17.1125 16.0551 17.1125 16.0138 17.1228C15.9725 17.1332 15.9312 17.1332 15.8898 17.1332Z" fill="#F8F8FA"/>
<path d="M8.09988 9.34751C8.05856 9.34751 8.01723 9.34751 7.97591 9.33718C7.93458 9.33718 7.89326 9.32686 7.85193 9.31653C7.8106 9.3062 7.76928 9.29588 7.73828 9.28555C7.69696 9.27523 7.66596 9.26491 7.62464 9.24425C7.58331 9.23393 7.55232 9.21328 7.51099 9.19262C7.48 9.17197 7.43867 9.15132 7.40768 9.13066C7.37668 9.11001 7.34569 9.07903 7.30436 9.05838C7.27337 9.03773 7.24237 9.00675 7.21138 8.97578C7.18038 8.9448 7.15972 8.91382 7.12873 8.88285C7.10806 8.85187 7.07707 8.82089 7.05641 8.77959C7.03574 8.74861 7.01508 8.70731 6.99442 8.67633C6.97376 8.64535 6.95309 8.60404 6.94276 8.56274C6.9221 8.52144 6.91176 8.49046 6.90143 8.44916C6.8911 8.40785 6.88077 8.36655 6.87044 8.33557C6.86011 8.29426 6.86011 8.25297 6.84978 8.21166C6.84978 8.17036 6.83945 8.12905 6.83945 8.08775C6.83945 8.04645 6.83944 8.00514 6.84978 7.96384C6.84978 7.92253 6.86011 7.88123 6.87044 7.83993C6.88077 7.79862 6.8911 7.75732 6.90143 7.72634C6.91176 7.68504 6.9221 7.65406 6.94276 7.61275C6.95309 7.57145 6.97376 7.54048 6.99442 7.49917C7.01508 7.46819 7.03574 7.42689 7.05641 7.39591C7.07707 7.36493 7.10806 7.33396 7.12873 7.29265C7.14939 7.26168 7.18038 7.2307 7.21138 7.19972C7.24237 7.16874 7.27337 7.14809 7.30436 7.11711C7.33536 7.09646 7.36635 7.06548 7.40768 7.04483C7.43867 7.02418 7.48 7.00353 7.51099 6.98288C7.54199 6.96222 7.58331 6.94157 7.62464 6.93125C7.66596 6.92092 7.69696 6.90027 7.73828 6.88994C7.77961 6.87961 7.82094 6.86929 7.85193 6.85896C7.89326 6.84864 7.93458 6.84864 7.97591 6.83831C8.05856 6.82798 8.14121 6.82798 8.22386 6.83831C8.26519 6.83831 8.30651 6.84864 8.34784 6.85896C8.38916 6.86929 8.43049 6.87961 8.46149 6.88994C8.50281 6.90027 8.53381 6.92092 8.57513 6.93125C8.61646 6.9519 8.64745 6.96222 8.68878 6.98288C8.71977 7.00353 8.7611 7.02418 8.79209 7.04483C8.82309 7.06548 8.85408 7.09646 8.89541 7.11711C8.9264 7.14809 8.9574 7.16874 8.98839 7.19972C9.01939 7.2307 9.04005 7.26168 9.07104 7.29265C9.0917 7.32363 9.1227 7.35461 9.14336 7.39591C9.16403 7.42689 9.18469 7.46819 9.20535 7.49917C9.22602 7.53015 9.24668 7.57145 9.25701 7.61275C9.27767 7.65406 9.288 7.68504 9.29834 7.72634C9.30867 7.76765 9.319 7.80895 9.32933 7.83993C9.33966 7.88123 9.33966 7.92253 9.34999 7.96384C9.34999 8.00514 9.36032 8.04645 9.36032 8.08775C9.36032 8.12905 9.36032 8.17036 9.34999 8.21166C9.34999 8.25297 9.33966 8.29426 9.32933 8.33557C9.319 8.37687 9.30867 8.41818 9.29834 8.44916C9.288 8.49046 9.27767 8.52144 9.25701 8.56274C9.23635 8.60404 9.22602 8.63502 9.20535 8.67633C9.18469 8.70731 9.16403 8.74861 9.14336 8.77959C9.1227 8.81057 9.0917 8.84154 9.07104 8.88285C9.04005 8.91382 9.01939 8.9448 8.98839 8.97578C8.9574 9.00675 8.9264 9.0274 8.89541 9.05838C8.86441 9.08936 8.83342 9.11001 8.79209 9.13066C8.7611 9.15132 8.71977 9.17197 8.68878 9.19262C8.65778 9.21328 8.61646 9.23393 8.57513 9.24425C8.53381 9.26491 8.50281 9.27523 8.46149 9.28555C8.42016 9.29588 8.37883 9.3062 8.34784 9.31653C8.30651 9.32686 8.26519 9.32686 8.22386 9.33718C8.18254 9.34751 8.14121 9.34751 8.09988 9.34751Z" fill="#F8F8FA"/>
<path d="M8.09988 17.1332C8.05856 17.1332 8.01723 17.1332 7.97591 17.1228C7.93458 17.1228 7.89326 17.1125 7.85193 17.1022C7.8106 17.0918 7.76928 17.0815 7.73828 17.0712C7.69696 17.0609 7.66596 17.0402 7.62464 17.0299C7.58331 17.0092 7.55232 16.9989 7.51099 16.9783C7.48 16.9576 7.43867 16.937 7.40768 16.9163C7.37668 16.8957 7.34569 16.8647 7.30436 16.844C7.27337 16.813 7.24237 16.7924 7.21138 16.7614C7.18038 16.7304 7.15972 16.6995 7.12873 16.6685C7.10806 16.6375 7.07707 16.6065 7.05641 16.5652C7.03574 16.5342 7.01508 16.4929 6.99442 16.462C6.97376 16.431 6.95309 16.3897 6.94276 16.3484C6.9221 16.3071 6.91176 16.2761 6.90143 16.2348C6.8911 16.1935 6.88077 16.1522 6.87044 16.1212C6.86011 16.0799 6.86011 16.0386 6.84978 15.9973C6.84978 15.956 6.83945 15.9147 6.83945 15.8734C6.83945 15.8321 6.83944 15.7908 6.84978 15.7495C6.84978 15.7082 6.86011 15.6669 6.87044 15.6256C6.88077 15.5843 6.8911 15.543 6.90143 15.512C6.91176 15.4707 6.9221 15.4397 6.94276 15.3984C6.95309 15.3571 6.97376 15.3261 6.99442 15.2848C7.01508 15.2538 7.03574 15.2125 7.05641 15.1816C7.07707 15.1506 7.10806 15.1196 7.12873 15.0783C7.14939 15.0473 7.18038 15.0163 7.21138 14.9854C7.24237 14.9544 7.27337 14.9337 7.30436 14.9028C7.33536 14.8821 7.36635 14.8511 7.40768 14.8305C7.43867 14.8098 7.48 14.7892 7.51099 14.7685C7.54199 14.7479 7.58331 14.7272 7.62464 14.7169C7.66596 14.6962 7.69696 14.6859 7.73828 14.6756C7.77961 14.6653 7.82094 14.6549 7.85193 14.6446C7.89326 14.6343 7.93458 14.6343 7.97591 14.624C8.05856 14.6136 8.14121 14.6136 8.22386 14.624C8.26519 14.624 8.30651 14.6343 8.34784 14.6446C8.38916 14.6549 8.43049 14.6653 8.46149 14.6756C8.50281 14.6859 8.53381 14.6962 8.57513 14.7169C8.61646 14.7272 8.64745 14.7479 8.68878 14.7685C8.71977 14.7892 8.7611 14.8098 8.79209 14.8305C8.82309 14.8511 8.85408 14.8821 8.89541 14.9028C8.9264 14.9234 8.9574 14.9544 8.98839 14.9854C9.01939 15.0163 9.04005 15.0473 9.07104 15.0783C9.0917 15.1093 9.1227 15.1403 9.14336 15.1816C9.16403 15.2125 9.18469 15.2538 9.20535 15.2848C9.22602 15.3158 9.24668 15.3571 9.25701 15.3984C9.27767 15.4397 9.288 15.4707 9.29834 15.512C9.30867 15.5533 9.319 15.5946 9.32933 15.6256C9.33966 15.6669 9.33966 15.7082 9.34999 15.7495C9.34999 15.7908 9.36032 15.8321 9.36032 15.8734C9.36032 15.9147 9.36032 15.956 9.34999 15.9973C9.34999 16.0386 9.33966 16.0799 9.32933 16.1212C9.319 16.1625 9.30867 16.2038 9.29834 16.2348C9.288 16.2761 9.27767 16.3071 9.25701 16.3484C9.23635 16.3897 9.22602 16.4207 9.20535 16.462C9.18469 16.4929 9.16403 16.5342 9.14336 16.5652C9.1227 16.5962 9.0917 16.6272 9.07104 16.6685C9.04005 16.6995 9.01939 16.7304 8.98839 16.7614C8.9574 16.7924 8.9264 16.813 8.89541 16.844C8.86441 16.8647 8.83342 16.8957 8.79209 16.9163C8.7611 16.937 8.71977 16.9576 8.68878 16.9783C8.65778 16.9989 8.61646 17.0196 8.57513 17.0299C8.53381 17.0402 8.50281 17.0609 8.46149 17.0712C8.42016 17.0815 8.37883 17.0918 8.34784 17.1022C8.30651 17.1125 8.26519 17.1125 8.22386 17.1228C8.18254 17.1332 8.14121 17.1332 8.09988 17.1332Z" fill="#F8F8FA"/>
<path d="M19.8984 8.93479C19.8674 8.93479 19.8468 8.93479 19.8158 8.93479C19.7848 8.93479 19.7641 8.92446 19.7331 8.92446C19.6815 8.91414 19.6298 8.89348 19.5782 8.87283C19.5265 8.85218 19.4748 8.83153 19.4335 8.80055C19.4129 8.79022 19.3922 8.76957 19.3715 8.74892C19.3509 8.72827 19.3302 8.71794 19.3095 8.69729C19.2889 8.67664 19.2682 8.65599 19.2579 8.63534C19.2372 8.61469 19.2269 8.59404 19.2062 8.57339C19.1752 8.53208 19.1546 8.48045 19.1339 8.42882C19.1132 8.37719 19.0926 8.32556 19.0822 8.27393C19.0719 8.24295 19.0719 8.2223 19.0719 8.19133C19.0719 8.16035 19.0719 8.1397 19.0719 8.10872C19.0719 8.07774 19.0719 8.05708 19.0719 8.02611C19.0719 7.99513 19.0822 7.97448 19.0822 7.9435C19.0926 7.89187 19.1132 7.84024 19.1339 7.78861C19.1546 7.73698 19.1752 7.68536 19.2062 7.64405C19.2166 7.6234 19.2372 7.60275 19.2579 7.58209C19.2785 7.56144 19.2889 7.54079 19.3095 7.52014C19.3302 7.49949 19.3509 7.47884 19.3715 7.46851C19.3922 7.44786 19.4129 7.43753 19.4335 7.41688C19.4748 7.3859 19.5265 7.36525 19.5782 7.3446C19.6298 7.32395 19.6815 7.3033 19.7331 7.29297C19.7641 7.28264 19.7848 7.28265 19.8158 7.28265C19.8674 7.27232 19.9294 7.27232 19.9811 7.28265C20.0121 7.28265 20.0327 7.29297 20.0637 7.29297C20.1154 7.3033 20.1671 7.32395 20.2187 7.3446C20.2704 7.36525 20.322 7.39623 20.3633 7.41688C20.384 7.42721 20.4047 7.44786 20.4253 7.46851C20.446 7.48916 20.4667 7.49949 20.4873 7.52014C20.6423 7.67503 20.7353 7.89188 20.7353 8.10872C20.7353 8.1397 20.7353 8.16035 20.7353 8.19133C20.7353 8.2223 20.7249 8.24295 20.7249 8.27393C20.7146 8.32556 20.694 8.37719 20.6733 8.42882C20.6526 8.48045 20.6216 8.53208 20.601 8.57339C20.5906 8.59404 20.57 8.61469 20.5493 8.63534C20.5287 8.65599 20.5183 8.67664 20.4977 8.69729C20.477 8.71794 20.4563 8.7386 20.4357 8.74892C20.415 8.76957 20.3943 8.7799 20.3737 8.80055C20.3324 8.83153 20.2807 8.85218 20.229 8.87283C20.1774 8.89348 20.1257 8.91414 20.0741 8.92446C20.0431 8.93479 20.0224 8.93479 19.9914 8.93479C19.9501 8.93479 19.9294 8.93479 19.8984 8.93479Z" fill="#F8F8FA"/>
<path d="M19.8984 16.7204C19.8674 16.7204 19.8468 16.7204 19.8158 16.7204C19.7848 16.7204 19.7641 16.7101 19.7331 16.7101C19.6815 16.6998 19.6298 16.6791 19.5782 16.6585C19.5265 16.6378 19.4748 16.6069 19.4335 16.5862C19.4129 16.5759 19.3922 16.5552 19.3715 16.5346C19.3509 16.5139 19.3302 16.5036 19.3095 16.4829C19.2889 16.4623 19.2682 16.4416 19.2579 16.421C19.2372 16.4003 19.2269 16.3797 19.2062 16.359C19.1752 16.3177 19.1546 16.2661 19.1339 16.2145C19.1132 16.1628 19.0926 16.1112 19.0822 16.0596C19.0719 16.0286 19.0719 16.0079 19.0719 15.977C19.0719 15.946 19.0719 15.9253 19.0719 15.8944C19.0719 15.8634 19.0719 15.8427 19.0719 15.8118C19.0719 15.7808 19.0822 15.7601 19.0822 15.7292C19.0926 15.6775 19.1132 15.6259 19.1339 15.5743C19.1546 15.5226 19.1752 15.471 19.2062 15.4297C19.2166 15.409 19.2372 15.3884 19.2579 15.3677C19.2785 15.3471 19.2889 15.3264 19.3095 15.3058C19.3302 15.2851 19.3509 15.2645 19.3715 15.2542C19.3922 15.2335 19.4129 15.2232 19.4335 15.2025C19.4748 15.1715 19.5265 15.1509 19.5782 15.1303C19.6298 15.1096 19.6815 15.0889 19.7331 15.0786C19.7641 15.0683 19.7848 15.0683 19.8158 15.0683C19.8674 15.058 19.9294 15.058 19.9811 15.0683C20.0121 15.0683 20.0327 15.0786 20.0637 15.0786C20.1154 15.0889 20.1671 15.1096 20.2187 15.1303C20.2704 15.1509 20.322 15.1715 20.3633 15.2025C20.384 15.2129 20.4047 15.2335 20.4253 15.2542C20.446 15.2748 20.4667 15.2851 20.4873 15.3058C20.508 15.3264 20.5286 15.3471 20.539 15.3677C20.5596 15.3884 20.57 15.409 20.5906 15.4297C20.6216 15.471 20.6423 15.5226 20.663 15.5743C20.6836 15.6259 20.7043 15.6775 20.7146 15.7292C20.7249 15.7601 20.7249 15.7808 20.7249 15.8118C20.7249 15.8427 20.7249 15.8634 20.7249 15.8944C20.7249 15.9253 20.7249 15.946 20.7249 15.977C20.7249 16.0079 20.7146 16.0286 20.7146 16.0596C20.7043 16.1112 20.6836 16.1628 20.663 16.2145C20.6423 16.2661 20.6113 16.3177 20.5906 16.359C20.5803 16.3797 20.5596 16.4003 20.539 16.421C20.5183 16.4416 20.508 16.4623 20.4873 16.4829C20.4667 16.5036 20.446 16.5242 20.4253 16.5346C20.4047 16.5552 20.384 16.5655 20.3633 16.5862C20.322 16.6172 20.2704 16.6378 20.2187 16.6585C20.1671 16.6791 20.1154 16.6998 20.0637 16.7101C20.0327 16.7204 20.0121 16.7204 19.9811 16.7204C19.9501 16.7204 19.9294 16.7204 19.8984 16.7204Z" fill="#F8F8FA"/>
<path d="M4.0913 8.93479C4.06031 8.93479 4.03965 8.93479 4.00865 8.93479C3.97766 8.93479 3.95699 8.92446 3.926 8.92446C3.87434 8.91414 3.82268 8.89348 3.77103 8.87283C3.71937 8.85218 3.66771 8.83153 3.62639 8.80055C3.60572 8.79022 3.58506 8.76957 3.5644 8.74892C3.54373 8.72827 3.52307 8.71794 3.50241 8.69729C3.48175 8.67664 3.46108 8.65599 3.45075 8.63534C3.43009 8.61469 3.41976 8.59404 3.39909 8.57339C3.3681 8.53208 3.34744 8.48045 3.32677 8.42882C3.30611 8.37719 3.28545 8.32556 3.27512 8.27393C3.26478 8.24295 3.26479 8.2223 3.26479 8.19133C3.26479 8.16035 3.26479 8.1397 3.26479 8.10872C3.26479 8.07774 3.26479 8.05708 3.26479 8.02611C3.26479 7.99513 3.27512 7.97448 3.27512 7.9435C3.28545 7.89187 3.30611 7.84024 3.32677 7.78861C3.34744 7.73698 3.3681 7.68536 3.39909 7.64405C3.40943 7.6234 3.43009 7.60275 3.45075 7.58209C3.47141 7.56144 3.48175 7.54079 3.50241 7.52014C3.52307 7.49949 3.54373 7.47884 3.5644 7.46851C3.58506 7.44786 3.60572 7.43753 3.62639 7.41688C3.66771 7.3859 3.71937 7.36525 3.77103 7.3446C3.82268 7.32395 3.87434 7.3033 3.926 7.29297C3.95699 7.28264 3.97766 7.28265 4.00865 7.28265C4.06031 7.27232 4.1223 7.27232 4.17395 7.28265C4.20495 7.28265 4.22561 7.29297 4.25661 7.29297C4.30826 7.3033 4.35992 7.32395 4.41158 7.3446C4.46324 7.36525 4.51489 7.39623 4.55622 7.41688C4.57688 7.42721 4.59754 7.44786 4.61821 7.46851C4.63887 7.48916 4.65953 7.49949 4.6802 7.52014C4.70086 7.54079 4.72152 7.56144 4.73185 7.58209C4.75252 7.60275 4.76285 7.6234 4.78351 7.64405C4.81451 7.68536 4.83517 7.73698 4.85583 7.78861C4.87649 7.84024 4.89716 7.89187 4.90749 7.9435C4.91782 7.97448 4.91782 7.99513 4.91782 8.02611C4.91782 8.05708 4.91782 8.07774 4.91782 8.10872C4.91782 8.1397 4.91782 8.16035 4.91782 8.19133C4.91782 8.2223 4.90749 8.24295 4.90749 8.27393C4.89716 8.32556 4.87649 8.37719 4.85583 8.42882C4.83517 8.48045 4.80417 8.52176 4.78351 8.57339C4.77318 8.59404 4.75252 8.61469 4.73185 8.63534C4.71119 8.65599 4.70086 8.67664 4.6802 8.69729C4.65953 8.71794 4.63887 8.7386 4.61821 8.74892C4.59754 8.76957 4.57688 8.7799 4.55622 8.80055C4.51489 8.83153 4.46324 8.85218 4.41158 8.87283C4.35992 8.89348 4.30826 8.91414 4.25661 8.92446C4.22561 8.93479 4.20495 8.93479 4.17395 8.93479C4.14296 8.93479 4.1223 8.93479 4.0913 8.93479Z" fill="#F8F8FA"/>
<path d="M4.0913 16.7202C4.06031 16.7202 4.03965 16.7202 4.00865 16.7202C3.97766 16.7202 3.95699 16.7099 3.926 16.7099C3.87434 16.6995 3.82268 16.6789 3.77103 16.6582C3.71937 16.6376 3.66771 16.6066 3.62639 16.586C3.60572 16.5756 3.58506 16.555 3.5644 16.5343C3.54373 16.5137 3.52307 16.5034 3.50241 16.4827C3.48175 16.462 3.46108 16.4414 3.45075 16.4207C3.43009 16.4001 3.41976 16.3794 3.39909 16.3588C3.3681 16.3175 3.34744 16.2659 3.32677 16.2142C3.30611 16.1626 3.28545 16.111 3.27512 16.0593C3.26478 16.0284 3.26479 16.0077 3.26479 15.9767C3.26479 15.9458 3.26479 15.9251 3.26479 15.8941C3.26479 15.8631 3.26479 15.8425 3.26479 15.8115C3.26479 15.7805 3.27512 15.7599 3.27512 15.7289C3.28545 15.6773 3.30611 15.6257 3.32677 15.574C3.34744 15.5224 3.3681 15.4708 3.39909 15.4295C3.40943 15.4088 3.43009 15.3882 3.45075 15.3675C3.47141 15.3469 3.48175 15.3262 3.50241 15.3055C3.52307 15.2849 3.54373 15.2642 3.5644 15.2539C3.58506 15.2333 3.60572 15.2229 3.62639 15.2023C3.66771 15.1713 3.71937 15.1507 3.77103 15.13C3.82268 15.1094 3.87434 15.0887 3.926 15.0784C3.95699 15.0681 3.97766 15.068 4.00865 15.068C4.25661 15.0474 4.50456 15.13 4.6802 15.3055C4.70086 15.3262 4.72152 15.3469 4.73185 15.3675C4.75252 15.3882 4.76285 15.4088 4.78351 15.4295C4.81451 15.4708 4.83517 15.5224 4.85583 15.574C4.87649 15.6257 4.89716 15.6773 4.90749 15.7289C4.91782 15.7599 4.91782 15.7805 4.91782 15.8115C4.91782 15.8425 4.91782 15.8631 4.91782 15.8941C4.91782 15.9251 4.91782 15.9458 4.91782 15.9767C4.91782 16.0077 4.90749 16.0284 4.90749 16.0593C4.89716 16.111 4.87649 16.1626 4.85583 16.2142C4.83517 16.2659 4.80417 16.3175 4.78351 16.3588C4.77318 16.3794 4.75252 16.4001 4.73185 16.4207C4.71119 16.4414 4.70086 16.462 4.6802 16.4827C4.65953 16.5034 4.63887 16.524 4.61821 16.5343C4.59754 16.555 4.57688 16.5653 4.55622 16.586C4.51489 16.6169 4.46324 16.6376 4.41158 16.6582C4.35992 16.6789 4.30826 16.6995 4.25661 16.7099C4.22561 16.7202 4.20495 16.7202 4.17395 16.7202C4.14296 16.7202 4.1223 16.7202 4.0913 16.7202Z" fill="#F8F8FA"/>
<path d="M16.1584 4.77317C16.1274 4.77317 16.1068 4.77317 16.0758 4.77317C16.0448 4.77317 16.0241 4.76285 15.9931 4.76285C15.9415 4.75252 15.8898 4.73187 15.8382 4.71122C15.7865 4.69057 15.7348 4.65959 15.6935 4.63894C15.6728 4.62861 15.6522 4.60796 15.6315 4.58731C15.6109 4.56665 15.5902 4.55633 15.5695 4.53568C15.5489 4.51502 15.5282 4.49438 15.5179 4.47372C15.4972 4.45307 15.4869 4.43242 15.4662 4.41176C15.4352 4.37046 15.4146 4.31884 15.3939 4.26721C15.3732 4.21558 15.3526 4.16395 15.3422 4.11232C15.3319 4.08134 15.3319 4.06069 15.3319 4.02971C15.3319 3.99873 15.3319 3.97808 15.3319 3.9471C15.3319 3.91612 15.3319 3.89547 15.3319 3.86449C15.3319 3.83351 15.3422 3.81286 15.3422 3.78189C15.3526 3.73026 15.3732 3.67863 15.3939 3.627C15.4146 3.57537 15.4352 3.52374 15.4662 3.48243C15.4766 3.46178 15.4972 3.44113 15.5179 3.42048C15.5385 3.39983 15.5489 3.37918 15.5695 3.35853C15.5902 3.33787 15.6109 3.31722 15.6315 3.3069C15.6522 3.28625 15.6728 3.27592 15.6935 3.25527C15.7348 3.22429 15.7865 3.20364 15.8382 3.18298C15.8898 3.16233 15.9415 3.14168 15.9931 3.13136C16.0241 3.12103 16.0448 3.12103 16.0758 3.12103C16.1274 3.1107 16.1894 3.1107 16.2411 3.12103C16.2721 3.12103 16.2927 3.13136 16.3237 3.13136C16.3754 3.14168 16.427 3.16233 16.4787 3.18298C16.5304 3.20364 16.582 3.22429 16.6233 3.25527C16.644 3.26559 16.6647 3.28625 16.6853 3.3069C16.706 3.32755 16.7267 3.33787 16.7473 3.35853C16.768 3.37918 16.7886 3.39983 16.799 3.42048C16.8196 3.44113 16.83 3.46178 16.8506 3.48243C16.8816 3.52374 16.9023 3.57537 16.923 3.627C16.9436 3.67863 16.9643 3.73026 16.9746 3.78189C16.9849 3.81286 16.9849 3.83351 16.9849 3.86449C16.9849 3.89547 16.9849 3.91612 16.9849 3.9471C16.9849 3.97808 16.9849 3.99873 16.9849 4.02971C16.9849 4.06069 16.9746 4.08134 16.9746 4.11232C16.9643 4.16395 16.9436 4.21558 16.923 4.26721C16.9023 4.31884 16.8816 4.37046 16.8506 4.41176C16.8403 4.43242 16.8196 4.45307 16.799 4.47372C16.7783 4.49438 16.768 4.51502 16.7473 4.53568C16.7267 4.55633 16.706 4.57698 16.6853 4.58731C16.6647 4.60796 16.644 4.61828 16.6233 4.63894C16.582 4.66991 16.5304 4.69057 16.4787 4.71122C16.427 4.73187 16.3754 4.75252 16.3237 4.76285C16.2927 4.77317 16.2721 4.77317 16.2411 4.77317C16.2101 4.77317 16.1791 4.77317 16.1584 4.77317Z" fill="#F8F8FA"/>
<path d="M7.83123 4.77293C7.80024 4.77293 7.77958 4.77293 7.74858 4.77293C7.71759 4.77293 7.69693 4.76261 7.66593 4.76261C7.61427 4.75228 7.56262 4.73163 7.51096 4.71098C7.4593 4.69032 7.40764 4.65935 7.36632 4.63869C7.34565 4.62837 7.32499 4.60772 7.30433 4.58706C7.28367 4.56641 7.263 4.55609 7.24234 4.53543C7.22168 4.51478 7.20101 4.49413 7.19068 4.47348C7.17002 4.45283 7.15969 4.43217 7.13903 4.41152C7.10803 4.37022 7.08737 4.31859 7.0667 4.26696C7.04604 4.21533 7.02538 4.1637 7.01505 4.11207C7.00472 4.0811 7.00471 4.06045 7.00471 4.02947C7.00471 3.99849 7.00471 3.97783 7.00471 3.94686C7.00471 3.91588 7.00471 3.89523 7.00471 3.86425C7.00471 3.83327 7.01505 3.81262 7.01505 3.78164C7.02538 3.73002 7.04604 3.67839 7.0667 3.62676C7.08737 3.57513 7.10803 3.52349 7.13903 3.48219C7.14936 3.46154 7.17002 3.44089 7.19068 3.42024C7.21135 3.39959 7.22168 3.37894 7.24234 3.35828C7.263 3.33763 7.28367 3.31698 7.30433 3.30666C7.32499 3.286 7.34565 3.27568 7.36632 3.25503C7.40764 3.22405 7.4593 3.20339 7.51096 3.18274C7.56262 3.16209 7.61427 3.14144 7.66593 3.13111C7.69693 3.12079 7.71759 3.12078 7.74858 3.12078C7.99654 3.10013 8.24449 3.18274 8.42013 3.35828C8.44079 3.37894 8.46145 3.39959 8.47178 3.42024C8.49245 3.44089 8.50278 3.46154 8.52344 3.48219C8.55444 3.52349 8.5751 3.57513 8.59576 3.62676C8.61643 3.67839 8.63709 3.73002 8.64742 3.78164C8.65775 3.81262 8.65775 3.83327 8.65775 3.86425C8.65775 3.89523 8.65775 3.91588 8.65775 3.94686C8.65775 3.97783 8.65775 3.99849 8.65775 4.02947C8.65775 4.06045 8.64742 4.0811 8.64742 4.11207C8.63709 4.1637 8.61643 4.21533 8.59576 4.26696C8.5751 4.31859 8.5441 4.37022 8.52344 4.41152C8.51311 4.43217 8.49245 4.45283 8.47178 4.47348C8.45112 4.49413 8.44079 4.51478 8.42013 4.53543C8.39946 4.55609 8.3788 4.57674 8.35814 4.58706C8.33747 4.60772 8.31681 4.61804 8.29615 4.63869C8.25482 4.66967 8.20317 4.69032 8.15151 4.71098C8.09985 4.73163 8.04819 4.75228 7.99654 4.76261C7.96554 4.77293 7.94488 4.77293 7.91389 4.77293C7.89322 4.77293 7.86223 4.77293 7.83123 4.77293Z" fill="#F8F8FA"/>
<path d="M16.1584 20.8816C16.1274 20.8816 16.1068 20.8816 16.0758 20.8816C16.0448 20.8816 16.0241 20.8712 15.9931 20.8712C15.9415 20.8609 15.8898 20.8403 15.8382 20.8196C15.7865 20.799 15.7348 20.7783 15.6935 20.7473C15.6728 20.737 15.6522 20.7164 15.6315 20.6957C15.6109 20.6751 15.5902 20.6647 15.5695 20.6441C15.5489 20.6234 15.5282 20.6028 15.5179 20.5821C15.4972 20.5615 15.4869 20.5408 15.4662 20.5202C15.4352 20.4789 15.4146 20.4272 15.3939 20.3756C15.3732 20.324 15.3526 20.2723 15.3422 20.2207C15.3319 20.1897 15.3319 20.1691 15.3319 20.1381C15.3319 20.1071 15.3319 20.0865 15.3319 20.0555C15.3319 20.0245 15.3319 20.0039 15.3319 19.9729C15.3319 19.9419 15.3422 19.9213 15.3422 19.8903C15.3526 19.8387 15.3732 19.787 15.3939 19.7354C15.4146 19.6838 15.4352 19.6321 15.4662 19.5908C15.4766 19.5702 15.4972 19.5495 15.5179 19.5289C15.5385 19.5082 15.5489 19.4876 15.5695 19.4669C15.5902 19.4463 15.6109 19.4256 15.6315 19.4153C15.6522 19.3946 15.6728 19.3843 15.6935 19.3637C15.7348 19.3327 15.7865 19.312 15.8382 19.2914C15.8898 19.2707 15.9415 19.2501 15.9931 19.2398C16.0241 19.2294 16.0448 19.2294 16.0758 19.2294C16.1274 19.2191 16.1894 19.2191 16.2411 19.2294C16.2721 19.2294 16.2927 19.2398 16.3237 19.2398C16.3754 19.2501 16.427 19.2707 16.4787 19.2914C16.5304 19.312 16.582 19.343 16.6233 19.3637C16.644 19.374 16.6647 19.3946 16.6853 19.4153C16.706 19.4359 16.7267 19.4463 16.7473 19.4669C16.768 19.4876 16.7886 19.5082 16.799 19.5289C16.8196 19.5495 16.83 19.5702 16.8506 19.5908C16.8816 19.6321 16.9023 19.6838 16.923 19.7354C16.9436 19.787 16.9643 19.8387 16.9746 19.8903C16.9849 19.9213 16.9849 19.9419 16.9849 19.9729C16.9849 20.0039 16.9849 20.0245 16.9849 20.0555C16.9849 20.0865 16.9849 20.1071 16.9849 20.1381C16.9849 20.1691 16.9746 20.1897 16.9746 20.2207C16.9643 20.2723 16.9436 20.324 16.923 20.3756C16.9023 20.4272 16.8816 20.4685 16.8506 20.5202C16.8403 20.5408 16.8196 20.5615 16.799 20.5821C16.7783 20.6028 16.768 20.6234 16.7473 20.6441C16.7267 20.6647 16.706 20.6854 16.6853 20.6957C16.6647 20.7164 16.644 20.7267 16.6233 20.7473C16.582 20.7783 16.5304 20.799 16.4787 20.8196C16.427 20.8403 16.3754 20.8609 16.3237 20.8712C16.2927 20.8816 16.2721 20.8816 16.2411 20.8816C16.2101 20.8712 16.1791 20.8816 16.1584 20.8816Z" fill="#F8F8FA"/>
<path d="M7.83123 20.8818C7.80024 20.8818 7.77958 20.8818 7.74858 20.8818C7.71759 20.8818 7.69693 20.8715 7.66593 20.8715C7.61427 20.8612 7.56262 20.8405 7.51096 20.8199C7.4593 20.7992 7.40764 20.7786 7.36632 20.7476C7.34565 20.7373 7.32499 20.7166 7.30433 20.696C7.28367 20.6753 7.263 20.665 7.24234 20.6443C7.22168 20.6237 7.20101 20.603 7.19068 20.5824C7.17002 20.5617 7.15969 20.5411 7.13903 20.5204C7.10803 20.4791 7.08737 20.4275 7.0667 20.3759C7.04604 20.3242 7.02538 20.2726 7.01505 20.221C7.00472 20.19 7.00471 20.1693 7.00471 20.1384C7.00471 20.1074 7.00471 20.0867 7.00471 20.0557C7.00471 20.0248 7.00471 20.0041 7.00471 19.9731C7.00471 19.9422 7.01505 19.9215 7.01505 19.8905C7.02538 19.8389 7.04604 19.7873 7.0667 19.7356C7.08737 19.684 7.10803 19.6324 7.13903 19.5911C7.14936 19.5704 7.17002 19.5498 7.19068 19.5291C7.21135 19.5085 7.22168 19.4878 7.24234 19.4672C7.263 19.4465 7.28367 19.4259 7.30433 19.4155C7.32499 19.3949 7.34565 19.3846 7.36632 19.3639C7.40764 19.3329 7.4593 19.3123 7.51096 19.2916C7.56262 19.271 7.61427 19.2503 7.66593 19.24C7.69693 19.2297 7.71759 19.2297 7.74858 19.2297C7.99654 19.209 8.24449 19.2916 8.42013 19.4672C8.44079 19.4878 8.46145 19.5085 8.47178 19.5291C8.49245 19.5498 8.50278 19.5704 8.52344 19.5911C8.55444 19.6324 8.5751 19.684 8.59576 19.7356C8.61643 19.7873 8.63709 19.8389 8.64742 19.8905C8.65775 19.9215 8.65775 19.9422 8.65775 19.9731C8.65775 20.0041 8.65775 20.0248 8.65775 20.0557C8.65775 20.0867 8.65775 20.1074 8.65775 20.1384C8.65775 20.1693 8.64742 20.19 8.64742 20.221C8.63709 20.2726 8.61643 20.3242 8.59576 20.3759C8.5751 20.4275 8.5441 20.4688 8.52344 20.5204C8.51311 20.5411 8.49245 20.5617 8.47178 20.5824C8.45112 20.603 8.44079 20.6237 8.42013 20.6443C8.39946 20.665 8.3788 20.6856 8.35814 20.696C8.33747 20.7166 8.31681 20.7269 8.29615 20.7476C8.25482 20.7786 8.20317 20.7992 8.15151 20.8199C8.09985 20.8405 8.04819 20.8612 7.99654 20.8715C7.96554 20.8818 7.94488 20.8818 7.91389 20.8818C7.89322 20.8715 7.86223 20.8818 7.83123 20.8818Z" fill="#F8F8FA"/>
<path d="M11.9948 21.7074C11.9535 21.7074 11.9122 21.7074 11.8708 21.697C11.8295 21.697 11.7882 21.6867 11.7469 21.6764C11.7055 21.6661 11.6642 21.6557 11.6332 21.6454C11.5919 21.6351 11.5609 21.6248 11.5196 21.6041C11.4782 21.5938 11.4472 21.5731 11.4059 21.5525C11.3749 21.5318 11.3336 21.5112 11.3026 21.4905C11.2716 21.4699 11.2406 21.4389 11.1993 21.4182C11.1683 21.3976 11.1373 21.3666 11.1063 21.3356C11.0753 21.3047 11.0547 21.2737 11.0237 21.2427C11.003 21.2117 10.972 21.1807 10.9513 21.1394C10.9307 21.1085 10.91 21.0672 10.8893 21.0362C10.8687 21.0052 10.848 20.9639 10.8377 20.9226C10.817 20.8813 10.8067 20.8503 10.7964 20.809C10.786 20.7677 10.7757 20.7264 10.7654 20.6954C10.755 20.6541 10.755 20.6128 10.7447 20.5715C10.7447 20.5302 10.7344 20.4889 10.7344 20.4476C10.7344 20.4063 10.7344 20.365 10.7447 20.3237C10.7447 20.2824 10.755 20.2411 10.7654 20.1998C10.7757 20.1585 10.786 20.1172 10.7964 20.0862C10.8067 20.0449 10.817 20.0139 10.8377 19.9726C10.8584 19.9313 10.8687 19.9003 10.8893 19.859C10.91 19.8281 10.9307 19.7868 10.9513 19.7558C10.972 19.7248 11.003 19.6938 11.0237 19.6525C11.0547 19.6215 11.0753 19.5906 11.1063 19.5596C11.1373 19.5286 11.1683 19.508 11.1993 19.477C11.2303 19.4563 11.2613 19.4253 11.3026 19.4047C11.3336 19.384 11.3749 19.3634 11.4059 19.3427C11.4369 19.3221 11.4782 19.3014 11.5196 19.2911C11.5609 19.2705 11.5919 19.2601 11.6332 19.2498C11.6745 19.2395 11.7159 19.2292 11.7469 19.2188C11.7882 19.2085 11.8295 19.2085 11.8708 19.1982C11.9535 19.1878 12.0361 19.1878 12.1188 19.1982C12.1601 19.1982 12.2014 19.2085 12.2428 19.2188C12.2841 19.2292 12.3254 19.2395 12.3564 19.2498C12.3977 19.2601 12.4287 19.2705 12.4701 19.2911C12.5114 19.3014 12.5424 19.3221 12.5837 19.3427C12.6147 19.3634 12.656 19.384 12.687 19.4047C12.718 19.4253 12.749 19.4563 12.7903 19.477C12.8213 19.508 12.8523 19.5286 12.8833 19.5596C12.9143 19.5906 12.935 19.6215 12.966 19.6525C12.997 19.6835 13.0176 19.7145 13.0383 19.7558C13.059 19.7868 13.0796 19.8281 13.1003 19.859C13.1209 19.89 13.1416 19.9313 13.1519 19.9726C13.1726 20.0139 13.1829 20.0449 13.1933 20.0862C13.2036 20.1275 13.2139 20.1688 13.2243 20.1998C13.2346 20.2411 13.2346 20.2824 13.2449 20.3237C13.2449 20.365 13.2553 20.4063 13.2553 20.4476C13.2553 20.4889 13.2553 20.5302 13.2449 20.5715C13.2449 20.6128 13.2346 20.6541 13.2243 20.6954C13.2139 20.7367 13.2036 20.778 13.1933 20.809C13.1829 20.8503 13.1726 20.8813 13.1519 20.9226C13.1416 20.9639 13.1209 20.9949 13.1003 21.0362C13.0796 21.0672 13.059 21.1085 13.0383 21.1394C13.0176 21.1704 12.9866 21.2014 12.966 21.2427C12.9453 21.2737 12.9143 21.3047 12.8833 21.3356C12.8523 21.3666 12.8213 21.3873 12.7903 21.4182C12.7593 21.4389 12.7283 21.4699 12.687 21.4905C12.656 21.5112 12.6147 21.5318 12.5837 21.5525C12.5527 21.5731 12.5114 21.5938 12.4701 21.6041C12.4287 21.6248 12.3977 21.6351 12.3564 21.6454C12.3151 21.6557 12.2738 21.6661 12.2428 21.6764C12.2014 21.6867 12.1601 21.6867 12.1188 21.697C12.0775 21.7074 12.0361 21.7074 11.9948 21.7074Z" fill="#F8F8FA"/>
<path d="M11.9948 4.77329C11.9535 4.77329 11.9122 4.77329 11.8708 4.76296C11.8295 4.76296 11.7882 4.75264 11.7469 4.74231C11.7055 4.73198 11.6642 4.72166 11.6332 4.71133C11.5919 4.70101 11.5609 4.69068 11.5196 4.67003C11.4782 4.6597 11.4472 4.63905 11.4059 4.6184C11.3749 4.59775 11.3336 4.5771 11.3026 4.55645C11.2716 4.53579 11.2406 4.50481 11.1993 4.48416C11.1683 4.45319 11.1373 4.43253 11.1063 4.40156C11.0753 4.37058 11.0547 4.3396 11.0237 4.30862C11.003 4.27764 10.972 4.24667 10.9513 4.20536C10.9307 4.17438 10.91 4.13308 10.8893 4.1021C10.8687 4.07113 10.848 4.02982 10.8377 3.98852C10.817 3.94722 10.8067 3.91624 10.7964 3.87494C10.786 3.83363 10.7757 3.79233 10.7654 3.76135C10.755 3.72005 10.755 3.67874 10.7447 3.63744C10.7447 3.59613 10.7344 3.55483 10.7344 3.51353C10.7344 3.47223 10.7344 3.43092 10.7447 3.38962C10.7447 3.34832 10.755 3.30701 10.7654 3.26571C10.7757 3.2244 10.786 3.1831 10.7964 3.15212C10.8067 3.11082 10.817 3.07984 10.8377 3.03854C10.8584 2.99723 10.8687 2.96626 10.8893 2.92495C10.91 2.89398 10.9307 2.85267 10.9513 2.82169C10.972 2.79072 11.003 2.75974 11.0237 2.71843C11.0547 2.68746 11.0753 2.65648 11.1063 2.6255C11.1373 2.59452 11.1683 2.57387 11.1993 2.54289C11.2303 2.51192 11.2613 2.49126 11.3026 2.47061C11.3336 2.44996 11.3749 2.42931 11.4059 2.40866C11.4369 2.38801 11.4782 2.36735 11.5196 2.35703C11.5609 2.33638 11.5919 2.32605 11.6332 2.31572C11.6745 2.3054 11.7159 2.29507 11.7469 2.28475C11.7882 2.27442 11.8295 2.27442 11.8708 2.26409C11.9535 2.25377 12.0361 2.25377 12.1188 2.26409C12.1601 2.26409 12.2014 2.27442 12.2428 2.28475C12.2841 2.29507 12.3254 2.3054 12.3564 2.31572C12.3977 2.32605 12.4287 2.33638 12.4701 2.35703C12.5114 2.36735 12.5424 2.38801 12.5837 2.40866C12.6147 2.42931 12.656 2.44996 12.687 2.47061C12.718 2.49126 12.749 2.52224 12.7903 2.54289C12.8317 2.56354 12.8523 2.59452 12.8833 2.6255C12.9143 2.65648 12.935 2.68746 12.966 2.71843C12.997 2.74941 13.0176 2.78039 13.0383 2.82169C13.059 2.85267 13.0796 2.89398 13.1003 2.92495C13.1209 2.95593 13.1416 2.99723 13.1519 3.03854C13.1726 3.07984 13.1829 3.11082 13.1933 3.15212C13.2036 3.19343 13.2139 3.23473 13.2243 3.26571C13.2346 3.30701 13.2346 3.34832 13.2449 3.38962C13.2449 3.43092 13.2553 3.47223 13.2553 3.51353C13.2553 3.55483 13.2553 3.59613 13.2449 3.63744C13.2449 3.67874 13.2346 3.72005 13.2243 3.76135C13.2139 3.80265 13.2036 3.84396 13.1933 3.87494C13.1829 3.91624 13.1726 3.94722 13.1519 3.98852C13.1416 4.02982 13.1209 4.0608 13.1003 4.1021C13.0796 4.13308 13.059 4.17438 13.0383 4.20536C13.0176 4.23634 12.9866 4.26732 12.966 4.30862C12.9453 4.3396 12.9143 4.37058 12.8833 4.40156C12.8523 4.43253 12.8213 4.45319 12.7903 4.48416C12.7593 4.50481 12.7283 4.53579 12.687 4.55645C12.656 4.5771 12.6147 4.59775 12.5837 4.6184C12.5527 4.63905 12.5114 4.6597 12.4701 4.67003C12.4287 4.69068 12.3977 4.70101 12.3564 4.71133C12.3151 4.72166 12.2738 4.73198 12.2428 4.74231C12.2014 4.75264 12.1601 4.75264 12.1188 4.76296C12.0775 4.77329 12.0361 4.77329 11.9948 4.77329Z" fill="#F8F8FA"/>
<path d="M20.4666 13.2406C20.4253 13.2406 20.384 13.2406 20.3426 13.2302C20.3013 13.2302 20.26 13.2199 20.2187 13.2096C20.1773 13.1993 20.136 13.1889 20.105 13.1786C20.0637 13.1683 20.0327 13.158 19.9914 13.1373C19.95 13.1167 19.919 13.1063 19.8777 13.0857C19.8467 13.065 19.8054 13.0444 19.7744 13.0237C19.7434 13.0031 19.7124 12.9721 19.6711 12.9514C19.6401 12.9205 19.6091 12.8998 19.5781 12.8688C19.5471 12.8379 19.5265 12.8069 19.4955 12.7759C19.4748 12.7449 19.4438 12.714 19.4231 12.6726C19.4025 12.6417 19.3818 12.6004 19.3611 12.5694C19.3405 12.5384 19.3198 12.4971 19.3095 12.4558C19.2888 12.4145 19.2785 12.3835 19.2682 12.3422C19.2578 12.3009 19.2475 12.2596 19.2372 12.2286C19.2268 12.1873 19.2268 12.146 19.2165 12.1047C19.2165 12.0634 19.2062 12.0221 19.2062 11.9808C19.2062 11.9395 19.2062 11.8982 19.2165 11.8569C19.2165 11.8156 19.2268 11.7743 19.2372 11.733C19.2475 11.6917 19.2578 11.6504 19.2682 11.6194C19.2785 11.5781 19.2888 11.5368 19.3095 11.5058C19.3198 11.4645 19.3405 11.4335 19.3611 11.3922C19.3818 11.3613 19.4025 11.32 19.4231 11.289C19.4438 11.258 19.4748 11.2167 19.4955 11.1857C19.5161 11.1547 19.5471 11.1238 19.5781 11.0928C19.6091 11.0618 19.6401 11.0412 19.6711 11.0102C19.7021 10.9895 19.7331 10.9585 19.7744 10.9379C19.8054 10.9172 19.8467 10.8966 19.8777 10.8759C19.9087 10.8553 19.95 10.8346 19.9914 10.8243C20.0327 10.814 20.0637 10.7933 20.105 10.783C20.1463 10.7727 20.1877 10.7624 20.2187 10.752C20.26 10.7417 20.3013 10.7417 20.3426 10.7314C20.4253 10.7211 20.5079 10.7211 20.5906 10.7314C20.6319 10.7314 20.6732 10.7417 20.7146 10.752C20.7559 10.7624 20.7972 10.7727 20.8282 10.783C20.8695 10.7933 20.9005 10.8037 20.9419 10.8243C20.9832 10.845 21.0142 10.8553 21.0555 10.8759C21.0968 10.8966 21.1278 10.9172 21.1588 10.9379C21.1898 10.9585 21.2208 10.9895 21.2621 11.0102C21.2931 11.0412 21.3241 11.0618 21.3551 11.0928C21.3861 11.1238 21.4068 11.1547 21.4378 11.1857C21.4584 11.2167 21.4894 11.2477 21.5101 11.289C21.5308 11.32 21.5514 11.3613 21.5721 11.3922C21.5927 11.4232 21.6134 11.4645 21.6237 11.5058C21.6341 11.5471 21.6547 11.5781 21.6651 11.6194C21.6754 11.6607 21.6857 11.702 21.6961 11.733C21.7064 11.7743 21.7064 11.8156 21.7167 11.8569C21.7167 11.8982 21.7271 11.9395 21.7271 11.9808C21.7271 12.0221 21.7271 12.0634 21.7167 12.1047C21.7167 12.146 21.7064 12.1873 21.6961 12.2286C21.6857 12.2699 21.6754 12.3112 21.6651 12.3422C21.6547 12.3835 21.6341 12.4248 21.6237 12.4558C21.6031 12.4971 21.5927 12.5281 21.5721 12.5694C21.5514 12.6004 21.5308 12.6417 21.5101 12.6726C21.4894 12.7036 21.4584 12.7449 21.4378 12.7759C21.4068 12.8069 21.3861 12.8379 21.3551 12.8688C21.3241 12.8998 21.2931 12.9205 21.2621 12.9514C21.2311 12.9721 21.2001 13.0031 21.1588 13.0237C21.1278 13.0444 21.0865 13.065 21.0555 13.0857C21.0245 13.1063 20.9832 13.127 20.9419 13.1373C20.9005 13.1476 20.8695 13.1683 20.8282 13.1786C20.7869 13.1889 20.7456 13.1993 20.7146 13.2096C20.6732 13.2199 20.6319 13.2199 20.5906 13.2302C20.5493 13.2406 20.5079 13.2406 20.4666 13.2406Z" fill="#F8F8FA"/>
<path d="M3.52301 13.2406C3.48169 13.2406 3.44036 13.2406 3.39903 13.2302C3.35771 13.2302 3.31638 13.2199 3.27506 13.2096C3.23373 13.1993 3.19241 13.1889 3.16141 13.1786C3.12009 13.1683 3.07876 13.158 3.04777 13.1373C3.00644 13.1167 2.97544 13.1063 2.93412 13.0857C2.90312 13.065 2.8618 13.0444 2.8308 13.0237C2.79981 13.0031 2.75848 12.9721 2.72749 12.9514C2.69649 12.9205 2.6655 12.8998 2.63451 12.8688C2.60351 12.8379 2.58285 12.8069 2.55185 12.7759C2.52086 12.7449 2.5002 12.714 2.47953 12.6726C2.45887 12.6417 2.43821 12.6004 2.41755 12.5694C2.39688 12.5384 2.37622 12.4971 2.36589 12.4558C2.35556 12.4145 2.33489 12.3835 2.32456 12.3422C2.31423 12.3009 2.3039 12.2596 2.29357 12.2286C2.28324 12.1873 2.28324 12.146 2.27291 12.1047C2.27291 12.0634 2.26257 12.0221 2.26257 11.9808C2.26257 11.9395 2.26257 11.8982 2.27291 11.8569C2.27291 11.8156 2.28324 11.7743 2.29357 11.733C2.3039 11.6917 2.31423 11.6504 2.32456 11.6194C2.33489 11.5781 2.34522 11.5368 2.36589 11.5058C2.38655 11.4645 2.39688 11.4335 2.41755 11.3922C2.43821 11.3613 2.45887 11.32 2.47953 11.289C2.5002 11.258 2.53119 11.2167 2.55185 11.1857C2.57252 11.1547 2.60351 11.1238 2.63451 11.0928C2.6655 11.0618 2.69649 11.0412 2.72749 11.0102C2.75848 10.9895 2.78948 10.9585 2.8308 10.9379C2.8618 10.9172 2.90312 10.8966 2.93412 10.8759C2.96511 10.8553 3.00644 10.8346 3.04777 10.8243C3.08909 10.814 3.12009 10.7933 3.16141 10.783C3.20274 10.7727 3.24406 10.7624 3.27506 10.752C3.31638 10.7417 3.35771 10.7417 3.39903 10.7314C3.48169 10.7211 3.56434 10.7211 3.64699 10.7314C3.68832 10.7314 3.72964 10.7417 3.77097 10.752C3.81229 10.7624 3.85362 10.7727 3.88462 10.783C3.92594 10.7933 3.95693 10.8037 3.99826 10.8243C4.03959 10.845 4.07058 10.8553 4.11191 10.8759C4.15323 10.8966 4.18423 10.9172 4.21522 10.9379C4.24622 10.9585 4.28754 10.9895 4.31854 11.0102C4.34953 11.0412 4.38052 11.0618 4.41152 11.0928C4.44251 11.1238 4.46318 11.1547 4.49417 11.1857C4.51483 11.2167 4.54583 11.2477 4.56649 11.289C4.58715 11.32 4.60782 11.3613 4.62848 11.3922C4.64914 11.4232 4.66981 11.4645 4.68014 11.5058C4.69047 11.5471 4.71113 11.5781 4.72146 11.6194C4.73179 11.6607 4.74213 11.702 4.75246 11.733C4.76279 11.7743 4.76279 11.8156 4.77312 11.8569C4.77312 11.8982 4.78345 11.9395 4.78345 11.9808C4.78345 12.0221 4.78345 12.0634 4.77312 12.1047C4.77312 12.146 4.76279 12.1873 4.75246 12.2286C4.74213 12.2699 4.73179 12.3112 4.72146 12.3422C4.71113 12.3835 4.7008 12.4248 4.68014 12.4558C4.65947 12.4971 4.64914 12.5281 4.62848 12.5694C4.60782 12.6004 4.58715 12.6417 4.56649 12.6726C4.54583 12.7036 4.51483 12.7449 4.49417 12.7759C4.46318 12.8069 4.44251 12.8379 4.41152 12.8688C4.38052 12.8998 4.34953 12.9205 4.31854 12.9514C4.28754 12.9721 4.25655 13.0031 4.21522 13.0237C4.18423 13.0444 4.1429 13.065 4.11191 13.0857C4.08091 13.1063 4.03959 13.127 3.99826 13.1373C3.95693 13.1476 3.92594 13.1683 3.88462 13.1786C3.84329 13.1889 3.80196 13.1993 3.77097 13.2096C3.72964 13.2199 3.68832 13.2199 3.64699 13.2302C3.60567 13.2406 3.56434 13.2406 3.52301 13.2406Z" fill="#F8F8FA"/>
<path d="M19.4852 20.0455C19.3715 20.0455 19.2682 20.0042 19.1959 19.9215C19.1236 19.8493 19.0719 19.7357 19.0719 19.6324C19.0719 19.5188 19.1132 19.4156 19.1959 19.3433C19.2889 19.2504 19.4335 19.1987 19.5678 19.2297C19.5988 19.24 19.6195 19.24 19.6505 19.2504C19.6711 19.2607 19.7021 19.271 19.7228 19.2917C19.7435 19.302 19.7641 19.3226 19.7848 19.3433C19.8571 19.4156 19.9088 19.5292 19.9088 19.6324C19.9088 19.7357 19.8674 19.8493 19.7848 19.9215C19.7021 20.0042 19.5885 20.0455 19.4852 20.0455Z" fill="#F8F8FA"/>
<path d="M4.50455 20.0453C4.47356 20.0453 4.4529 20.0453 4.4219 20.035C4.39091 20.0247 4.37024 20.0247 4.33925 20.0143C4.31859 20.004 4.28759 19.9937 4.26693 19.973C4.24627 19.9627 4.2256 19.9421 4.20494 19.9214C4.18428 19.9007 4.16361 19.8801 4.15328 19.8594C4.14295 19.8388 4.12229 19.8078 4.11196 19.7872C4.10163 19.7665 4.0913 19.7355 4.0913 19.7046C4.08096 19.6736 4.08096 19.6529 4.08096 19.622C4.08096 19.591 4.08096 19.5703 4.0913 19.5393C4.10163 19.5084 4.10163 19.4877 4.11196 19.4567C4.12229 19.4361 4.13262 19.4051 4.15328 19.3845C4.16361 19.3638 4.18428 19.3432 4.20494 19.3225C4.2256 19.3018 4.24627 19.2812 4.26693 19.2709C4.28759 19.2605 4.30826 19.2399 4.33925 19.2296C4.35991 19.2192 4.39091 19.2089 4.4219 19.2089C4.47356 19.1986 4.52522 19.1986 4.5872 19.2089C4.6182 19.2192 4.63886 19.2192 4.66986 19.2296C4.69052 19.2399 4.72151 19.2502 4.74218 19.2709C4.76284 19.2812 4.7835 19.3018 4.80417 19.3225C4.82483 19.3432 4.84549 19.3638 4.85582 19.3845C4.86615 19.4051 4.88682 19.4361 4.89715 19.4567C4.90748 19.4774 4.91781 19.5084 4.91781 19.5393C4.92814 19.5703 4.92814 19.591 4.92814 19.622C4.92814 19.6529 4.92814 19.6736 4.91781 19.7046C4.91781 19.7355 4.90748 19.7562 4.89715 19.7872C4.88682 19.8078 4.87649 19.8388 4.85582 19.8594C4.84549 19.8801 4.82483 19.9007 4.80417 19.9214C4.7835 19.9421 4.76284 19.9627 4.74218 19.973C4.72151 19.9834 4.69052 20.004 4.66986 20.0143C4.64919 20.0247 4.6182 20.035 4.5872 20.035C4.56654 20.0453 4.53555 20.0453 4.50455 20.0453Z" fill="#F8F8FA"/>
<path d="M19.4852 4.77334C19.3715 4.77334 19.2682 4.73204 19.1959 4.64943C19.1752 4.62878 19.1546 4.60813 19.1442 4.58747C19.1339 4.56682 19.1132 4.53584 19.1029 4.51519C19.0926 4.49454 19.0822 4.46356 19.0822 4.43259C19.0719 4.40161 19.0719 4.38096 19.0719 4.34998C19.0719 4.319 19.0719 4.29835 19.0822 4.26737C19.0926 4.2364 19.0926 4.21575 19.1029 4.18477C19.1132 4.16412 19.1236 4.13314 19.1442 4.11249C19.1546 4.09183 19.1752 4.07118 19.1959 4.05053C19.2166 4.02987 19.2372 4.00922 19.2579 3.9989C19.2785 3.98857 19.2992 3.96792 19.3302 3.9576C19.3509 3.94727 19.3819 3.93694 19.4129 3.93694C19.4645 3.92662 19.5162 3.92662 19.5782 3.93694C19.6092 3.94727 19.6298 3.94727 19.6608 3.9576C19.6815 3.96792 19.7125 3.97824 19.7331 3.9989C19.7538 4.00922 19.7745 4.02987 19.7951 4.05053C19.8158 4.07118 19.8364 4.09183 19.8468 4.11249C19.8571 4.13314 19.8778 4.16412 19.8881 4.18477C19.8984 4.20542 19.9088 4.2364 19.9088 4.26737C19.9191 4.29835 19.9191 4.319 19.9191 4.34998C19.9191 4.38096 19.9191 4.40161 19.9088 4.43259C19.9088 4.46356 19.8984 4.48421 19.8881 4.51519C19.8778 4.53584 19.8674 4.56682 19.8468 4.58747C19.8364 4.60813 19.8158 4.62878 19.7951 4.64943C19.7021 4.73204 19.5885 4.77334 19.4852 4.77334Z" fill="#F8F8FA"/>
<path d="M4.50448 4.77327C4.39083 4.77327 4.28751 4.73197 4.21519 4.64936C4.19453 4.62871 4.17387 4.60806 4.16354 4.58741C4.15321 4.56675 4.13254 4.53577 4.12221 4.51512C4.11188 4.49447 4.10155 4.46349 4.10155 4.43252C4.09122 4.40154 4.09122 4.38089 4.09122 4.34991C4.09122 4.23633 4.13254 4.13307 4.21519 4.06079C4.23586 4.04013 4.25652 4.01948 4.27718 4.00916C4.29785 3.99883 4.31851 3.97818 4.3495 3.96785C4.37017 3.95752 4.40116 3.9472 4.43215 3.9472C4.48381 3.93687 4.5458 3.93687 4.59746 3.9472C4.62845 3.95752 4.64912 3.95752 4.68011 3.96785C4.70077 3.97818 4.73177 3.9885 4.75243 4.00916C4.77309 4.01948 4.79376 4.04013 4.81442 4.06079C4.88674 4.13307 4.9384 4.24665 4.9384 4.34991C4.9384 4.38089 4.9384 4.40154 4.92807 4.43252C4.92807 4.46349 4.91773 4.48414 4.9074 4.51512C4.89707 4.53577 4.88674 4.56675 4.86608 4.58741C4.85575 4.60806 4.83508 4.62871 4.81442 4.64936C4.72144 4.73197 4.61812 4.77327 4.50448 4.77327Z" fill="#F8F8FA"/>
<path d="M11.9948 24C11.9432 24 11.8915 23.9794 11.8502 23.9381C11.8089 23.8968 11.7882 23.8451 11.7882 23.7935C11.7882 23.7419 11.8089 23.6902 11.8502 23.6489C11.9225 23.5767 12.0672 23.5767 12.1395 23.6489C12.1808 23.6902 12.2015 23.7419 12.2015 23.7935C12.2015 23.8451 12.1808 23.8968 12.1395 23.9381C12.1085 23.969 12.0465 24 11.9948 24Z" fill="#F8F8FA"/>
<path d="M16.1584 24.0001C16.1481 24.0001 16.1274 24.0001 16.1171 24.0001C16.1068 24.0001 16.0861 23.9897 16.0758 23.9897C16.0654 23.9897 16.0551 23.9794 16.0448 23.9691C16.0344 23.9588 16.0241 23.9484 16.0138 23.9381C15.9725 23.8968 15.9518 23.8452 15.9518 23.7935C15.9518 23.7832 15.9518 23.7626 15.9518 23.7522C15.9518 23.7419 15.9621 23.7213 15.9621 23.7109C15.9725 23.7006 15.9725 23.6903 15.9828 23.68C15.9931 23.6696 16.0035 23.6593 16.0035 23.649C16.0138 23.6387 16.0241 23.6283 16.0345 23.6283C16.0448 23.618 16.0551 23.618 16.0654 23.6077C16.0758 23.6077 16.0861 23.5974 16.1068 23.5974C16.1791 23.587 16.2411 23.6077 16.2927 23.649C16.3031 23.6593 16.3134 23.6696 16.3134 23.68C16.3237 23.6903 16.3237 23.7006 16.3341 23.7109C16.3341 23.7213 16.3444 23.7316 16.3444 23.7522C16.3444 23.7626 16.3444 23.7832 16.3444 23.7935C16.3444 23.8452 16.3237 23.8968 16.2824 23.9381C16.2617 23.9691 16.2101 24.0001 16.1584 24.0001Z" fill="#F8F8FA"/>
<path d="M7.83123 24C7.8209 24 7.80024 24 7.78991 24C7.77958 24 7.75891 23.9897 7.74858 23.9897C7.73825 23.9793 7.72792 23.9793 7.71759 23.969C7.70726 23.9587 7.69692 23.9484 7.68659 23.9484C7.64527 23.9071 7.6246 23.8554 7.6246 23.8038C7.6246 23.7935 7.6246 23.7728 7.6246 23.7625C7.6246 23.7522 7.63494 23.7315 7.63494 23.7212C7.63494 23.7109 7.64527 23.7005 7.6556 23.6902C7.66593 23.6799 7.67626 23.6696 7.68659 23.6592C7.69692 23.6489 7.70726 23.6386 7.71759 23.6386C7.72792 23.6283 7.73825 23.6283 7.74858 23.6179C7.75891 23.6179 7.76924 23.6076 7.78991 23.6076C7.86223 23.5973 7.92422 23.6179 7.97588 23.6592C7.98621 23.6696 7.99654 23.6799 8.00687 23.6902C8.0172 23.7005 8.0172 23.7109 8.02753 23.7212C8.03786 23.7315 8.03786 23.7418 8.03786 23.7625C8.03786 23.7728 8.03786 23.7935 8.03786 23.8038C8.03786 23.8554 8.0172 23.9071 7.97588 23.9484C7.94488 23.969 7.89322 24 7.83123 24Z" fill="#F8F8FA"/>
<path d="M23.6384 7.89174C23.628 7.89174 23.6074 7.89174 23.597 7.89174C23.5867 7.89174 23.566 7.88142 23.5557 7.88142C23.5454 7.88142 23.535 7.87109 23.5247 7.86077C23.5144 7.85044 23.5041 7.84012 23.4937 7.82979C23.4524 7.78849 23.4317 7.73685 23.4317 7.68522C23.4317 7.6749 23.4317 7.65425 23.4317 7.64392C23.4317 7.6336 23.4421 7.61294 23.4421 7.60262C23.4421 7.59229 23.4524 7.58197 23.4627 7.57164C23.4731 7.56132 23.4834 7.55099 23.4937 7.54066C23.5041 7.53034 23.5144 7.52001 23.5247 7.50968C23.535 7.49936 23.5454 7.49936 23.5557 7.48904C23.566 7.47871 23.5764 7.47871 23.597 7.47871C23.6694 7.46838 23.7313 7.48903 23.783 7.53034C23.7933 7.54066 23.8037 7.55099 23.814 7.56131C23.8243 7.57164 23.8243 7.58197 23.8347 7.59229C23.845 7.60262 23.845 7.61294 23.845 7.63359C23.845 7.64392 23.845 7.66457 23.845 7.6749C23.845 7.72653 23.8243 7.77816 23.783 7.81946C23.752 7.87109 23.7004 7.89174 23.6384 7.89174Z" fill="#F8F8FA"/>
<path d="M23.6384 16.5136C23.628 16.5136 23.6074 16.5136 23.597 16.5136C23.5867 16.5136 23.566 16.5032 23.5557 16.5032C23.5454 16.4929 23.535 16.4929 23.5247 16.4826C23.5144 16.4723 23.5041 16.4619 23.4937 16.4516C23.4834 16.4413 23.4731 16.431 23.4627 16.4206C23.4524 16.4103 23.4524 16.4 23.4421 16.3896C23.4317 16.3793 23.4317 16.369 23.4317 16.3483C23.4317 16.338 23.4317 16.3174 23.4317 16.307C23.4317 16.2967 23.4317 16.2761 23.4317 16.2657C23.4317 16.2554 23.4421 16.2348 23.4421 16.2244C23.4421 16.2141 23.4524 16.2038 23.4627 16.1935C23.4731 16.1831 23.4834 16.1728 23.4937 16.1625C23.5041 16.1522 23.5144 16.1418 23.5247 16.1315C23.535 16.1212 23.5454 16.1212 23.5557 16.1108C23.566 16.1005 23.5764 16.1005 23.597 16.1005C23.628 16.0902 23.6487 16.0902 23.6797 16.1005C23.69 16.1005 23.7107 16.1108 23.721 16.1108C23.7313 16.1108 23.7417 16.1212 23.752 16.1315C23.7623 16.1418 23.7727 16.1522 23.783 16.1625C23.7933 16.1728 23.8037 16.1831 23.814 16.1935C23.8243 16.2038 23.8243 16.2141 23.8347 16.2244C23.845 16.2348 23.845 16.2451 23.845 16.2657C23.845 16.2761 23.845 16.2967 23.845 16.307C23.845 16.3174 23.845 16.338 23.845 16.3483C23.845 16.3587 23.8347 16.3793 23.8347 16.3896C23.8347 16.4 23.8243 16.4103 23.814 16.4206C23.8037 16.431 23.7933 16.4413 23.783 16.4516C23.7727 16.4619 23.7623 16.4723 23.752 16.4826C23.7417 16.4929 23.7313 16.4929 23.721 16.5032C23.7107 16.5136 23.7004 16.5136 23.6797 16.5136C23.6694 16.5136 23.659 16.5136 23.6384 16.5136Z" fill="#F8F8FA"/>
<path d="M23.7934 12.1975C23.783 12.1975 23.7624 12.1975 23.7521 12.1975C23.7417 12.1975 23.7211 12.1872 23.7107 12.1872C23.7004 12.1768 23.6901 12.1768 23.6797 12.1665C23.6694 12.1562 23.6591 12.1459 23.6487 12.1459C23.6074 12.1046 23.5867 12.0529 23.5867 12.0013C23.5867 11.9497 23.6074 11.898 23.6487 11.8567C23.6591 11.8464 23.6694 11.8361 23.6797 11.8361C23.6901 11.8258 23.7004 11.8258 23.7107 11.8154C23.7211 11.8154 23.7314 11.8051 23.7521 11.8051C23.783 11.7948 23.8037 11.7948 23.8347 11.8051C23.845 11.8051 23.8657 11.8154 23.876 11.8154C23.8864 11.8258 23.8967 11.8258 23.907 11.8361C23.9174 11.8464 23.9277 11.8567 23.938 11.8567C23.9793 11.898 24 11.9497 24 12.0013C24 12.0529 23.9793 12.1046 23.938 12.1459C23.9277 12.1562 23.9174 12.1665 23.907 12.1665C23.8967 12.1768 23.8864 12.1768 23.876 12.1872C23.8657 12.1872 23.8554 12.1975 23.8347 12.1975C23.8244 12.1975 23.8037 12.1975 23.7934 12.1975Z" fill="#F8F8FA"/>
<path d="M16.1584 0.405288C16.1068 0.405288 16.0551 0.384639 16.0138 0.343335C15.9725 0.302032 15.9518 0.2504 15.9518 0.19877C15.9518 0.14714 15.9725 0.0955147 16.0138 0.054211C16.0964 -0.0180703 16.2307 -0.0180703 16.3031 0.054211C16.3444 0.0955147 16.3651 0.14714 16.3651 0.19877C16.3651 0.2504 16.3444 0.302032 16.3031 0.343335C16.2617 0.384639 16.2101 0.405288 16.1584 0.405288Z" fill="#F8F8FA"/>
<path d="M7.83123 0.405288C7.8209 0.405288 7.80024 0.405288 7.78991 0.405288C7.77958 0.405288 7.75891 0.394965 7.74858 0.394965C7.73825 0.384639 7.72792 0.384638 7.71759 0.374312C7.70726 0.363986 7.69692 0.353659 7.68659 0.353659C7.64527 0.312355 7.6246 0.260729 7.6246 0.2091C7.6246 0.198774 7.6246 0.17812 7.6246 0.167794C7.6246 0.157468 7.63494 0.136813 7.63494 0.126488C7.63494 0.116162 7.64527 0.105837 7.6556 0.0955111C7.66593 0.0851852 7.67626 0.0748605 7.68659 0.0645346C7.69692 0.0542087 7.70726 0.0438841 7.71759 0.0335581C7.72792 0.0232322 7.73825 0.023231 7.74858 0.0129051C7.75891 0.00257914 7.76924 0.00258166 7.78991 0.00258166C7.86223 -0.00774425 7.92422 0.0129051 7.97588 0.0645346C7.98621 0.0748605 7.99654 0.0851852 8.00687 0.0955111C8.0172 0.105837 8.0172 0.116162 8.02753 0.126488C8.03786 0.136813 8.03786 0.157468 8.03786 0.167794C8.03786 0.17812 8.03786 0.198774 8.03786 0.2091C8.03786 0.260729 8.0172 0.312355 7.97588 0.353659C7.94488 0.384637 7.89322 0.405288 7.83123 0.405288Z" fill="#F8F8FA"/>
<path d="M11.9948 0.405288C11.9432 0.405288 11.8915 0.384639 11.8502 0.343335C11.8399 0.333009 11.8295 0.322685 11.8192 0.312359C11.8089 0.302033 11.8089 0.291702 11.7985 0.281376C11.7882 0.27105 11.7882 0.260728 11.7882 0.240076C11.7882 0.22975 11.7882 0.209096 11.7882 0.19877C11.7882 0.188444 11.7882 0.167796 11.7882 0.15747C11.7882 0.147144 11.7985 0.12649 11.7985 0.116164C11.8089 0.105838 11.8089 0.0955134 11.8192 0.0851875C11.8295 0.0748616 11.8399 0.0645369 11.8502 0.054211C11.9225 -0.0180703 12.0672 -0.0180703 12.1395 0.054211C12.1498 0.0645369 12.1601 0.0748616 12.1705 0.0851875C12.1808 0.0955134 12.1808 0.105838 12.1911 0.116164C12.2015 0.12649 12.2015 0.147144 12.2015 0.15747C12.2015 0.167796 12.2015 0.188444 12.2015 0.19877C12.2015 0.209096 12.2015 0.22975 12.2015 0.240076C12.2015 0.250402 12.1911 0.27105 12.1911 0.281376C12.1911 0.291702 12.1808 0.302033 12.1705 0.312359C12.1601 0.322685 12.1498 0.333009 12.1395 0.343335C12.1085 0.384639 12.0465 0.405288 11.9948 0.405288Z" fill="#F8F8FA"/>
<path d="M0.351222 7.89158C0.34089 7.89158 0.320228 7.89158 0.309896 7.89158C0.299565 7.89158 0.278903 7.88125 0.268571 7.88125C0.25824 7.88125 0.247908 7.87093 0.237576 7.8606C0.227245 7.85028 0.216913 7.83995 0.206582 7.82962C0.165256 7.78832 0.144592 7.73669 0.144592 7.68506C0.144592 7.67473 0.144592 7.65409 0.144592 7.64376C0.144592 7.63343 0.154924 7.61278 0.154924 7.60245C0.165256 7.59213 0.165256 7.5818 0.175587 7.57148C0.185918 7.56115 0.19625 7.55083 0.19625 7.5405C0.247907 7.48887 0.320228 7.46822 0.382216 7.48887C0.392548 7.48887 0.413212 7.49919 0.423543 7.49919C0.433875 7.50952 0.444205 7.50952 0.454536 7.51985C0.464868 7.53017 0.4752 7.5405 0.485531 7.5405C0.495863 7.55083 0.506194 7.56115 0.506194 7.57148C0.516525 7.5818 0.516526 7.59213 0.526858 7.60245C0.537189 7.61278 0.537188 7.62311 0.537188 7.64376C0.537188 7.65409 0.537188 7.67473 0.537188 7.68506C0.537188 7.73669 0.516526 7.78832 0.475201 7.82962C0.464869 7.83995 0.454537 7.85028 0.444206 7.8606C0.433874 7.87093 0.423543 7.87093 0.413211 7.88125C0.40288 7.89158 0.382217 7.89158 0.371886 7.89158C0.382217 7.89158 0.361553 7.89158 0.351222 7.89158Z" fill="#F8F8FA"/>
<path d="M0.351283 16.5138C0.340951 16.5138 0.320289 16.5138 0.309957 16.5138C0.299626 16.5138 0.278964 16.5034 0.268632 16.5034C0.258301 16.4931 0.247969 16.4931 0.237637 16.4828C0.227306 16.4725 0.216974 16.4621 0.206643 16.4518C0.165317 16.4105 0.144653 16.3589 0.144653 16.3072C0.144653 16.2556 0.165317 16.204 0.206643 16.1627C0.2583 16.1111 0.330621 16.0904 0.392609 16.1007C0.402941 16.1007 0.423603 16.1111 0.433935 16.1111C0.444266 16.1111 0.454598 16.1214 0.464929 16.1317C0.475261 16.142 0.485593 16.1524 0.495924 16.1627C0.53725 16.204 0.557912 16.2556 0.557912 16.3072C0.557912 16.3589 0.53725 16.4105 0.495924 16.4518C0.485593 16.4621 0.475261 16.4725 0.464929 16.4828C0.454598 16.4931 0.444266 16.4931 0.433935 16.5034C0.423603 16.5034 0.402941 16.5138 0.392609 16.5138C0.382278 16.5138 0.361614 16.5138 0.351283 16.5138Z" fill="#F8F8FA"/>
<path d="M0.196297 12.1977C0.185966 12.1977 0.165304 12.1977 0.154972 12.1977C0.144641 12.1977 0.123978 12.1874 0.113647 12.1874C0.103315 12.177 0.0929835 12.177 0.0826521 12.1667C0.0723206 12.1564 0.0619888 12.1461 0.0516573 12.1461C0.0413259 12.1357 0.0309947 12.1254 0.0309947 12.1151C0.0206633 12.1048 0.0206636 12.0944 0.0103321 12.0841C0.0103321 12.0738 0 12.0635 0 12.0428C0 12.0325 0 12.0118 0 12.0015C0 11.9912 0 11.9705 0 11.9602C0 11.9499 0.0103321 11.9292 0.0103321 11.9189C0.0206636 11.9086 0.0206633 11.8982 0.0309947 11.8879C0.0413262 11.8776 0.0516573 11.8673 0.0516573 11.8569C0.123978 11.7847 0.268619 11.7847 0.340939 11.8569C0.35127 11.8673 0.361602 11.8776 0.371934 11.8879C0.382265 11.8982 0.382265 11.9086 0.392596 11.9189C0.402928 11.9292 0.402927 11.9396 0.402927 11.9602C0.402927 11.9705 0.402927 11.9912 0.402927 12.0015C0.402927 12.0531 0.382265 12.1048 0.340939 12.1461C0.309944 12.177 0.247955 12.1977 0.196297 12.1977Z" fill="#F8F8FA"/>
</svg>
